<svg width="1200" height="371" fill="none" xmlns="http://www.w3.org/2000/svg"><g clip-path="url(#clip0)"><path fill="#fff" d="M0 .423h1200v370H0z"/><path fill-rule="evenodd" clip-rule="evenodd" d="M46 44.423v-4h-2v4h-4v2h4v4h2v-4h4v-2h-4zm0-30v-4h-2v4h-4v2h4v4h2v-4h4v-2h-4zm-30 30v-4h-2v4h-4v2h4v4h2v-4h4v-2h-4zm0-30v-4h-2v4h-4v2h4v4h2v-4h4v-2h-4z" fill="url(#paint0_linear)"/><path fill-rule="evenodd" clip-rule="evenodd" d="M106 44.423v-4h-2v4h-4v2h4v4h2v-4h4v-2h-4zm0-30v-4h-2v4h-4v2h4v4h2v-4h4v-2h-4zm-30 30v-4h-2v4h-4v2h4v4h2v-4h4v-2h-4zm0-30v-4h-2v4h-4v2h4v4h2v-4h4v-2h-4z" fill="url(#paint1_linear)"/><path fill-rule="evenodd" clip-rule="evenodd" d="M166 44.423v-4h-2v4h-4v2h4v4h2v-4h4v-2h-4zm0-30v-4h-2v4h-4v2h4v4h2v-4h4v-2h-4zm-30 30v-4h-2v4h-4v2h4v4h2v-4h4v-2h-4zm0-30v-4h-2v4h-4v2h4v4h2v-4h4v-2h-4z" fill="url(#paint2_linear)"/><path fill-rule="evenodd" clip-rule="evenodd" d="M226 44.423v-4h-2v4h-4v2h4v4h2v-4h4v-2h-4zm0-30v-4h-2v4h-4v2h4v4h2v-4h4v-2h-4zm-30 30v-4h-2v4h-4v2h4v4h2v-4h4v-2h-4zm0-30v-4h-2v4h-4v2h4v4h2v-4h4v-2h-4z" fill="url(#paint3_linear)"/><path fill-rule="evenodd" clip-rule="evenodd" d="M286 44.423v-4h-2v4h-4v2h4v4h2v-4h4v-2h-4zm0-30v-4h-2v4h-4v2h4v4h2v-4h4v-2h-4zm-30 30v-4h-2v4h-4v2h4v4h2v-4h4v-2h-4zm0-30v-4h-2v4h-4v2h4v4h2v-4h4v-2h-4z" fill="url(#paint4_linear)"/><path fill-rule="evenodd" clip-rule="evenodd" d="M346 44.423v-4h-2v4h-4v2h4v4h2v-4h4v-2h-4zm0-30v-4h-2v4h-4v2h4v4h2v-4h4v-2h-4zm-30 30v-4h-2v4h-4v2h4v4h2v-4h4v-2h-4zm0-30v-4h-2v4h-4v2h4v4h2v-4h4v-2h-4z" fill="url(#paint5_linear)"/><path fill-rule="evenodd" clip-rule="evenodd" d="M406 44.423v-4h-2v4h-4v2h4v4h2v-4h4v-2h-4zm0-30v-4h-2v4h-4v2h4v4h2v-4h4v-2h-4zm-30 30v-4h-2v4h-4v2h4v4h2v-4h4v-2h-4zm0-30v-4h-2v4h-4v2h4v4h2v-4h4v-2h-4z" fill="url(#paint6_linear)"/><path fill-rule="evenodd" clip-rule="evenodd" d="M466 44.423v-4h-2v4h-4v2h4v4h2v-4h4v-2h-4zm0-30v-4h-2v4h-4v2h4v4h2v-4h4v-2h-4zm-30 30v-4h-2v4h-4v2h4v4h2v-4h4v-2h-4zm0-30v-4h-2v4h-4v2h4v4h2v-4h4v-2h-4z" fill="url(#paint7_linear)"/><path fill-rule="evenodd" clip-rule="evenodd" d="M526 44.423v-4h-2v4h-4v2h4v4h2v-4h4v-2h-4zm0-30v-4h-2v4h-4v2h4v4h2v-4h4v-2h-4zm-30 30v-4h-2v4h-4v2h4v4h2v-4h4v-2h-4zm0-30v-4h-2v4h-4v2h4v4h2v-4h4v-2h-4z" fill="url(#paint8_linear)"/><path fill-rule="evenodd" clip-rule="evenodd" d="M586 44.423v-4h-2v4h-4v2h4v4h2v-4h4v-2h-4zm0-30v-4h-2v4h-4v2h4v4h2v-4h4v-2h-4zm-30 30v-4h-2v4h-4v2h4v4h2v-4h4v-2h-4zm0-30v-4h-2v4h-4v2h4v4h2v-4h4v-2h-4z" fill="url(#paint9_linear)"/><path fill-rule="evenodd" clip-rule="evenodd" d="M46 104.423v-4h-2v4h-4v2h4v4h2v-4h4v-2h-4zm0-30v-4h-2v4h-4v2h4v4h2v-4h4v-2h-4zm-30 30v-4h-2v4h-4v2h4v4h2v-4h4v-2h-4zm0-30v-4h-2v4h-4v2h4v4h2v-4h4v-2h-4z" fill="url(#paint10_linear)"/><path fill-rule="evenodd" clip-rule="evenodd" d="M106 104.423v-4h-2v4h-4v2h4v4h2v-4h4v-2h-4zm0-30v-4h-2v4h-4v2h4v4h2v-4h4v-2h-4zm-30 30v-4h-2v4h-4v2h4v4h2v-4h4v-2h-4zm0-30v-4h-2v4h-4v2h4v4h2v-4h4v-2h-4z" fill="url(#paint11_linear)"/><path fill-rule="evenodd" clip-rule="evenodd" d="M166 104.423v-4h-2v4h-4v2h4v4h2v-4h4v-2h-4zm0-30v-4h-2v4h-4v2h4v4h2v-4h4v-2h-4zm-30 30v-4h-2v4h-4v2h4v4h2v-4h4v-2h-4zm0-30v-4h-2v4h-4v2h4v4h2v-4h4v-2h-4z" fill="url(#paint12_linear)"/><path fill-rule="evenodd" clip-rule="evenodd" d="M226 104.423v-4h-2v4h-4v2h4v4h2v-4h4v-2h-4zm0-30v-4h-2v4h-4v2h4v4h2v-4h4v-2h-4zm-30 30v-4h-2v4h-4v2h4v4h2v-4h4v-2h-4zm0-30v-4h-2v4h-4v2h4v4h2v-4h4v-2h-4z" fill="url(#paint13_linear)"/><path fill-rule="evenodd" clip-rule="evenodd" d="M286 104.423v-4h-2v4h-4v2h4v4h2v-4h4v-2h-4zm0-30v-4h-2v4h-4v2h4v4h2v-4h4v-2h-4zm-30 30v-4h-2v4h-4v2h4v4h2v-4h4v-2h-4zm0-30v-4h-2v4h-4v2h4v4h2v-4h4v-2h-4z" fill="url(#paint14_linear)"/><path fill-rule="evenodd" clip-rule="evenodd" d="M346 104.423v-4h-2v4h-4v2h4v4h2v-4h4v-2h-4zm0-30v-4h-2v4h-4v2h4v4h2v-4h4v-2h-4zm-30 30v-4h-2v4h-4v2h4v4h2v-4h4v-2h-4zm0-30v-4h-2v4h-4v2h4v4h2v-4h4v-2h-4z" fill="url(#paint15_linear)"/><path fill-rule="evenodd" clip-rule="evenodd" d="M406 104.423v-4h-2v4h-4v2h4v4h2v-4h4v-2h-4zm0-30v-4h-2v4h-4v2h4v4h2v-4h4v-2h-4zm-30 30v-4h-2v4h-4v2h4v4h2v-4h4v-2h-4zm0-30v-4h-2v4h-4v2h4v4h2v-4h4v-2h-4z" fill="url(#paint16_linear)"/><path fill-rule="evenodd" clip-rule="evenodd" d="M466 104.423v-4h-2v4h-4v2h4v4h2v-4h4v-2h-4zm0-30v-4h-2v4h-4v2h4v4h2v-4h4v-2h-4zm-30 30v-4h-2v4h-4v2h4v4h2v-4h4v-2h-4zm0-30v-4h-2v4h-4v2h4v4h2v-4h4v-2h-4z" fill="url(#paint17_linear)"/><path fill-rule="evenodd" clip-rule="evenodd" d="M526 104.423v-4h-2v4h-4v2h4v4h2v-4h4v-2h-4zm0-30v-4h-2v4h-4v2h4v4h2v-4h4v-2h-4zm-30 30v-4h-2v4h-4v2h4v4h2v-4h4v-2h-4zm0-30v-4h-2v4h-4v2h4v4h2v-4h4v-2h-4z" fill="url(#paint18_linear)"/><path fill-rule="evenodd" clip-rule="evenodd" d="M586 104.423v-4h-2v4h-4v2h4v4h2v-4h4v-2h-4zm0-30v-4h-2v4h-4v2h4v4h2v-4h4v-2h-4zm-30 30v-4h-2v4h-4v2h4v4h2v-4h4v-2h-4zm0-30v-4h-2v4h-4v2h4v4h2v-4h4v-2h-4z" fill="url(#paint19_linear)"/><path fill-rule="evenodd" clip-rule="evenodd" d="M46 164.423v-4h-2v4h-4v2h4v4h2v-4h4v-2h-4zm0-30v-4h-2v4h-4v2h4v4h2v-4h4v-2h-4zm-30 30v-4h-2v4h-4v2h4v4h2v-4h4v-2h-4zm0-30v-4h-2v4h-4v2h4v4h2v-4h4v-2h-4z" fill="url(#paint20_linear)"/><path fill-rule="evenodd" clip-rule="evenodd" d="M106 164.423v-4h-2v4h-4v2h4v4h2v-4h4v-2h-4zm0-30v-4h-2v4h-4v2h4v4h2v-4h4v-2h-4zm-30 30v-4h-2v4h-4v2h4v4h2v-4h4v-2h-4zm0-30v-4h-2v4h-4v2h4v4h2v-4h4v-2h-4z" fill="url(#paint21_linear)"/><path fill-rule="evenodd" clip-rule="evenodd" d="M166 164.423v-4h-2v4h-4v2h4v4h2v-4h4v-2h-4zm0-30v-4h-2v4h-4v2h4v4h2v-4h4v-2h-4zm-30 30v-4h-2v4h-4v2h4v4h2v-4h4v-2h-4zm0-30v-4h-2v4h-4v2h4v4h2v-4h4v-2h-4z" fill="url(#paint22_linear)"/><path fill-rule="evenodd" clip-rule="evenodd" d="M226 164.423v-4h-2v4h-4v2h4v4h2v-4h4v-2h-4zm0-30v-4h-2v4h-4v2h4v4h2v-4h4v-2h-4zm-30 30v-4h-2v4h-4v2h4v4h2v-4h4v-2h-4zm0-30v-4h-2v4h-4v2h4v4h2v-4h4v-2h-4z" fill="url(#paint23_linear)"/><path fill-rule="evenodd" clip-rule="evenodd" d="M286 164.423v-4h-2v4h-4v2h4v4h2v-4h4v-2h-4zm0-30v-4h-2v4h-4v2h4v4h2v-4h4v-2h-4zm-30 30v-4h-2v4h-4v2h4v4h2v-4h4v-2h-4zm0-30v-4h-2v4h-4v2h4v4h2v-4h4v-2h-4z" fill="url(#paint24_linear)"/><path fill-rule="evenodd" clip-rule="evenodd" d="M346 164.423v-4h-2v4h-4v2h4v4h2v-4h4v-2h-4zm0-30v-4h-2v4h-4v2h4v4h2v-4h4v-2h-4zm-30 30v-4h-2v4h-4v2h4v4h2v-4h4v-2h-4zm0-30v-4h-2v4h-4v2h4v4h2v-4h4v-2h-4z" fill="url(#paint25_linear)"/><path fill-rule="evenodd" clip-rule="evenodd" d="M406 164.423v-4h-2v4h-4v2h4v4h2v-4h4v-2h-4zm0-30v-4h-2v4h-4v2h4v4h2v-4h4v-2h-4zm-30 30v-4h-2v4h-4v2h4v4h2v-4h4v-2h-4zm0-30v-4h-2v4h-4v2h4v4h2v-4h4v-2h-4z" fill="url(#paint26_linear)"/><path fill-rule="evenodd" clip-rule="evenodd" d="M466 164.423v-4h-2v4h-4v2h4v4h2v-4h4v-2h-4zm0-30v-4h-2v4h-4v2h4v4h2v-4h4v-2h-4zm-30 30v-4h-2v4h-4v2h4v4h2v-4h4v-2h-4zm0-30v-4h-2v4h-4v2h4v4h2v-4h4v-2h-4z" fill="url(#paint27_linear)"/><path fill-rule="evenodd" clip-rule="evenodd" d="M526 164.423v-4h-2v4h-4v2h4v4h2v-4h4v-2h-4zm0-30v-4h-2v4h-4v2h4v4h2v-4h4v-2h-4zm-30 30v-4h-2v4h-4v2h4v4h2v-4h4v-2h-4zm0-30v-4h-2v4h-4v2h4v4h2v-4h4v-2h-4z" fill="url(#paint28_linear)"/><path fill-rule="evenodd" clip-rule="evenodd" d="M586 164.423v-4h-2v4h-4v2h4v4h2v-4h4v-2h-4zm0-30v-4h-2v4h-4v2h4v4h2v-4h4v-2h-4zm-30 30v-4h-2v4h-4v2h4v4h2v-4h4v-2h-4zm0-30v-4h-2v4h-4v2h4v4h2v-4h4v-2h-4z" fill="url(#paint29_linear)"/><path fill-rule="evenodd" clip-rule="evenodd" d="M46 224.423v-4h-2v4h-4v2h4v4h2v-4h4v-2h-4zm0-30v-4h-2v4h-4v2h4v4h2v-4h4v-2h-4zm-30 30v-4h-2v4h-4v2h4v4h2v-4h4v-2h-4zm0-30v-4h-2v4h-4v2h4v4h2v-4h4v-2h-4z" fill="url(#paint30_linear)"/><path fill-rule="evenodd" clip-rule="evenodd" d="M106 224.423v-4h-2v4h-4v2h4v4h2v-4h4v-2h-4zm0-30v-4h-2v4h-4v2h4v4h2v-4h4v-2h-4zm-30 30v-4h-2v4h-4v2h4v4h2v-4h4v-2h-4zm0-30v-4h-2v4h-4v2h4v4h2v-4h4v-2h-4z" fill="url(#paint31_linear)"/><path fill-rule="evenodd" clip-rule="evenodd" d="M166 224.423v-4h-2v4h-4v2h4v4h2v-4h4v-2h-4zm0-30v-4h-2v4h-4v2h4v4h2v-4h4v-2h-4zm-30 30v-4h-2v4h-4v2h4v4h2v-4h4v-2h-4zm0-30v-4h-2v4h-4v2h4v4h2v-4h4v-2h-4z" fill="url(#paint32_linear)"/><path fill-rule="evenodd" clip-rule="evenodd" d="M226 224.423v-4h-2v4h-4v2h4v4h2v-4h4v-2h-4zm0-30v-4h-2v4h-4v2h4v4h2v-4h4v-2h-4zm-30 30v-4h-2v4h-4v2h4v4h2v-4h4v-2h-4zm0-30v-4h-2v4h-4v2h4v4h2v-4h4v-2h-4z" fill="url(#paint33_linear)"/><path fill-rule="evenodd" clip-rule="evenodd" d="M286 224.423v-4h-2v4h-4v2h4v4h2v-4h4v-2h-4zm0-30v-4h-2v4h-4v2h4v4h2v-4h4v-2h-4zm-30 30v-4h-2v4h-4v2h4v4h2v-4h4v-2h-4zm0-30v-4h-2v4h-4v2h4v4h2v-4h4v-2h-4z" fill="url(#paint34_linear)"/><path fill-rule="evenodd" clip-rule="evenodd" d="M346 224.423v-4h-2v4h-4v2h4v4h2v-4h4v-2h-4zm0-30v-4h-2v4h-4v2h4v4h2v-4h4v-2h-4zm-30 30v-4h-2v4h-4v2h4v4h2v-4h4v-2h-4zm0-30v-4h-2v4h-4v2h4v4h2v-4h4v-2h-4z" fill="url(#paint35_linear)"/><path fill-rule="evenodd" clip-rule="evenodd" d="M406 224.423v-4h-2v4h-4v2h4v4h2v-4h4v-2h-4zm0-30v-4h-2v4h-4v2h4v4h2v-4h4v-2h-4zm-30 30v-4h-2v4h-4v2h4v4h2v-4h4v-2h-4zm0-30v-4h-2v4h-4v2h4v4h2v-4h4v-2h-4z" fill="url(#paint36_linear)"/><path fill-rule="evenodd" clip-rule="evenodd" d="M466 224.423v-4h-2v4h-4v2h4v4h2v-4h4v-2h-4zm0-30v-4h-2v4h-4v2h4v4h2v-4h4v-2h-4zm-30 30v-4h-2v4h-4v2h4v4h2v-4h4v-2h-4zm0-30v-4h-2v4h-4v2h4v4h2v-4h4v-2h-4z" fill="url(#paint37_linear)"/><path fill-rule="evenodd" clip-rule="evenodd" d="M526 224.423v-4h-2v4h-4v2h4v4h2v-4h4v-2h-4zm0-30v-4h-2v4h-4v2h4v4h2v-4h4v-2h-4zm-30 30v-4h-2v4h-4v2h4v4h2v-4h4v-2h-4zm0-30v-4h-2v4h-4v2h4v4h2v-4h4v-2h-4z" fill="url(#paint38_linear)"/><path fill-rule="evenodd" clip-rule="evenodd" d="M586 224.423v-4h-2v4h-4v2h4v4h2v-4h4v-2h-4zm0-30v-4h-2v4h-4v2h4v4h2v-4h4v-2h-4zm-30 30v-4h-2v4h-4v2h4v4h2v-4h4v-2h-4zm0-30v-4h-2v4h-4v2h4v4h2v-4h4v-2h-4z" fill="url(#paint39_linear)"/><path fill-rule="evenodd" clip-rule="evenodd" d="M46 284.423v-4h-2v4h-4v2h4v4h2v-4h4v-2h-4zm0-30v-4h-2v4h-4v2h4v4h2v-4h4v-2h-4zm-30 30v-4h-2v4h-4v2h4v4h2v-4h4v-2h-4zm0-30v-4h-2v4h-4v2h4v4h2v-4h4v-2h-4z" fill="url(#paint40_linear)"/><path fill-rule="evenodd" clip-rule="evenodd" d="M106 284.423v-4h-2v4h-4v2h4v4h2v-4h4v-2h-4zm0-30v-4h-2v4h-4v2h4v4h2v-4h4v-2h-4zm-30 30v-4h-2v4h-4v2h4v4h2v-4h4v-2h-4zm0-30v-4h-2v4h-4v2h4v4h2v-4h4v-2h-4z" fill="url(#paint41_linear)"/><path fill-rule="evenodd" clip-rule="evenodd" d="M166 284.423v-4h-2v4h-4v2h4v4h2v-4h4v-2h-4zm0-30v-4h-2v4h-4v2h4v4h2v-4h4v-2h-4zm-30 30v-4h-2v4h-4v2h4v4h2v-4h4v-2h-4zm0-30v-4h-2v4h-4v2h4v4h2v-4h4v-2h-4z" fill="url(#paint42_linear)"/><path fill-rule="evenodd" clip-rule="evenodd" d="M226 284.423v-4h-2v4h-4v2h4v4h2v-4h4v-2h-4zm0-30v-4h-2v4h-4v2h4v4h2v-4h4v-2h-4zm-30 30v-4h-2v4h-4v2h4v4h2v-4h4v-2h-4zm0-30v-4h-2v4h-4v2h4v4h2v-4h4v-2h-4z" fill="url(#paint43_linear)"/><path fill-rule="evenodd" clip-rule="evenodd" d="M286 284.423v-4h-2v4h-4v2h4v4h2v-4h4v-2h-4zm0-30v-4h-2v4h-4v2h4v4h2v-4h4v-2h-4zm-30 30v-4h-2v4h-4v2h4v4h2v-4h4v-2h-4zm0-30v-4h-2v4h-4v2h4v4h2v-4h4v-2h-4z" fill="url(#paint44_linear)"/><path fill-rule="evenodd" clip-rule="evenodd" d="M346 284.423v-4h-2v4h-4v2h4v4h2v-4h4v-2h-4zm0-30v-4h-2v4h-4v2h4v4h2v-4h4v-2h-4zm-30 30v-4h-2v4h-4v2h4v4h2v-4h4v-2h-4zm0-30v-4h-2v4h-4v2h4v4h2v-4h4v-2h-4z" fill="url(#paint45_linear)"/><path fill-rule="evenodd" clip-rule="evenodd" d="M406 284.423v-4h-2v4h-4v2h4v4h2v-4h4v-2h-4zm0-30v-4h-2v4h-4v2h4v4h2v-4h4v-2h-4zm-30 30v-4h-2v4h-4v2h4v4h2v-4h4v-2h-4zm0-30v-4h-2v4h-4v2h4v4h2v-4h4v-2h-4z" fill="url(#paint46_linear)"/><path fill-rule="evenodd" clip-rule="evenodd" d="M466 284.423v-4h-2v4h-4v2h4v4h2v-4h4v-2h-4zm0-30v-4h-2v4h-4v2h4v4h2v-4h4v-2h-4zm-30 30v-4h-2v4h-4v2h4v4h2v-4h4v-2h-4zm0-30v-4h-2v4h-4v2h4v4h2v-4h4v-2h-4z" fill="url(#paint47_linear)"/><path fill-rule="evenodd" clip-rule="evenodd" d="M526 284.423v-4h-2v4h-4v2h4v4h2v-4h4v-2h-4zm0-30v-4h-2v4h-4v2h4v4h2v-4h4v-2h-4zm-30 30v-4h-2v4h-4v2h4v4h2v-4h4v-2h-4zm0-30v-4h-2v4h-4v2h4v4h2v-4h4v-2h-4z" fill="url(#paint48_linear)"/><path fill-rule="evenodd" clip-rule="evenodd" d="M586 284.423v-4h-2v4h-4v2h4v4h2v-4h4v-2h-4zm0-30v-4h-2v4h-4v2h4v4h2v-4h4v-2h-4zm-30 30v-4h-2v4h-4v2h4v4h2v-4h4v-2h-4zm0-30v-4h-2v4h-4v2h4v4h2v-4h4v-2h-4z" fill="url(#paint49_linear)"/><path fill-rule="evenodd" clip-rule="evenodd" d="M46 344.423v-4h-2v4h-4v2h4v4h2v-4h4v-2h-4zm0-30v-4h-2v4h-4v2h4v4h2v-4h4v-2h-4zm-30 30v-4h-2v4h-4v2h4v4h2v-4h4v-2h-4zm0-30v-4h-2v4h-4v2h4v4h2v-4h4v-2h-4z" fill="url(#paint50_linear)"/><path fill-rule="evenodd" clip-rule="evenodd" d="M106 344.423v-4h-2v4h-4v2h4v4h2v-4h4v-2h-4zm0-30v-4h-2v4h-4v2h4v4h2v-4h4v-2h-4zm-30 30v-4h-2v4h-4v2h4v4h2v-4h4v-2h-4zm0-30v-4h-2v4h-4v2h4v4h2v-4h4v-2h-4z" fill="url(#paint51_linear)"/><path fill-rule="evenodd" clip-rule="evenodd" d="M166 344.423v-4h-2v4h-4v2h4v4h2v-4h4v-2h-4zm0-30v-4h-2v4h-4v2h4v4h2v-4h4v-2h-4zm-30 30v-4h-2v4h-4v2h4v4h2v-4h4v-2h-4zm0-30v-4h-2v4h-4v2h4v4h2v-4h4v-2h-4z" fill="url(#paint52_linear)"/><path fill-rule="evenodd" clip-rule="evenodd" d="M226 344.423v-4h-2v4h-4v2h4v4h2v-4h4v-2h-4zm0-30v-4h-2v4h-4v2h4v4h2v-4h4v-2h-4zm-30 30v-4h-2v4h-4v2h4v4h2v-4h4v-2h-4zm0-30v-4h-2v4h-4v2h4v4h2v-4h4v-2h-4z" fill="url(#paint53_linear)"/><path fill-rule="evenodd" clip-rule="evenodd" d="M286 344.423v-4h-2v4h-4v2h4v4h2v-4h4v-2h-4zm0-30v-4h-2v4h-4v2h4v4h2v-4h4v-2h-4zm-30 30v-4h-2v4h-4v2h4v4h2v-4h4v-2h-4zm0-30v-4h-2v4h-4v2h4v4h2v-4h4v-2h-4z" fill="url(#paint54_linear)"/><path fill-rule="evenodd" clip-rule="evenodd" d="M346 344.423v-4h-2v4h-4v2h4v4h2v-4h4v-2h-4zm0-30v-4h-2v4h-4v2h4v4h2v-4h4v-2h-4zm-30 30v-4h-2v4h-4v2h4v4h2v-4h4v-2h-4zm0-30v-4h-2v4h-4v2h4v4h2v-4h4v-2h-4z" fill="url(#paint55_linear)"/><path fill-rule="evenodd" clip-rule="evenodd" d="M406 344.423v-4h-2v4h-4v2h4v4h2v-4h4v-2h-4zm0-30v-4h-2v4h-4v2h4v4h2v-4h4v-2h-4zm-30 30v-4h-2v4h-4v2h4v4h2v-4h4v-2h-4zm0-30v-4h-2v4h-4v2h4v4h2v-4h4v-2h-4z" fill="url(#paint56_linear)"/><path fill-rule="evenodd" clip-rule="evenodd" d="M466 344.423v-4h-2v4h-4v2h4v4h2v-4h4v-2h-4zm0-30v-4h-2v4h-4v2h4v4h2v-4h4v-2h-4zm-30 30v-4h-2v4h-4v2h4v4h2v-4h4v-2h-4zm0-30v-4h-2v4h-4v2h4v4h2v-4h4v-2h-4z" fill="url(#paint57_linear)"/><path fill-rule="evenodd" clip-rule="evenodd" d="M526 344.423v-4h-2v4h-4v2h4v4h2v-4h4v-2h-4zm0-30v-4h-2v4h-4v2h4v4h2v-4h4v-2h-4zm-30 30v-4h-2v4h-4v2h4v4h2v-4h4v-2h-4zm0-30v-4h-2v4h-4v2h4v4h2v-4h4v-2h-4z" fill="url(#paint58_linear)"/><path fill-rule="evenodd" clip-rule="evenodd" d="M586 344.423v-4h-2v4h-4v2h4v4h2v-4h4v-2h-4zm0-30v-4h-2v4h-4v2h4v4h2v-4h4v-2h-4zm-30 30v-4h-2v4h-4v2h4v4h2v-4h4v-2h-4zm0-30v-4h-2v4h-4v2h4v4h2v-4h4v-2h-4z" fill="url(#paint59_linear)"/><path fill-rule="evenodd" clip-rule="evenodd" d="M646 44.423v-4h-2v4h-4v2h4v4h2v-4h4v-2h-4zm0-30v-4h-2v4h-4v2h4v4h2v-4h4v-2h-4zm-30 30v-4h-2v4h-4v2h4v4h2v-4h4v-2h-4zm0-30v-4h-2v4h-4v2h4v4h2v-4h4v-2h-4z" fill="url(#paint60_linear)"/><path fill-rule="evenodd" clip-rule="evenodd" d="M706 44.423v-4h-2v4h-4v2h4v4h2v-4h4v-2h-4zm0-30v-4h-2v4h-4v2h4v4h2v-4h4v-2h-4zm-30 30v-4h-2v4h-4v2h4v4h2v-4h4v-2h-4zm0-30v-4h-2v4h-4v2h4v4h2v-4h4v-2h-4z" fill="url(#paint61_linear)"/><path fill-rule="evenodd" clip-rule="evenodd" d="M766 44.423v-4h-2v4h-4v2h4v4h2v-4h4v-2h-4zm0-30v-4h-2v4h-4v2h4v4h2v-4h4v-2h-4zm-30 30v-4h-2v4h-4v2h4v4h2v-4h4v-2h-4zm0-30v-4h-2v4h-4v2h4v4h2v-4h4v-2h-4z" fill="url(#paint62_linear)"/><path fill-rule="evenodd" clip-rule="evenodd" d="M826 44.423v-4h-2v4h-4v2h4v4h2v-4h4v-2h-4zm0-30v-4h-2v4h-4v2h4v4h2v-4h4v-2h-4zm-30 30v-4h-2v4h-4v2h4v4h2v-4h4v-2h-4zm0-30v-4h-2v4h-4v2h4v4h2v-4h4v-2h-4z" fill="url(#paint63_linear)"/><path fill-rule="evenodd" clip-rule="evenodd" d="M886 44.423v-4h-2v4h-4v2h4v4h2v-4h4v-2h-4zm0-30v-4h-2v4h-4v2h4v4h2v-4h4v-2h-4zm-30 30v-4h-2v4h-4v2h4v4h2v-4h4v-2h-4zm0-30v-4h-2v4h-4v2h4v4h2v-4h4v-2h-4z" fill="url(#paint64_linear)"/><path fill-rule="evenodd" clip-rule="evenodd" d="M946 44.423v-4h-2v4h-4v2h4v4h2v-4h4v-2h-4zm0-30v-4h-2v4h-4v2h4v4h2v-4h4v-2h-4zm-30 30v-4h-2v4h-4v2h4v4h2v-4h4v-2h-4zm0-30v-4h-2v4h-4v2h4v4h2v-4h4v-2h-4z" fill="url(#paint65_linear)"/><path fill-rule="evenodd" clip-rule="evenodd" d="M1006 44.423v-4h-2v4h-4v2h4v4h2v-4h4v-2h-4zm0-30v-4h-2v4h-4v2h4v4h2v-4h4v-2h-4zm-30 30v-4h-2v4h-4v2h4v4h2v-4h4v-2h-4zm0-30v-4h-2v4h-4v2h4v4h2v-4h4v-2h-4z" fill="url(#paint66_linear)"/><path fill-rule="evenodd" clip-rule="evenodd" d="M1066 44.423v-4h-2v4h-4v2h4v4h2v-4h4v-2h-4zm0-30v-4h-2v4h-4v2h4v4h2v-4h4v-2h-4zm-30 30v-4h-2v4h-4v2h4v4h2v-4h4v-2h-4zm0-30v-4h-2v4h-4v2h4v4h2v-4h4v-2h-4z" fill="url(#paint67_linear)"/><path fill-rule="evenodd" clip-rule="evenodd" d="M1126 44.423v-4h-2v4h-4v2h4v4h2v-4h4v-2h-4zm0-30v-4h-2v4h-4v2h4v4h2v-4h4v-2h-4zm-30 30v-4h-2v4h-4v2h4v4h2v-4h4v-2h-4zm0-30v-4h-2v4h-4v2h4v4h2v-4h4v-2h-4z" fill="url(#paint68_linear)"/><path fill-rule="evenodd" clip-rule="evenodd" d="M1186 44.423v-4h-2v4h-4v2h4v4h2v-4h4v-2h-4zm0-30v-4h-2v4h-4v2h4v4h2v-4h4v-2h-4zm-30 30v-4h-2v4h-4v2h4v4h2v-4h4v-2h-4zm0-30v-4h-2v4h-4v2h4v4h2v-4h4v-2h-4z" fill="url(#paint69_linear)"/><path fill-rule="evenodd" clip-rule="evenodd" d="M646 104.423v-4h-2v4h-4v2h4v4h2v-4h4v-2h-4zm0-30v-4h-2v4h-4v2h4v4h2v-4h4v-2h-4zm-30 30v-4h-2v4h-4v2h4v4h2v-4h4v-2h-4zm0-30v-4h-2v4h-4v2h4v4h2v-4h4v-2h-4z" fill="url(#paint70_linear)"/><path fill-rule="evenodd" clip-rule="evenodd" d="M706 104.423v-4h-2v4h-4v2h4v4h2v-4h4v-2h-4zm0-30v-4h-2v4h-4v2h4v4h2v-4h4v-2h-4zm-30 30v-4h-2v4h-4v2h4v4h2v-4h4v-2h-4zm0-30v-4h-2v4h-4v2h4v4h2v-4h4v-2h-4z" fill="url(#paint71_linear)"/><path fill-rule="evenodd" clip-rule="evenodd" d="M766 104.423v-4h-2v4h-4v2h4v4h2v-4h4v-2h-4zm0-30v-4h-2v4h-4v2h4v4h2v-4h4v-2h-4zm-30 30v-4h-2v4h-4v2h4v4h2v-4h4v-2h-4zm0-30v-4h-2v4h-4v2h4v4h2v-4h4v-2h-4z" fill="url(#paint72_linear)"/><path fill-rule="evenodd" clip-rule="evenodd" d="M826 104.423v-4h-2v4h-4v2h4v4h2v-4h4v-2h-4zm0-30v-4h-2v4h-4v2h4v4h2v-4h4v-2h-4zm-30 30v-4h-2v4h-4v2h4v4h2v-4h4v-2h-4zm0-30v-4h-2v4h-4v2h4v4h2v-4h4v-2h-4z" fill="url(#paint73_linear)"/><path fill-rule="evenodd" clip-rule="evenodd" d="M886 104.423v-4h-2v4h-4v2h4v4h2v-4h4v-2h-4zm0-30v-4h-2v4h-4v2h4v4h2v-4h4v-2h-4zm-30 30v-4h-2v4h-4v2h4v4h2v-4h4v-2h-4zm0-30v-4h-2v4h-4v2h4v4h2v-4h4v-2h-4z" fill="url(#paint74_linear)"/><path fill-rule="evenodd" clip-rule="evenodd" d="M946 104.423v-4h-2v4h-4v2h4v4h2v-4h4v-2h-4zm0-30v-4h-2v4h-4v2h4v4h2v-4h4v-2h-4zm-30 30v-4h-2v4h-4v2h4v4h2v-4h4v-2h-4zm0-30v-4h-2v4h-4v2h4v4h2v-4h4v-2h-4z" fill="url(#paint75_linear)"/><path fill-rule="evenodd" clip-rule="evenodd" d="M1006 104.423v-4h-2v4h-4v2h4v4h2v-4h4v-2h-4zm0-30v-4h-2v4h-4v2h4v4h2v-4h4v-2h-4zm-30 30v-4h-2v4h-4v2h4v4h2v-4h4v-2h-4zm0-30v-4h-2v4h-4v2h4v4h2v-4h4v-2h-4z" fill="url(#paint76_linear)"/><path fill-rule="evenodd" clip-rule="evenodd" d="M1066 104.423v-4h-2v4h-4v2h4v4h2v-4h4v-2h-4zm0-30v-4h-2v4h-4v2h4v4h2v-4h4v-2h-4zm-30 30v-4h-2v4h-4v2h4v4h2v-4h4v-2h-4zm0-30v-4h-2v4h-4v2h4v4h2v-4h4v-2h-4z" fill="url(#paint77_linear)"/><path fill-rule="evenodd" clip-rule="evenodd" d="M1126 104.423v-4h-2v4h-4v2h4v4h2v-4h4v-2h-4zm0-30v-4h-2v4h-4v2h4v4h2v-4h4v-2h-4zm-30 30v-4h-2v4h-4v2h4v4h2v-4h4v-2h-4zm0-30v-4h-2v4h-4v2h4v4h2v-4h4v-2h-4z" fill="url(#paint78_linear)"/><path fill-rule="evenodd" clip-rule="evenodd" d="M1186 104.423v-4h-2v4h-4v2h4v4h2v-4h4v-2h-4zm0-30v-4h-2v4h-4v2h4v4h2v-4h4v-2h-4zm-30 30v-4h-2v4h-4v2h4v4h2v-4h4v-2h-4zm0-30v-4h-2v4h-4v2h4v4h2v-4h4v-2h-4z" fill="url(#paint79_linear)"/><path fill-rule="evenodd" clip-rule="evenodd" d="M646 164.423v-4h-2v4h-4v2h4v4h2v-4h4v-2h-4zm0-30v-4h-2v4h-4v2h4v4h2v-4h4v-2h-4zm-30 30v-4h-2v4h-4v2h4v4h2v-4h4v-2h-4zm0-30v-4h-2v4h-4v2h4v4h2v-4h4v-2h-4z" fill="url(#paint80_linear)"/><path fill-rule="evenodd" clip-rule="evenodd" d="M706 164.423v-4h-2v4h-4v2h4v4h2v-4h4v-2h-4zm0-30v-4h-2v4h-4v2h4v4h2v-4h4v-2h-4zm-30 30v-4h-2v4h-4v2h4v4h2v-4h4v-2h-4zm0-30v-4h-2v4h-4v2h4v4h2v-4h4v-2h-4z" fill="url(#paint81_linear)"/><path fill-rule="evenodd" clip-rule="evenodd" d="M766 164.423v-4h-2v4h-4v2h4v4h2v-4h4v-2h-4zm0-30v-4h-2v4h-4v2h4v4h2v-4h4v-2h-4zm-30 30v-4h-2v4h-4v2h4v4h2v-4h4v-2h-4zm0-30v-4h-2v4h-4v2h4v4h2v-4h4v-2h-4z" fill="url(#paint82_linear)"/><path fill-rule="evenodd" clip-rule="evenodd" d="M826 164.423v-4h-2v4h-4v2h4v4h2v-4h4v-2h-4zm0-30v-4h-2v4h-4v2h4v4h2v-4h4v-2h-4zm-30 30v-4h-2v4h-4v2h4v4h2v-4h4v-2h-4zm0-30v-4h-2v4h-4v2h4v4h2v-4h4v-2h-4z" fill="url(#paint83_linear)"/><path fill-rule="evenodd" clip-rule="evenodd" d="M886 164.423v-4h-2v4h-4v2h4v4h2v-4h4v-2h-4zm0-30v-4h-2v4h-4v2h4v4h2v-4h4v-2h-4zm-30 30v-4h-2v4h-4v2h4v4h2v-4h4v-2h-4zm0-30v-4h-2v4h-4v2h4v4h2v-4h4v-2h-4z" fill="url(#paint84_linear)"/><path fill-rule="evenodd" clip-rule="evenodd" d="M946 164.423v-4h-2v4h-4v2h4v4h2v-4h4v-2h-4zm0-30v-4h-2v4h-4v2h4v4h2v-4h4v-2h-4zm-30 30v-4h-2v4h-4v2h4v4h2v-4h4v-2h-4zm0-30v-4h-2v4h-4v2h4v4h2v-4h4v-2h-4z" fill="url(#paint85_linear)"/><path fill-rule="evenodd" clip-rule="evenodd" d="M1006 164.423v-4h-2v4h-4v2h4v4h2v-4h4v-2h-4zm0-30v-4h-2v4h-4v2h4v4h2v-4h4v-2h-4zm-30 30v-4h-2v4h-4v2h4v4h2v-4h4v-2h-4zm0-30v-4h-2v4h-4v2h4v4h2v-4h4v-2h-4z" fill="url(#paint86_linear)"/><path fill-rule="evenodd" clip-rule="evenodd" d="M1066 164.423v-4h-2v4h-4v2h4v4h2v-4h4v-2h-4zm0-30v-4h-2v4h-4v2h4v4h2v-4h4v-2h-4zm-30 30v-4h-2v4h-4v2h4v4h2v-4h4v-2h-4zm0-30v-4h-2v4h-4v2h4v4h2v-4h4v-2h-4z" fill="url(#paint87_linear)"/><path fill-rule="evenodd" clip-rule="evenodd" d="M1126 164.423v-4h-2v4h-4v2h4v4h2v-4h4v-2h-4zm0-30v-4h-2v4h-4v2h4v4h2v-4h4v-2h-4zm-30 30v-4h-2v4h-4v2h4v4h2v-4h4v-2h-4zm0-30v-4h-2v4h-4v2h4v4h2v-4h4v-2h-4z" fill="url(#paint88_linear)"/><path fill-rule="evenodd" clip-rule="evenodd" d="M1186 164.423v-4h-2v4h-4v2h4v4h2v-4h4v-2h-4zm0-30v-4h-2v4h-4v2h4v4h2v-4h4v-2h-4zm-30 30v-4h-2v4h-4v2h4v4h2v-4h4v-2h-4zm0-30v-4h-2v4h-4v2h4v4h2v-4h4v-2h-4z" fill="url(#paint89_linear)"/><path fill-rule="evenodd" clip-rule="evenodd" d="M646 224.423v-4h-2v4h-4v2h4v4h2v-4h4v-2h-4zm0-30v-4h-2v4h-4v2h4v4h2v-4h4v-2h-4zm-30 30v-4h-2v4h-4v2h4v4h2v-4h4v-2h-4zm0-30v-4h-2v4h-4v2h4v4h2v-4h4v-2h-4z" fill="url(#paint90_linear)"/><path fill-rule="evenodd" clip-rule="evenodd" d="M706 224.423v-4h-2v4h-4v2h4v4h2v-4h4v-2h-4zm0-30v-4h-2v4h-4v2h4v4h2v-4h4v-2h-4zm-30 30v-4h-2v4h-4v2h4v4h2v-4h4v-2h-4zm0-30v-4h-2v4h-4v2h4v4h2v-4h4v-2h-4z" fill="url(#paint91_linear)"/><path fill-rule="evenodd" clip-rule="evenodd" d="M766 224.423v-4h-2v4h-4v2h4v4h2v-4h4v-2h-4zm0-30v-4h-2v4h-4v2h4v4h2v-4h4v-2h-4zm-30 30v-4h-2v4h-4v2h4v4h2v-4h4v-2h-4zm0-30v-4h-2v4h-4v2h4v4h2v-4h4v-2h-4z" fill="url(#paint92_linear)"/><path fill-rule="evenodd" clip-rule="evenodd" d="M826 224.423v-4h-2v4h-4v2h4v4h2v-4h4v-2h-4zm0-30v-4h-2v4h-4v2h4v4h2v-4h4v-2h-4zm-30 30v-4h-2v4h-4v2h4v4h2v-4h4v-2h-4zm0-30v-4h-2v4h-4v2h4v4h2v-4h4v-2h-4z" fill="url(#paint93_linear)"/><path fill-rule="evenodd" clip-rule="evenodd" d="M886 224.423v-4h-2v4h-4v2h4v4h2v-4h4v-2h-4zm0-30v-4h-2v4h-4v2h4v4h2v-4h4v-2h-4zm-30 30v-4h-2v4h-4v2h4v4h2v-4h4v-2h-4zm0-30v-4h-2v4h-4v2h4v4h2v-4h4v-2h-4z" fill="url(#paint94_linear)"/><path fill-rule="evenodd" clip-rule="evenodd" d="M946 224.423v-4h-2v4h-4v2h4v4h2v-4h4v-2h-4zm0-30v-4h-2v4h-4v2h4v4h2v-4h4v-2h-4zm-30 30v-4h-2v4h-4v2h4v4h2v-4h4v-2h-4zm0-30v-4h-2v4h-4v2h4v4h2v-4h4v-2h-4z" fill="url(#paint95_linear)"/><path fill-rule="evenodd" clip-rule="evenodd" d="M1006 224.423v-4h-2v4h-4v2h4v4h2v-4h4v-2h-4zm0-30v-4h-2v4h-4v2h4v4h2v-4h4v-2h-4zm-30 30v-4h-2v4h-4v2h4v4h2v-4h4v-2h-4zm0-30v-4h-2v4h-4v2h4v4h2v-4h4v-2h-4z" fill="url(#paint96_linear)"/><path fill-rule="evenodd" clip-rule="evenodd" d="M1066 224.423v-4h-2v4h-4v2h4v4h2v-4h4v-2h-4zm0-30v-4h-2v4h-4v2h4v4h2v-4h4v-2h-4zm-30 30v-4h-2v4h-4v2h4v4h2v-4h4v-2h-4zm0-30v-4h-2v4h-4v2h4v4h2v-4h4v-2h-4z" fill="url(#paint97_linear)"/><path fill-rule="evenodd" clip-rule="evenodd" d="M1126 224.423v-4h-2v4h-4v2h4v4h2v-4h4v-2h-4zm0-30v-4h-2v4h-4v2h4v4h2v-4h4v-2h-4zm-30 30v-4h-2v4h-4v2h4v4h2v-4h4v-2h-4zm0-30v-4h-2v4h-4v2h4v4h2v-4h4v-2h-4z" fill="url(#paint98_linear)"/><path fill-rule="evenodd" clip-rule="evenodd" d="M1186 224.423v-4h-2v4h-4v2h4v4h2v-4h4v-2h-4zm0-30v-4h-2v4h-4v2h4v4h2v-4h4v-2h-4zm-30 30v-4h-2v4h-4v2h4v4h2v-4h4v-2h-4zm0-30v-4h-2v4h-4v2h4v4h2v-4h4v-2h-4z" fill="url(#paint99_linear)"/><path fill-rule="evenodd" clip-rule="evenodd" d="M646 284.423v-4h-2v4h-4v2h4v4h2v-4h4v-2h-4zm0-30v-4h-2v4h-4v2h4v4h2v-4h4v-2h-4zm-30 30v-4h-2v4h-4v2h4v4h2v-4h4v-2h-4zm0-30v-4h-2v4h-4v2h4v4h2v-4h4v-2h-4z" fill="url(#paint100_linear)"/><path fill-rule="evenodd" clip-rule="evenodd" d="M706 284.423v-4h-2v4h-4v2h4v4h2v-4h4v-2h-4zm0-30v-4h-2v4h-4v2h4v4h2v-4h4v-2h-4zm-30 30v-4h-2v4h-4v2h4v4h2v-4h4v-2h-4zm0-30v-4h-2v4h-4v2h4v4h2v-4h4v-2h-4z" fill="url(#paint101_linear)"/><path fill-rule="evenodd" clip-rule="evenodd" d="M766 284.423v-4h-2v4h-4v2h4v4h2v-4h4v-2h-4zm0-30v-4h-2v4h-4v2h4v4h2v-4h4v-2h-4zm-30 30v-4h-2v4h-4v2h4v4h2v-4h4v-2h-4zm0-30v-4h-2v4h-4v2h4v4h2v-4h4v-2h-4z" fill="url(#paint102_linear)"/><path fill-rule="evenodd" clip-rule="evenodd" d="M826 284.423v-4h-2v4h-4v2h4v4h2v-4h4v-2h-4zm0-30v-4h-2v4h-4v2h4v4h2v-4h4v-2h-4zm-30 30v-4h-2v4h-4v2h4v4h2v-4h4v-2h-4zm0-30v-4h-2v4h-4v2h4v4h2v-4h4v-2h-4z" fill="url(#paint103_linear)"/><path fill-rule="evenodd" clip-rule="evenodd" d="M886 284.423v-4h-2v4h-4v2h4v4h2v-4h4v-2h-4zm0-30v-4h-2v4h-4v2h4v4h2v-4h4v-2h-4zm-30 30v-4h-2v4h-4v2h4v4h2v-4h4v-2h-4zm0-30v-4h-2v4h-4v2h4v4h2v-4h4v-2h-4z" fill="url(#paint104_linear)"/><path fill-rule="evenodd" clip-rule="evenodd" d="M946 284.423v-4h-2v4h-4v2h4v4h2v-4h4v-2h-4zm0-30v-4h-2v4h-4v2h4v4h2v-4h4v-2h-4zm-30 30v-4h-2v4h-4v2h4v4h2v-4h4v-2h-4zm0-30v-4h-2v4h-4v2h4v4h2v-4h4v-2h-4z" fill="url(#paint105_linear)"/><path fill-rule="evenodd" clip-rule="evenodd" d="M1006 284.423v-4h-2v4h-4v2h4v4h2v-4h4v-2h-4zm0-30v-4h-2v4h-4v2h4v4h2v-4h4v-2h-4zm-30 30v-4h-2v4h-4v2h4v4h2v-4h4v-2h-4zm0-30v-4h-2v4h-4v2h4v4h2v-4h4v-2h-4z" fill="url(#paint106_linear)"/><path fill-rule="evenodd" clip-rule="evenodd" d="M1066 284.423v-4h-2v4h-4v2h4v4h2v-4h4v-2h-4zm0-30v-4h-2v4h-4v2h4v4h2v-4h4v-2h-4zm-30 30v-4h-2v4h-4v2h4v4h2v-4h4v-2h-4zm0-30v-4h-2v4h-4v2h4v4h2v-4h4v-2h-4z" fill="url(#paint107_linear)"/><path fill-rule="evenodd" clip-rule="evenodd" d="M1126 284.423v-4h-2v4h-4v2h4v4h2v-4h4v-2h-4zm0-30v-4h-2v4h-4v2h4v4h2v-4h4v-2h-4zm-30 30v-4h-2v4h-4v2h4v4h2v-4h4v-2h-4zm0-30v-4h-2v4h-4v2h4v4h2v-4h4v-2h-4z" fill="url(#paint108_linear)"/><path fill-rule="evenodd" clip-rule="evenodd" d="M1186 284.423v-4h-2v4h-4v2h4v4h2v-4h4v-2h-4zm0-30v-4h-2v4h-4v2h4v4h2v-4h4v-2h-4zm-30 30v-4h-2v4h-4v2h4v4h2v-4h4v-2h-4zm0-30v-4h-2v4h-4v2h4v4h2v-4h4v-2h-4z" fill="url(#paint109_linear)"/><path fill-rule="evenodd" clip-rule="evenodd" d="M646 344.423v-4h-2v4h-4v2h4v4h2v-4h4v-2h-4zm0-30v-4h-2v4h-4v2h4v4h2v-4h4v-2h-4zm-30 30v-4h-2v4h-4v2h4v4h2v-4h4v-2h-4zm0-30v-4h-2v4h-4v2h4v4h2v-4h4v-2h-4z" fill="url(#paint110_linear)"/><path fill-rule="evenodd" clip-rule="evenodd" d="M706 344.423v-4h-2v4h-4v2h4v4h2v-4h4v-2h-4zm0-30v-4h-2v4h-4v2h4v4h2v-4h4v-2h-4zm-30 30v-4h-2v4h-4v2h4v4h2v-4h4v-2h-4zm0-30v-4h-2v4h-4v2h4v4h2v-4h4v-2h-4z" fill="url(#paint111_linear)"/><path fill-rule="evenodd" clip-rule="evenodd" d="M766 344.423v-4h-2v4h-4v2h4v4h2v-4h4v-2h-4zm0-30v-4h-2v4h-4v2h4v4h2v-4h4v-2h-4zm-30 30v-4h-2v4h-4v2h4v4h2v-4h4v-2h-4zm0-30v-4h-2v4h-4v2h4v4h2v-4h4v-2h-4z" fill="url(#paint112_linear)"/><path fill-rule="evenodd" clip-rule="evenodd" d="M826 344.423v-4h-2v4h-4v2h4v4h2v-4h4v-2h-4zm0-30v-4h-2v4h-4v2h4v4h2v-4h4v-2h-4zm-30 30v-4h-2v4h-4v2h4v4h2v-4h4v-2h-4zm0-30v-4h-2v4h-4v2h4v4h2v-4h4v-2h-4z" fill="url(#paint113_linear)"/><path fill-rule="evenodd" clip-rule="evenodd" d="M886 344.423v-4h-2v4h-4v2h4v4h2v-4h4v-2h-4zm0-30v-4h-2v4h-4v2h4v4h2v-4h4v-2h-4zm-30 30v-4h-2v4h-4v2h4v4h2v-4h4v-2h-4zm0-30v-4h-2v4h-4v2h4v4h2v-4h4v-2h-4z" fill="url(#paint114_linear)"/><path fill-rule="evenodd" clip-rule="evenodd" d="M946 344.423v-4h-2v4h-4v2h4v4h2v-4h4v-2h-4zm0-30v-4h-2v4h-4v2h4v4h2v-4h4v-2h-4zm-30 30v-4h-2v4h-4v2h4v4h2v-4h4v-2h-4zm0-30v-4h-2v4h-4v2h4v4h2v-4h4v-2h-4z" fill="url(#paint115_linear)"/><path fill-rule="evenodd" clip-rule="evenodd" d="M1006 344.423v-4h-2v4h-4v2h4v4h2v-4h4v-2h-4zm0-30v-4h-2v4h-4v2h4v4h2v-4h4v-2h-4zm-30 30v-4h-2v4h-4v2h4v4h2v-4h4v-2h-4zm0-30v-4h-2v4h-4v2h4v4h2v-4h4v-2h-4z" fill="url(#paint116_linear)"/><path fill-rule="evenodd" clip-rule="evenodd" d="M1066 344.423v-4h-2v4h-4v2h4v4h2v-4h4v-2h-4zm0-30v-4h-2v4h-4v2h4v4h2v-4h4v-2h-4zm-30 30v-4h-2v4h-4v2h4v4h2v-4h4v-2h-4zm0-30v-4h-2v4h-4v2h4v4h2v-4h4v-2h-4z" fill="url(#paint117_linear)"/><path fill-rule="evenodd" clip-rule="evenodd" d="M1126 344.423v-4h-2v4h-4v2h4v4h2v-4h4v-2h-4zm0-30v-4h-2v4h-4v2h4v4h2v-4h4v-2h-4zm-30 30v-4h-2v4h-4v2h4v4h2v-4h4v-2h-4zm0-30v-4h-2v4h-4v2h4v4h2v-4h4v-2h-4z" fill="url(#paint118_linear)"/><path fill-rule="evenodd" clip-rule="evenodd" d="M1186 344.423v-4h-2v4h-4v2h4v4h2v-4h4v-2h-4zm0-30v-4h-2v4h-4v2h4v4h2v-4h4v-2h-4zm-30 30v-4h-2v4h-4v2h4v4h2v-4h4v-2h-4zm0-30v-4h-2v4h-4v2h4v4h2v-4h4v-2h-4z" fill="url(#paint119_linear)"/></g><defs><linearGradient id="paint0_linear" x1="10.884" y1="22.794" x2="45.358" y2="14.986" gradientUnits="userSpaceOnUse"><stop stop-color="#F47B20"/><stop offset=".998" stop-color="#F15C2C"/></linearGradient><linearGradient id="paint1_linear" x1="70.884" y1="22.794" x2="105.358" y2="14.986" gradientUnits="userSpaceOnUse"><stop stop-color="#F47B20"/><stop offset=".998" stop-color="#F15C2C"/></linearGradient><linearGradient id="paint2_linear" x1="130.884" y1="22.794" x2="165.358" y2="14.986" gradientUnits="userSpaceOnUse"><stop stop-color="#F47B20"/><stop offset=".998" stop-color="#F15C2C"/></linearGradient><linearGradient id="paint3_linear" x1="190.884" y1="22.794" x2="225.358" y2="14.986" gradientUnits="userSpaceOnUse"><stop stop-color="#F47B20"/><stop offset=".998" stop-color="#F15C2C"/></linearGradient><linearGradient id="paint4_linear" x1="250.884" y1="22.794" x2="285.358" y2="14.986" gradientUnits="userSpaceOnUse"><stop stop-color="#F47B20"/><stop offset=".998" stop-color="#F15C2C"/></linearGradient><linearGradient id="paint5_linear" x1="310.884" y1="22.794" x2="345.358" y2="14.986" gradientUnits="userSpaceOnUse"><stop stop-color="#F47B20"/><stop offset=".998" stop-color="#F15C2C"/></linearGradient><linearGradient id="paint6_linear" x1="370.884" y1="22.794" x2="405.358" y2="14.986" gradientUnits="userSpaceOnUse"><stop stop-color="#F47B20"/><stop offset=".998" stop-color="#F15C2C"/></linearGradient><linearGradient id="paint7_linear" x1="430.884" y1="22.794" x2="465.358" y2="14.986" gradientUnits="userSpaceOnUse"><stop stop-color="#F47B20"/><stop offset=".998" stop-color="#F15C2C"/></linearGradient><linearGradient id="paint8_linear" x1="490.884" y1="22.794" x2="525.358" y2="14.986" gradientUnits="userSpaceOnUse"><stop stop-color="#F47B20"/><stop offset=".998" stop-color="#F15C2C"/></linearGradient><linearGradient id="paint9_linear" x1="550.884" y1="22.794" x2="585.358" y2="14.986" gradientUnits="userSpaceOnUse"><stop stop-color="#F47B20"/><stop offset=".998" stop-color="#F15C2C"/></linearGradient><linearGradient id="paint10_linear" x1="10.884" y1="82.794" x2="45.358" y2="74.986" gradientUnits="userSpaceOnUse"><stop stop-color="#F47B20"/><stop offset=".998" stop-color="#F15C2C"/></linearGradient><linearGradient id="paint11_linear" x1="70.884" y1="82.794" x2="105.358" y2="74.986" gradientUnits="userSpaceOnUse"><stop stop-color="#F47B20"/><stop offset=".998" stop-color="#F15C2C"/></linearGradient><linearGradient id="paint12_linear" x1="130.884" y1="82.794" x2="165.358" y2="74.986" gradientUnits="userSpaceOnUse"><stop stop-color="#F47B20"/><stop offset=".998" stop-color="#F15C2C"/></linearGradient><linearGradient id="paint13_linear" x1="190.884" y1="82.794" x2="225.358" y2="74.986" gradientUnits="userSpaceOnUse"><stop stop-color="#F47B20"/><stop offset=".998" stop-color="#F15C2C"/></linearGradient><linearGradient id="paint14_linear" x1="250.884" y1="82.794" x2="285.358" y2="74.986" gradientUnits="userSpaceOnUse"><stop stop-color="#F47B20"/><stop offset=".998" stop-color="#F15C2C"/></linearGradient><linearGradient id="paint15_linear" x1="310.884" y1="82.794" x2="345.358" y2="74.986" gradientUnits="userSpaceOnUse"><stop stop-color="#F47B20"/><stop offset=".998" stop-color="#F15C2C"/></linearGradient><linearGradient id="paint16_linear" x1="370.884" y1="82.794" x2="405.358" y2="74.986" gradientUnits="userSpaceOnUse"><stop stop-color="#F47B20"/><stop offset=".998" stop-color="#F15C2C"/></linearGradient><linearGradient id="paint17_linear" x1="430.884" y1="82.794" x2="465.358" y2="74.986" gradientUnits="userSpaceOnUse"><stop stop-color="#F47B20"/><stop offset=".998" stop-color="#F15C2C"/></linearGradient><linearGradient id="paint18_linear" x1="490.884" y1="82.794" x2="525.358" y2="74.986" gradientUnits="userSpaceOnUse"><stop stop-color="#F47B20"/><stop offset=".998" stop-color="#F15C2C"/></linearGradient><linearGradient id="paint19_linear" x1="550.884" y1="82.794" x2="585.358" y2="74.986" gradientUnits="userSpaceOnUse"><stop stop-color="#F47B20"/><stop offset=".998" stop-color="#F15C2C"/></linearGradient><linearGradient id="paint20_linear" x1="10.884" y1="142.794" x2="45.358" y2="134.986" gradientUnits="userSpaceOnUse"><stop stop-color="#F47B20"/><stop offset=".998" stop-color="#F15C2C"/></linearGradient><linearGradient id="paint21_linear" x1="70.884" y1="142.794" x2="105.358" y2="134.986" gradientUnits="userSpaceOnUse"><stop stop-color="#F47B20"/><stop offset=".998" stop-color="#F15C2C"/></linearGradient><linearGradient id="paint22_linear" x1="130.884" y1="142.794" x2="165.358" y2="134.986" gradientUnits="userSpaceOnUse"><stop stop-color="#F47B20"/><stop offset=".998" stop-color="#F15C2C"/></linearGradient><linearGradient id="paint23_linear" x1="190.884" y1="142.794" x2="225.358" y2="134.986" gradientUnits="userSpaceOnUse"><stop stop-color="#F47B20"/><stop offset=".998" stop-color="#F15C2C"/></linearGradient><linearGradient id="paint24_linear" x1="250.884" y1="142.794" x2="285.358" y2="134.986" gradientUnits="userSpaceOnUse"><stop stop-color="#F47B20"/><stop offset=".998" stop-color="#F15C2C"/></linearGradient><linearGradient id="paint25_linear" x1="310.884" y1="142.794" x2="345.358" y2="134.986" gradientUnits="userSpaceOnUse"><stop stop-color="#F47B20"/><stop offset=".998" stop-color="#F15C2C"/></linearGradient><linearGradient id="paint26_linear" x1="370.884" y1="142.794" x2="405.358" y2="134.986" gradientUnits="userSpaceOnUse"><stop stop-color="#F47B20"/><stop offset=".998" stop-color="#F15C2C"/></linearGradient><linearGradient id="paint27_linear" x1="430.884" y1="142.794" x2="465.358" y2="134.986" gradientUnits="userSpaceOnUse"><stop stop-color="#F47B20"/><stop offset=".998" stop-color="#F15C2C"/></linearGradient><linearGradient id="paint28_linear" x1="490.884" y1="142.794" x2="525.358" y2="134.986" gradientUnits="userSpaceOnUse"><stop stop-color="#F47B20"/><stop offset=".998" stop-color="#F15C2C"/></linearGradient><linearGradient id="paint29_linear" x1="550.884" y1="142.794" x2="585.358" y2="134.986" gradientUnits="userSpaceOnUse"><stop stop-color="#F47B20"/><stop offset=".998" stop-color="#F15C2C"/></linearGradient><linearGradient id="paint30_linear" x1="10.884" y1="202.794" x2="45.358" y2="194.986" gradientUnits="userSpaceOnUse"><stop stop-color="#F47B20"/><stop offset=".998" stop-color="#F15C2C"/></linearGradient><linearGradient id="paint31_linear" x1="70.884" y1="202.794" x2="105.358" y2="194.986" gradientUnits="userSpaceOnUse"><stop stop-color="#F47B20"/><stop offset=".998" stop-color="#F15C2C"/></linearGradient><linearGradient id="paint32_linear" x1="130.884" y1="202.794" x2="165.358" y2="194.986" gradientUnits="userSpaceOnUse"><stop stop-color="#F47B20"/><stop offset=".998" stop-color="#F15C2C"/></linearGradient><linearGradient id="paint33_linear" x1="190.884" y1="202.794" x2="225.358" y2="194.986" gradientUnits="userSpaceOnUse"><stop stop-color="#F47B20"/><stop offset=".998" stop-color="#F15C2C"/></linearGradient><linearGradient id="paint34_linear" x1="250.884" y1="202.794" x2="285.358" y2="194.986" gradientUnits="userSpaceOnUse"><stop stop-color="#F47B20"/><stop offset=".998" stop-color="#F15C2C"/></linearGradient><linearGradient id="paint35_linear" x1="310.884" y1="202.794" x2="345.358" y2="194.986" gradientUnits="userSpaceOnUse"><stop stop-color="#F47B20"/><stop offset=".998" stop-color="#F15C2C"/></linearGradient><linearGradient id="paint36_linear" x1="370.884" y1="202.794" x2="405.358" y2="194.986" gradientUnits="userSpaceOnUse"><stop stop-color="#F47B20"/><stop offset=".998" stop-color="#F15C2C"/></linearGradient><linearGradient id="paint37_linear" x1="430.884" y1="202.794" x2="465.358" y2="194.986" gradientUnits="userSpaceOnUse"><stop stop-color="#F47B20"/><stop offset=".998" stop-color="#F15C2C"/></linearGradient><linearGradient id="paint38_linear" x1="490.884" y1="202.794" x2="525.358" y2="194.986" gradientUnits="userSpaceOnUse"><stop stop-color="#F47B20"/><stop offset=".998" stop-color="#F15C2C"/></linearGradient><linearGradient id="paint39_linear" x1="550.884" y1="202.794" x2="585.358" y2="194.986" gradientUnits="userSpaceOnUse"><stop stop-color="#F47B20"/><stop offset=".998" stop-color="#F15C2C"/></linearGradient><linearGradient id="paint40_linear" x1="10.884" y1="262.794" x2="45.358" y2="254.986" gradientUnits="userSpaceOnUse"><stop stop-color="#F47B20"/><stop offset=".998" stop-color="#F15C2C"/></linearGradient><linearGradient id="paint41_linear" x1="70.884" y1="262.794" x2="105.358" y2="254.986" gradientUnits="userSpaceOnUse"><stop stop-color="#F47B20"/><stop offset=".998" stop-color="#F15C2C"/></linearGradient><linearGradient id="paint42_linear" x1="130.884" y1="262.794" x2="165.358" y2="254.986" gradientUnits="userSpaceOnUse"><stop stop-color="#F47B20"/><stop offset=".998" stop-color="#F15C2C"/></linearGradient><linearGradient id="paint43_linear" x1="190.884" y1="262.794" x2="225.358" y2="254.986" gradientUnits="userSpaceOnUse"><stop stop-color="#F47B20"/><stop offset=".998" stop-color="#F15C2C"/></linearGradient><linearGradient id="paint44_linear" x1="250.884" y1="262.794" x2="285.358" y2="254.986" gradientUnits="userSpaceOnUse"><stop stop-color="#F47B20"/><stop offset=".998" stop-color="#F15C2C"/></linearGradient><linearGradient id="paint45_linear" x1="310.884" y1="262.794" x2="345.358" y2="254.986" gradientUnits="userSpaceOnUse"><stop stop-color="#F47B20"/><stop offset=".998" stop-color="#F15C2C"/></linearGradient><linearGradient id="paint46_linear" x1="370.884" y1="262.794" x2="405.358" y2="254.986" gradientUnits="userSpaceOnUse"><stop stop-color="#F47B20"/><stop offset=".998" stop-color="#F15C2C"/></linearGradient><linearGradient id="paint47_linear" x1="430.884" y1="262.794" x2="465.358" y2="254.986" gradientUnits="userSpaceOnUse"><stop stop-color="#F47B20"/><stop offset=".998" stop-color="#F15C2C"/></linearGradient><linearGradient id="paint48_linear" x1="490.884" y1="262.794" x2="525.358" y2="254.986" gradientUnits="userSpaceOnUse"><stop stop-color="#F47B20"/><stop offset=".998" stop-color="#F15C2C"/></linearGradient><linearGradient id="paint49_linear" x1="550.884" y1="262.794" x2="585.358" y2="254.986" gradientUnits="userSpaceOnUse"><stop stop-color="#F47B20"/><stop offset=".998" stop-color="#F15C2C"/></linearGradient><linearGradient id="paint50_linear" x1="10.884" y1="322.794" x2="45.358" y2="314.986" gradientUnits="userSpaceOnUse"><stop stop-color="#F47B20"/><stop offset=".998" stop-color="#F15C2C"/></linearGradient><linearGradient id="paint51_linear" x1="70.884" y1="322.794" x2="105.358" y2="314.986" gradientUnits="userSpaceOnUse"><stop stop-color="#F47B20"/><stop offset=".998" stop-color="#F15C2C"/></linearGradient><linearGradient id="paint52_linear" x1="130.884" y1="322.794" x2="165.358" y2="314.986" gradientUnits="userSpaceOnUse"><stop stop-color="#F47B20"/><stop offset=".998" stop-color="#F15C2C"/></linearGradient><linearGradient id="paint53_linear" x1="190.884" y1="322.794" x2="225.358" y2="314.986" gradientUnits="userSpaceOnUse"><stop stop-color="#F47B20"/><stop offset=".998" stop-color="#F15C2C"/></linearGradient><linearGradient id="paint54_linear" x1="250.884" y1="322.794" x2="285.358" y2="314.986" gradientUnits="userSpaceOnUse"><stop stop-color="#F47B20"/><stop offset=".998" stop-color="#F15C2C"/></linearGradient><linearGradient id="paint55_linear" x1="310.884" y1="322.794" x2="345.358" y2="314.986" gradientUnits="userSpaceOnUse"><stop stop-color="#F47B20"/><stop offset=".998" stop-color="#F15C2C"/></linearGradient><linearGradient id="paint56_linear" x1="370.884" y1="322.794" x2="405.358" y2="314.986" gradientUnits="userSpaceOnUse"><stop stop-color="#F47B20"/><stop offset=".998" stop-color="#F15C2C"/></linearGradient><linearGradient id="paint57_linear" x1="430.884" y1="322.794" x2="465.358" y2="314.986" gradientUnits="userSpaceOnUse"><stop stop-color="#F47B20"/><stop offset=".998" stop-color="#F15C2C"/></linearGradient><linearGradient id="paint58_linear" x1="490.884" y1="322.794" x2="525.358" y2="314.986" gradientUnits="userSpaceOnUse"><stop stop-color="#F47B20"/><stop offset=".998" stop-color="#F15C2C"/></linearGradient><linearGradient id="paint59_linear" x1="550.884" y1="322.794" x2="585.358" y2="314.986" gradientUnits="userSpaceOnUse"><stop stop-color="#F47B20"/><stop offset=".998" stop-color="#F15C2C"/></linearGradient><linearGradient id="paint60_linear" x1="610.884" y1="22.794" x2="645.358" y2="14.986" gradientUnits="userSpaceOnUse"><stop stop-color="#F47B20"/><stop offset=".998" stop-color="#F15C2C"/></linearGradient><linearGradient id="paint61_linear" x1="670.884" y1="22.794" x2="705.358" y2="14.986" gradientUnits="userSpaceOnUse"><stop stop-color="#F47B20"/><stop offset=".998" stop-color="#F15C2C"/></linearGradient><linearGradient id="paint62_linear" x1="730.884" y1="22.794" x2="765.358" y2="14.986" gradientUnits="userSpaceOnUse"><stop stop-color="#F47B20"/><stop offset=".998" stop-color="#F15C2C"/></linearGradient><linearGradient id="paint63_linear" x1="790.884" y1="22.794" x2="825.358" y2="14.986" gradientUnits="userSpaceOnUse"><stop stop-color="#F47B20"/><stop offset=".998" stop-color="#F15C2C"/></linearGradient><linearGradient id="paint64_linear" x1="850.884" y1="22.794" x2="885.358" y2="14.986" gradientUnits="userSpaceOnUse"><stop stop-color="#F47B20"/><stop offset=".998" stop-color="#F15C2C"/></linearGradient><linearGradient id="paint65_linear" x1="910.884" y1="22.794" x2="945.358" y2="14.986" gradientUnits="userSpaceOnUse"><stop stop-color="#F47B20"/><stop offset=".998" stop-color="#F15C2C"/></linearGradient><linearGradient id="paint66_linear" x1="970.884" y1="22.794" x2="1005.36" y2="14.986" gradientUnits="userSpaceOnUse"><stop stop-color="#F47B20"/><stop offset=".998" stop-color="#F15C2C"/></linearGradient><linearGradient id="paint67_linear" x1="1030.88" y1="22.794" x2="1065.36" y2="14.986" gradientUnits="userSpaceOnUse"><stop stop-color="#F47B20"/><stop offset=".998" stop-color="#F15C2C"/></linearGradient><linearGradient id="paint68_linear" x1="1090.88" y1="22.794" x2="1125.36" y2="14.986" gradientUnits="userSpaceOnUse"><stop stop-color="#F47B20"/><stop offset=".998" stop-color="#F15C2C"/></linearGradient><linearGradient id="paint69_linear" x1="1150.88" y1="22.794" x2="1185.36" y2="14.986" gradientUnits="userSpaceOnUse"><stop stop-color="#F47B20"/><stop offset=".998" stop-color="#F15C2C"/></linearGradient><linearGradient id="paint70_linear" x1="610.884" y1="82.794" x2="645.358" y2="74.986" gradientUnits="userSpaceOnUse"><stop stop-color="#F47B20"/><stop offset=".998" stop-color="#F15C2C"/></linearGradient><linearGradient id="paint71_linear" x1="670.884" y1="82.794" x2="705.358" y2="74.986" gradientUnits="userSpaceOnUse"><stop stop-color="#F47B20"/><stop offset=".998" stop-color="#F15C2C"/></linearGradient><linearGradient id="paint72_linear" x1="730.884" y1="82.794" x2="765.358" y2="74.986" gradientUnits="userSpaceOnUse"><stop stop-color="#F47B20"/><stop offset=".998" stop-color="#F15C2C"/></linearGradient><linearGradient id="paint73_linear" x1="790.884" y1="82.794" x2="825.358" y2="74.986" gradientUnits="userSpaceOnUse"><stop stop-color="#F47B20"/><stop offset=".998" stop-color="#F15C2C"/></linearGradient><linearGradient id="paint74_linear" x1="850.884" y1="82.794" x2="885.358" y2="74.986" gradientUnits="userSpaceOnUse"><stop stop-color="#F47B20"/><stop offset=".998" stop-color="#F15C2C"/></linearGradient><linearGradient id="paint75_linear" x1="910.884" y1="82.794" x2="945.358" y2="74.986" gradientUnits="userSpaceOnUse"><stop stop-color="#F47B20"/><stop offset=".998" stop-color="#F15C2C"/></linearGradient><linearGradient id="paint76_linear" x1="970.884" y1="82.794" x2="1005.36" y2="74.986" gradientUnits="userSpaceOnUse"><stop stop-color="#F47B20"/><stop offset=".998" stop-color="#F15C2C"/></linearGradient><linearGradient id="paint77_linear" x1="1030.88" y1="82.794" x2="1065.36" y2="74.986" gradientUnits="userSpaceOnUse"><stop stop-color="#F47B20"/><stop offset=".998" stop-color="#F15C2C"/></linearGradient><linearGradient id="paint78_linear" x1="1090.88" y1="82.794" x2="1125.36" y2="74.986" gradientUnits="userSpaceOnUse"><stop stop-color="#F47B20"/><stop offset=".998" stop-color="#F15C2C"/></linearGradient><linearGradient id="paint79_linear" x1="1150.88" y1="82.794" x2="1185.36" y2="74.986" gradientUnits="userSpaceOnUse"><stop stop-color="#F47B20"/><stop offset=".998" stop-color="#F15C2C"/></linearGradient><linearGradient id="paint80_linear" x1="610.884" y1="142.794" x2="645.358" y2="134.986" gradientUnits="userSpaceOnUse"><stop stop-color="#F47B20"/><stop offset=".998" stop-color="#F15C2C"/></linearGradient><linearGradient id="paint81_linear" x1="670.884" y1="142.794" x2="705.358" y2="134.986" gradientUnits="userSpaceOnUse"><stop stop-color="#F47B20"/><stop offset=".998" stop-color="#F15C2C"/></linearGradient><linearGradient id="paint82_linear" x1="730.884" y1="142.794" x2="765.358" y2="134.986" gradientUnits="userSpaceOnUse"><stop stop-color="#F47B20"/><stop offset=".998" stop-color="#F15C2C"/></linearGradient><linearGradient id="paint83_linear" x1="790.884" y1="142.794" x2="825.358" y2="134.986" gradientUnits="userSpaceOnUse"><stop stop-color="#F47B20"/><stop offset=".998" stop-color="#F15C2C"/></linearGradient><linearGradient id="paint84_linear" x1="850.884" y1="142.794" x2="885.358" y2="134.986" gradientUnits="userSpaceOnUse"><stop stop-color="#F47B20"/><stop offset=".998" stop-color="#F15C2C"/></linearGradient><linearGradient id="paint85_linear" x1="910.884" y1="142.794" x2="945.358" y2="134.986" gradientUnits="userSpaceOnUse"><stop stop-color="#F47B20"/><stop offset=".998" stop-color="#F15C2C"/></linearGradient><linearGradient id="paint86_linear" x1="970.884" y1="142.794" x2="1005.36" y2="134.986" gradientUnits="userSpaceOnUse"><stop stop-color="#F47B20"/><stop offset=".998" stop-color="#F15C2C"/></linearGradient><linearGradient id="paint87_linear" x1="1030.88" y1="142.794" x2="1065.36" y2="134.986" gradientUnits="userSpaceOnUse"><stop stop-color="#F47B20"/><stop offset=".998" stop-color="#F15C2C"/></linearGradient><linearGradient id="paint88_linear" x1="1090.88" y1="142.794" x2="1125.36" y2="134.986" gradientUnits="userSpaceOnUse"><stop stop-color="#F47B20"/><stop offset=".998" stop-color="#F15C2C"/></linearGradient><linearGradient id="paint89_linear" x1="1150.88" y1="142.794" x2="1185.36" y2="134.986" gradientUnits="userSpaceOnUse"><stop stop-color="#F47B20"/><stop offset=".998" stop-color="#F15C2C"/></linearGradient><linearGradient id="paint90_linear" x1="610.884" y1="202.794" x2="645.358" y2="194.986" gradientUnits="userSpaceOnUse"><stop stop-color="#F47B20"/><stop offset=".998" stop-color="#F15C2C"/></linearGradient><linearGradient id="paint91_linear" x1="670.884" y1="202.794" x2="705.358" y2="194.986" gradientUnits="userSpaceOnUse"><stop stop-color="#F47B20"/><stop offset=".998" stop-color="#F15C2C"/></linearGradient><linearGradient id="paint92_linear" x1="730.884" y1="202.794" x2="765.358" y2="194.986" gradientUnits="userSpaceOnUse"><stop stop-color="#F47B20"/><stop offset=".998" stop-color="#F15C2C"/></linearGradient><linearGradient id="paint93_linear" x1="790.884" y1="202.794" x2="825.358" y2="194.986" gradientUnits="userSpaceOnUse"><stop stop-color="#F47B20"/><stop offset=".998" stop-color="#F15C2C"/></linearGradient><linearGradient id="paint94_linear" x1="850.884" y1="202.794" x2="885.358" y2="194.986" gradientUnits="userSpaceOnUse"><stop stop-color="#F47B20"/><stop offset=".998" stop-color="#F15C2C"/></linearGradient><linearGradient id="paint95_linear" x1="910.884" y1="202.794" x2="945.358" y2="194.986" gradientUnits="userSpaceOnUse"><stop stop-color="#F47B20"/><stop offset=".998" stop-color="#F15C2C"/></linearGradient><linearGradient id="paint96_linear" x1="970.884" y1="202.794" x2="1005.36" y2="194.986" gradientUnits="userSpaceOnUse"><stop stop-color="#F47B20"/><stop offset=".998" stop-color="#F15C2C"/></linearGradient><linearGradient id="paint97_linear" x1="1030.88" y1="202.794" x2="1065.36" y2="194.986" gradientUnits="userSpaceOnUse"><stop stop-color="#F47B20"/><stop offset=".998" stop-color="#F15C2C"/></linearGradient><linearGradient id="paint98_linear" x1="1090.88" y1="202.794" x2="1125.36" y2="194.986" gradientUnits="userSpaceOnUse"><stop stop-color="#F47B20"/><stop offset=".998" stop-color="#F15C2C"/></linearGradient><linearGradient id="paint99_linear" x1="1150.88" y1="202.794" x2="1185.36" y2="194.986" gradientUnits="userSpaceOnUse"><stop stop-color="#F47B20"/><stop offset=".998" stop-color="#F15C2C"/></linearGradient><linearGradient id="paint100_linear" x1="610.884" y1="262.794" x2="645.358" y2="254.986" gradientUnits="userSpaceOnUse"><stop stop-color="#F47B20"/><stop offset=".998" stop-color="#F15C2C"/></linearGradient><linearGradient id="paint101_linear" x1="670.884" y1="262.794" x2="705.358" y2="254.986" gradientUnits="userSpaceOnUse"><stop stop-color="#F47B20"/><stop offset=".998" stop-color="#F15C2C"/></linearGradient><linearGradient id="paint102_linear" x1="730.884" y1="262.794" x2="765.358" y2="254.986" gradientUnits="userSpaceOnUse"><stop stop-color="#F47B20"/><stop offset=".998" stop-color="#F15C2C"/></linearGradient><linearGradient id="paint103_linear" x1="790.884" y1="262.794" x2="825.358" y2="254.986" gradientUnits="userSpaceOnUse"><stop stop-color="#F47B20"/><stop offset=".998" stop-color="#F15C2C"/></linearGradient><linearGradient id="paint104_linear" x1="850.884" y1="262.794" x2="885.358" y2="254.986" gradientUnits="userSpaceOnUse"><stop stop-color="#F47B20"/><stop offset=".998" stop-color="#F15C2C"/></linearGradient><linearGradient id="paint105_linear" x1="910.884" y1="262.794" x2="945.358" y2="254.986" gradientUnits="userSpaceOnUse"><stop stop-color="#F47B20"/><stop offset=".998" stop-color="#F15C2C"/></linearGradient><linearGradient id="paint106_linear" x1="970.884" y1="262.794" x2="1005.36" y2="254.986" gradientUnits="userSpaceOnUse"><stop stop-color="#F47B20"/><stop offset=".998" stop-color="#F15C2C"/></linearGradient><linearGradient id="paint107_linear" x1="1030.88" y1="262.794" x2="1065.36" y2="254.986" gradientUnits="userSpaceOnUse"><stop stop-color="#F47B20"/><stop offset=".998" stop-color="#F15C2C"/></linearGradient><linearGradient id="paint108_linear" x1="1090.88" y1="262.794" x2="1125.36" y2="254.986" gradientUnits="userSpaceOnUse"><stop stop-color="#F47B20"/><stop offset=".998" stop-color="#F15C2C"/></linearGradient><linearGradient id="paint109_linear" x1="1150.88" y1="262.794" x2="1185.36" y2="254.986" gradientUnits="userSpaceOnUse"><stop stop-color="#F47B20"/><stop offset=".998" stop-color="#F15C2C"/></linearGradient><linearGradient id="paint110_linear" x1="610.884" y1="322.794" x2="645.358" y2="314.986" gradientUnits="userSpaceOnUse"><stop stop-color="#F47B20"/><stop offset=".998" stop-color="#F15C2C"/></linearGradient><linearGradient id="paint111_linear" x1="670.884" y1="322.794" x2="705.358" y2="314.986" gradientUnits="userSpaceOnUse"><stop stop-color="#F47B20"/><stop offset=".998" stop-color="#F15C2C"/></linearGradient><linearGradient id="paint112_linear" x1="730.884" y1="322.794" x2="765.358" y2="314.986" gradientUnits="userSpaceOnUse"><stop stop-color="#F47B20"/><stop offset=".998" stop-color="#F15C2C"/></linearGradient><linearGradient id="paint113_linear" x1="790.884" y1="322.794" x2="825.358" y2="314.986" gradientUnits="userSpaceOnUse"><stop stop-color="#F47B20"/><stop offset=".998" stop-color="#F15C2C"/></linearGradient><linearGradient id="paint114_linear" x1="850.884" y1="322.794" x2="885.358" y2="314.986" gradientUnits="userSpaceOnUse"><stop stop-color="#F47B20"/><stop offset=".998" stop-color="#F15C2C"/></linearGradient><linearGradient id="paint115_linear" x1="910.884" y1="322.794" x2="945.358" y2="314.986" gradientUnits="userSpaceOnUse"><stop stop-color="#F47B20"/><stop offset=".998" stop-color="#F15C2C"/></linearGradient><linearGradient id="paint116_linear" x1="970.884" y1="322.794" x2="1005.36" y2="314.986" gradientUnits="userSpaceOnUse"><stop stop-color="#F47B20"/><stop offset=".998" stop-color="#F15C2C"/></linearGradient><linearGradient id="paint117_linear" x1="1030.88" y1="322.794" x2="1065.36" y2="314.986" gradientUnits="userSpaceOnUse"><stop stop-color="#F47B20"/><stop offset=".998" stop-color="#F15C2C"/></linearGradient><linearGradient id="paint118_linear" x1="1090.88" y1="322.794" x2="1125.36" y2="314.986" gradientUnits="userSpaceOnUse"><stop stop-color="#F47B20"/><stop offset=".998" stop-color="#F15C2C"/></linearGradient><linearGradient id="paint119_linear" x1="1150.88" y1="322.794" x2="1185.36" y2="314.986" gradientUnits="userSpaceOnUse"><stop stop-color="#F47B20"/><stop offset=".998" stop-color="#F15C2C"/></linearGradient><clipPath id="clip0"><path fill="#fff" transform="translate(0 .423)" d="M0 0h1200v370H0z"/></clipPath></defs></svg>