<svg width="1200" height="371" fill="none" xmlns="http://www.w3.org/2000/svg"><g clip-path="url(#clip0)" fill-rule="evenodd" clip-rule="evenodd" fill="#fff"><path d="M46 44.423v-4h-2v4h-4v2h4v4h2v-4h4v-2h-4zm0-30v-4h-2v4h-4v2h4v4h2v-4h4v-2h-4zm-30 30v-4h-2v4h-4v2h4v4h2v-4h4v-2h-4zm0-30v-4h-2v4h-4v2h4v4h2v-4h4v-2h-4zm90 30v-4h-2v4h-4v2h4v4h2v-4h4v-2h-4zm0-30v-4h-2v4h-4v2h4v4h2v-4h4v-2h-4zm-30 30v-4h-2v4h-4v2h4v4h2v-4h4v-2h-4zm0-30v-4h-2v4h-4v2h4v4h2v-4h4v-2h-4zm90 30v-4h-2v4h-4v2h4v4h2v-4h4v-2h-4zm0-30v-4h-2v4h-4v2h4v4h2v-4h4v-2h-4zm-30 30v-4h-2v4h-4v2h4v4h2v-4h4v-2h-4zm0-30v-4h-2v4h-4v2h4v4h2v-4h4v-2h-4zm90 30v-4h-2v4h-4v2h4v4h2v-4h4v-2h-4zm0-30v-4h-2v4h-4v2h4v4h2v-4h4v-2h-4zm-30 30v-4h-2v4h-4v2h4v4h2v-4h4v-2h-4zm0-30v-4h-2v4h-4v2h4v4h2v-4h4v-2h-4zm90 30v-4h-2v4h-4v2h4v4h2v-4h4v-2h-4zm0-30v-4h-2v4h-4v2h4v4h2v-4h4v-2h-4zm-30 30v-4h-2v4h-4v2h4v4h2v-4h4v-2h-4zm0-30v-4h-2v4h-4v2h4v4h2v-4h4v-2h-4zm90 30v-4h-2v4h-4v2h4v4h2v-4h4v-2h-4zm0-30v-4h-2v4h-4v2h4v4h2v-4h4v-2h-4zm-30 30v-4h-2v4h-4v2h4v4h2v-4h4v-2h-4zm0-30v-4h-2v4h-4v2h4v4h2v-4h4v-2h-4zm90 30v-4h-2v4h-4v2h4v4h2v-4h4v-2h-4zm0-30v-4h-2v4h-4v2h4v4h2v-4h4v-2h-4zm-30 30v-4h-2v4h-4v2h4v4h2v-4h4v-2h-4zm0-30v-4h-2v4h-4v2h4v4h2v-4h4v-2h-4zm90 30v-4h-2v4h-4v2h4v4h2v-4h4v-2h-4zm0-30v-4h-2v4h-4v2h4v4h2v-4h4v-2h-4zm-30 30v-4h-2v4h-4v2h4v4h2v-4h4v-2h-4zm0-30v-4h-2v4h-4v2h4v4h2v-4h4v-2h-4zm90 30v-4h-2v4h-4v2h4v4h2v-4h4v-2h-4zm0-30v-4h-2v4h-4v2h4v4h2v-4h4v-2h-4zm-30 30v-4h-2v4h-4v2h4v4h2v-4h4v-2h-4zm0-30v-4h-2v4h-4v2h4v4h2v-4h4v-2h-4zm90 30v-4h-2v4h-4v2h4v4h2v-4h4v-2h-4zm0-30v-4h-2v4h-4v2h4v4h2v-4h4v-2h-4zm-30 30v-4h-2v4h-4v2h4v4h2v-4h4v-2h-4zm0-30v-4h-2v4h-4v2h4v4h2v-4h4v-2h-4zm-510 90v-4h-2v4h-4v2h4v4h2v-4h4v-2h-4zm0-30v-4h-2v4h-4v2h4v4h2v-4h4v-2h-4zm-30 30v-4h-2v4h-4v2h4v4h2v-4h4v-2h-4zm0-30v-4h-2v4h-4v2h4v4h2v-4h4v-2h-4zm90 30v-4h-2v4h-4v2h4v4h2v-4h4v-2h-4zm0-30v-4h-2v4h-4v2h4v4h2v-4h4v-2h-4zm-30 30v-4h-2v4h-4v2h4v4h2v-4h4v-2h-4zm0-30v-4h-2v4h-4v2h4v4h2v-4h4v-2h-4zm90 30v-4h-2v4h-4v2h4v4h2v-4h4v-2h-4zm0-30v-4h-2v4h-4v2h4v4h2v-4h4v-2h-4zm-30 30v-4h-2v4h-4v2h4v4h2v-4h4v-2h-4zm0-30v-4h-2v4h-4v2h4v4h2v-4h4v-2h-4zm90 30v-4h-2v4h-4v2h4v4h2v-4h4v-2h-4zm0-30v-4h-2v4h-4v2h4v4h2v-4h4v-2h-4zm-30 30v-4h-2v4h-4v2h4v4h2v-4h4v-2h-4zm0-30v-4h-2v4h-4v2h4v4h2v-4h4v-2h-4zm90 30v-4h-2v4h-4v2h4v4h2v-4h4v-2h-4zm0-30v-4h-2v4h-4v2h4v4h2v-4h4v-2h-4zm-30 30v-4h-2v4h-4v2h4v4h2v-4h4v-2h-4zm0-30v-4h-2v4h-4v2h4v4h2v-4h4v-2h-4zm90 30v-4h-2v4h-4v2h4v4h2v-4h4v-2h-4zm0-30v-4h-2v4h-4v2h4v4h2v-4h4v-2h-4zm-30 30v-4h-2v4h-4v2h4v4h2v-4h4v-2h-4zm0-30v-4h-2v4h-4v2h4v4h2v-4h4v-2h-4zm90 30v-4h-2v4h-4v2h4v4h2v-4h4v-2h-4zm0-30v-4h-2v4h-4v2h4v4h2v-4h4v-2h-4zm-30 30v-4h-2v4h-4v2h4v4h2v-4h4v-2h-4zm0-30v-4h-2v4h-4v2h4v4h2v-4h4v-2h-4zm90 30v-4h-2v4h-4v2h4v4h2v-4h4v-2h-4zm0-30v-4h-2v4h-4v2h4v4h2v-4h4v-2h-4zm-30 30v-4h-2v4h-4v2h4v4h2v-4h4v-2h-4zm0-30v-4h-2v4h-4v2h4v4h2v-4h4v-2h-4zm90 30v-4h-2v4h-4v2h4v4h2v-4h4v-2h-4zm0-30v-4h-2v4h-4v2h4v4h2v-4h4v-2h-4zm-30 30v-4h-2v4h-4v2h4v4h2v-4h4v-2h-4zm0-30v-4h-2v4h-4v2h4v4h2v-4h4v-2h-4zm90 30v-4h-2v4h-4v2h4v4h2v-4h4v-2h-4zm0-30v-4h-2v4h-4v2h4v4h2v-4h4v-2h-4zm-30 30v-4h-2v4h-4v2h4v4h2v-4h4v-2h-4zm0-30v-4h-2v4h-4v2h4v4h2v-4h4v-2h-4zm-510 90v-4h-2v4h-4v2h4v4h2v-4h4v-2h-4zm0-30v-4h-2v4h-4v2h4v4h2v-4h4v-2h-4zm-30 30v-4h-2v4h-4v2h4v4h2v-4h4v-2h-4zm0-30v-4h-2v4h-4v2h4v4h2v-4h4v-2h-4zm90 30v-4h-2v4h-4v2h4v4h2v-4h4v-2h-4zm0-30v-4h-2v4h-4v2h4v4h2v-4h4v-2h-4zm-30 30v-4h-2v4h-4v2h4v4h2v-4h4v-2h-4zm0-30v-4h-2v4h-4v2h4v4h2v-4h4v-2h-4zm90 30v-4h-2v4h-4v2h4v4h2v-4h4v-2h-4zm0-30v-4h-2v4h-4v2h4v4h2v-4h4v-2h-4zm-30 30v-4h-2v4h-4v2h4v4h2v-4h4v-2h-4zm0-30v-4h-2v4h-4v2h4v4h2v-4h4v-2h-4zm90 30v-4h-2v4h-4v2h4v4h2v-4h4v-2h-4zm0-30v-4h-2v4h-4v2h4v4h2v-4h4v-2h-4zm-30 30v-4h-2v4h-4v2h4v4h2v-4h4v-2h-4zm0-30v-4h-2v4h-4v2h4v4h2v-4h4v-2h-4zm90 30v-4h-2v4h-4v2h4v4h2v-4h4v-2h-4zm0-30v-4h-2v4h-4v2h4v4h2v-4h4v-2h-4zm-30 30v-4h-2v4h-4v2h4v4h2v-4h4v-2h-4zm0-30v-4h-2v4h-4v2h4v4h2v-4h4v-2h-4zm90 30v-4h-2v4h-4v2h4v4h2v-4h4v-2h-4zm0-30v-4h-2v4h-4v2h4v4h2v-4h4v-2h-4zm-30 30v-4h-2v4h-4v2h4v4h2v-4h4v-2h-4zm0-30v-4h-2v4h-4v2h4v4h2v-4h4v-2h-4zm90 30v-4h-2v4h-4v2h4v4h2v-4h4v-2h-4zm0-30v-4h-2v4h-4v2h4v4h2v-4h4v-2h-4zm-30 30v-4h-2v4h-4v2h4v4h2v-4h4v-2h-4zm0-30v-4h-2v4h-4v2h4v4h2v-4h4v-2h-4zm90 30v-4h-2v4h-4v2h4v4h2v-4h4v-2h-4zm0-30v-4h-2v4h-4v2h4v4h2v-4h4v-2h-4zm-30 30v-4h-2v4h-4v2h4v4h2v-4h4v-2h-4zm0-30v-4h-2v4h-4v2h4v4h2v-4h4v-2h-4zm90 30v-4h-2v4h-4v2h4v4h2v-4h4v-2h-4zm0-30v-4h-2v4h-4v2h4v4h2v-4h4v-2h-4zm-30 30v-4h-2v4h-4v2h4v4h2v-4h4v-2h-4zm0-30v-4h-2v4h-4v2h4v4h2v-4h4v-2h-4zm90 30v-4h-2v4h-4v2h4v4h2v-4h4v-2h-4zm0-30v-4h-2v4h-4v2h4v4h2v-4h4v-2h-4zm-30 30v-4h-2v4h-4v2h4v4h2v-4h4v-2h-4zm0-30v-4h-2v4h-4v2h4v4h2v-4h4v-2h-4zm-510 90v-4h-2v4h-4v2h4v4h2v-4h4v-2h-4zm0-30v-4h-2v4h-4v2h4v4h2v-4h4v-2h-4zm-30 30v-4h-2v4h-4v2h4v4h2v-4h4v-2h-4zm0-30v-4h-2v4h-4v2h4v4h2v-4h4v-2h-4zm90 30v-4h-2v4h-4v2h4v4h2v-4h4v-2h-4zm0-30v-4h-2v4h-4v2h4v4h2v-4h4v-2h-4zm-30 30v-4h-2v4h-4v2h4v4h2v-4h4v-2h-4zm0-30v-4h-2v4h-4v2h4v4h2v-4h4v-2h-4zm90 30v-4h-2v4h-4v2h4v4h2v-4h4v-2h-4zm0-30v-4h-2v4h-4v2h4v4h2v-4h4v-2h-4zm-30 30v-4h-2v4h-4v2h4v4h2v-4h4v-2h-4zm0-30v-4h-2v4h-4v2h4v4h2v-4h4v-2h-4zm90 30v-4h-2v4h-4v2h4v4h2v-4h4v-2h-4zm0-30v-4h-2v4h-4v2h4v4h2v-4h4v-2h-4zm-30 30v-4h-2v4h-4v2h4v4h2v-4h4v-2h-4zm0-30v-4h-2v4h-4v2h4v4h2v-4h4v-2h-4zm90 30v-4h-2v4h-4v2h4v4h2v-4h4v-2h-4zm0-30v-4h-2v4h-4v2h4v4h2v-4h4v-2h-4zm-30 30v-4h-2v4h-4v2h4v4h2v-4h4v-2h-4zm0-30v-4h-2v4h-4v2h4v4h2v-4h4v-2h-4zm90 30v-4h-2v4h-4v2h4v4h2v-4h4v-2h-4zm0-30v-4h-2v4h-4v2h4v4h2v-4h4v-2h-4zm-30 30v-4h-2v4h-4v2h4v4h2v-4h4v-2h-4zm0-30v-4h-2v4h-4v2h4v4h2v-4h4v-2h-4zm90 30v-4h-2v4h-4v2h4v4h2v-4h4v-2h-4zm0-30v-4h-2v4h-4v2h4v4h2v-4h4v-2h-4zm-30 30v-4h-2v4h-4v2h4v4h2v-4h4v-2h-4zm0-30v-4h-2v4h-4v2h4v4h2v-4h4v-2h-4zm90 30v-4h-2v4h-4v2h4v4h2v-4h4v-2h-4zm0-30v-4h-2v4h-4v2h4v4h2v-4h4v-2h-4zm-30 30v-4h-2v4h-4v2h4v4h2v-4h4v-2h-4zm0-30v-4h-2v4h-4v2h4v4h2v-4h4v-2h-4zm90 30v-4h-2v4h-4v2h4v4h2v-4h4v-2h-4zm0-30v-4h-2v4h-4v2h4v4h2v-4h4v-2h-4zm-30 30v-4h-2v4h-4v2h4v4h2v-4h4v-2h-4zm0-30v-4h-2v4h-4v2h4v4h2v-4h4v-2h-4zm90 30v-4h-2v4h-4v2h4v4h2v-4h4v-2h-4zm0-30v-4h-2v4h-4v2h4v4h2v-4h4v-2h-4zm-30 30v-4h-2v4h-4v2h4v4h2v-4h4v-2h-4zm0-30v-4h-2v4h-4v2h4v4h2v-4h4v-2h-4zm-510 90v-4h-2v4h-4v2h4v4h2v-4h4v-2h-4zm0-30v-4h-2v4h-4v2h4v4h2v-4h4v-2h-4zm-30 30v-4h-2v4h-4v2h4v4h2v-4h4v-2h-4zm0-30v-4h-2v4h-4v2h4v4h2v-4h4v-2h-4zm90 30v-4h-2v4h-4v2h4v4h2v-4h4v-2h-4zm0-30v-4h-2v4h-4v2h4v4h2v-4h4v-2h-4zm-30 30v-4h-2v4h-4v2h4v4h2v-4h4v-2h-4zm0-30v-4h-2v4h-4v2h4v4h2v-4h4v-2h-4zm90 30v-4h-2v4h-4v2h4v4h2v-4h4v-2h-4zm0-30v-4h-2v4h-4v2h4v4h2v-4h4v-2h-4zm-30 30v-4h-2v4h-4v2h4v4h2v-4h4v-2h-4zm0-30v-4h-2v4h-4v2h4v4h2v-4h4v-2h-4zm90 30v-4h-2v4h-4v2h4v4h2v-4h4v-2h-4zm0-30v-4h-2v4h-4v2h4v4h2v-4h4v-2h-4zm-30 30v-4h-2v4h-4v2h4v4h2v-4h4v-2h-4zm0-30v-4h-2v4h-4v2h4v4h2v-4h4v-2h-4zm90 30v-4h-2v4h-4v2h4v4h2v-4h4v-2h-4zm0-30v-4h-2v4h-4v2h4v4h2v-4h4v-2h-4zm-30 30v-4h-2v4h-4v2h4v4h2v-4h4v-2h-4zm0-30v-4h-2v4h-4v2h4v4h2v-4h4v-2h-4zm90 30v-4h-2v4h-4v2h4v4h2v-4h4v-2h-4zm0-30v-4h-2v4h-4v2h4v4h2v-4h4v-2h-4zm-30 30v-4h-2v4h-4v2h4v4h2v-4h4v-2h-4zm0-30v-4h-2v4h-4v2h4v4h2v-4h4v-2h-4zm90 30v-4h-2v4h-4v2h4v4h2v-4h4v-2h-4zm0-30v-4h-2v4h-4v2h4v4h2v-4h4v-2h-4zm-30 30v-4h-2v4h-4v2h4v4h2v-4h4v-2h-4zm0-30v-4h-2v4h-4v2h4v4h2v-4h4v-2h-4zm90 30v-4h-2v4h-4v2h4v4h2v-4h4v-2h-4zm0-30v-4h-2v4h-4v2h4v4h2v-4h4v-2h-4zm-30 30v-4h-2v4h-4v2h4v4h2v-4h4v-2h-4zm0-30v-4h-2v4h-4v2h4v4h2v-4h4v-2h-4zm90 30v-4h-2v4h-4v2h4v4h2v-4h4v-2h-4zm0-30v-4h-2v4h-4v2h4v4h2v-4h4v-2h-4zm-30 30v-4h-2v4h-4v2h4v4h2v-4h4v-2h-4zm0-30v-4h-2v4h-4v2h4v4h2v-4h4v-2h-4zm90 30v-4h-2v4h-4v2h4v4h2v-4h4v-2h-4zm0-30v-4h-2v4h-4v2h4v4h2v-4h4v-2h-4zm-30 30v-4h-2v4h-4v2h4v4h2v-4h4v-2h-4zm0-30v-4h-2v4h-4v2h4v4h2v-4h4v-2h-4zm-510 90v-4h-2v4h-4v2h4v4h2v-4h4v-2h-4zm0-30v-4h-2v4h-4v2h4v4h2v-4h4v-2h-4zm-30 30v-4h-2v4h-4v2h4v4h2v-4h4v-2h-4zm0-30v-4h-2v4h-4v2h4v4h2v-4h4v-2h-4zm90 30v-4h-2v4h-4v2h4v4h2v-4h4v-2h-4zm0-30v-4h-2v4h-4v2h4v4h2v-4h4v-2h-4zm-30 30v-4h-2v4h-4v2h4v4h2v-4h4v-2h-4zm0-30v-4h-2v4h-4v2h4v4h2v-4h4v-2h-4zm90 30v-4h-2v4h-4v2h4v4h2v-4h4v-2h-4zm0-30v-4h-2v4h-4v2h4v4h2v-4h4v-2h-4zm-30 30v-4h-2v4h-4v2h4v4h2v-4h4v-2h-4zm0-30v-4h-2v4h-4v2h4v4h2v-4h4v-2h-4zm90 30v-4h-2v4h-4v2h4v4h2v-4h4v-2h-4zm0-30v-4h-2v4h-4v2h4v4h2v-4h4v-2h-4zm-30 30v-4h-2v4h-4v2h4v4h2v-4h4v-2h-4zm0-30v-4h-2v4h-4v2h4v4h2v-4h4v-2h-4zm90 30v-4h-2v4h-4v2h4v4h2v-4h4v-2h-4zm0-30v-4h-2v4h-4v2h4v4h2v-4h4v-2h-4zm-30 30v-4h-2v4h-4v2h4v4h2v-4h4v-2h-4zm0-30v-4h-2v4h-4v2h4v4h2v-4h4v-2h-4zm90 30v-4h-2v4h-4v2h4v4h2v-4h4v-2h-4zm0-30v-4h-2v4h-4v2h4v4h2v-4h4v-2h-4zm-30 30v-4h-2v4h-4v2h4v4h2v-4h4v-2h-4zm0-30v-4h-2v4h-4v2h4v4h2v-4h4v-2h-4zm90 30v-4h-2v4h-4v2h4v4h2v-4h4v-2h-4zm0-30v-4h-2v4h-4v2h4v4h2v-4h4v-2h-4zm-30 30v-4h-2v4h-4v2h4v4h2v-4h4v-2h-4zm0-30v-4h-2v4h-4v2h4v4h2v-4h4v-2h-4zm90 30v-4h-2v4h-4v2h4v4h2v-4h4v-2h-4zm0-30v-4h-2v4h-4v2h4v4h2v-4h4v-2h-4zm-30 30v-4h-2v4h-4v2h4v4h2v-4h4v-2h-4zm0-30v-4h-2v4h-4v2h4v4h2v-4h4v-2h-4zm90 30v-4h-2v4h-4v2h4v4h2v-4h4v-2h-4zm0-30v-4h-2v4h-4v2h4v4h2v-4h4v-2h-4zm-30 30v-4h-2v4h-4v2h4v4h2v-4h4v-2h-4zm0-30v-4h-2v4h-4v2h4v4h2v-4h4v-2h-4zm90 30v-4h-2v4h-4v2h4v4h2v-4h4v-2h-4zm0-30v-4h-2v4h-4v2h4v4h2v-4h4v-2h-4zm-30 30v-4h-2v4h-4v2h4v4h2v-4h4v-2h-4zm0-30v-4h-2v4h-4v2h4v4h2v-4h4v-2h-4zm90-270v-4h-2v4h-4v2h4v4h2v-4h4v-2h-4zm0-30v-4h-2v4h-4v2h4v4h2v-4h4v-2h-4zm-30 30v-4h-2v4h-4v2h4v4h2v-4h4v-2h-4zm0-30v-4h-2v4h-4v2h4v4h2v-4h4v-2h-4zm90 30v-4h-2v4h-4v2h4v4h2v-4h4v-2h-4zm0-30v-4h-2v4h-4v2h4v4h2v-4h4v-2h-4zm-30 30v-4h-2v4h-4v2h4v4h2v-4h4v-2h-4zm0-30v-4h-2v4h-4v2h4v4h2v-4h4v-2h-4zm90 30v-4h-2v4h-4v2h4v4h2v-4h4v-2h-4zm0-30v-4h-2v4h-4v2h4v4h2v-4h4v-2h-4zm-30 30v-4h-2v4h-4v2h4v4h2v-4h4v-2h-4zm0-30v-4h-2v4h-4v2h4v4h2v-4h4v-2h-4zm90 30v-4h-2v4h-4v2h4v4h2v-4h4v-2h-4zm0-30v-4h-2v4h-4v2h4v4h2v-4h4v-2h-4zm-30 30v-4h-2v4h-4v2h4v4h2v-4h4v-2h-4zm0-30v-4h-2v4h-4v2h4v4h2v-4h4v-2h-4zm90 30v-4h-2v4h-4v2h4v4h2v-4h4v-2h-4zm0-30v-4h-2v4h-4v2h4v4h2v-4h4v-2h-4zm-30 30v-4h-2v4h-4v2h4v4h2v-4h4v-2h-4zm0-30v-4h-2v4h-4v2h4v4h2v-4h4v-2h-4zm90 30v-4h-2v4h-4v2h4v4h2v-4h4v-2h-4zm0-30v-4h-2v4h-4v2h4v4h2v-4h4v-2h-4zm-30 30v-4h-2v4h-4v2h4v4h2v-4h4v-2h-4zm0-30v-4h-2v4h-4v2h4v4h2v-4h4v-2h-4zm90 30v-4h-2v4h-4v2h4v4h2v-4h4v-2h-4zm0-30v-4h-2v4h-4v2h4v4h2v-4h4v-2h-4zm-30 30v-4h-2v4h-4v2h4v4h2v-4h4v-2h-4zm0-30v-4h-2v4h-4v2h4v4h2v-4h4v-2h-4zm90 30v-4h-2v4h-4v2h4v4h2v-4h4v-2h-4zm0-30v-4h-2v4h-4v2h4v4h2v-4h4v-2h-4zm-30 30v-4h-2v4h-4v2h4v4h2v-4h4v-2h-4zm0-30v-4h-2v4h-4v2h4v4h2v-4h4v-2h-4zm90 30v-4h-2v4h-4v2h4v4h2v-4h4v-2h-4zm0-30v-4h-2v4h-4v2h4v4h2v-4h4v-2h-4zm-30 30v-4h-2v4h-4v2h4v4h2v-4h4v-2h-4zm0-30v-4h-2v4h-4v2h4v4h2v-4h4v-2h-4zm90 30v-4h-2v4h-4v2h4v4h2v-4h4v-2h-4zm0-30v-4h-2v4h-4v2h4v4h2v-4h4v-2h-4zm-30 30v-4h-2v4h-4v2h4v4h2v-4h4v-2h-4zm0-30v-4h-2v4h-4v2h4v4h2v-4h4v-2h-4zm-510 90v-4h-2v4h-4v2h4v4h2v-4h4v-2h-4zm0-30v-4h-2v4h-4v2h4v4h2v-4h4v-2h-4zm-30 30v-4h-2v4h-4v2h4v4h2v-4h4v-2h-4zm0-30v-4h-2v4h-4v2h4v4h2v-4h4v-2h-4zm90 30v-4h-2v4h-4v2h4v4h2v-4h4v-2h-4zm0-30v-4h-2v4h-4v2h4v4h2v-4h4v-2h-4zm-30 30v-4h-2v4h-4v2h4v4h2v-4h4v-2h-4zm0-30v-4h-2v4h-4v2h4v4h2v-4h4v-2h-4zm90 30v-4h-2v4h-4v2h4v4h2v-4h4v-2h-4zm0-30v-4h-2v4h-4v2h4v4h2v-4h4v-2h-4zm-30 30v-4h-2v4h-4v2h4v4h2v-4h4v-2h-4zm0-30v-4h-2v4h-4v2h4v4h2v-4h4v-2h-4zm90 30v-4h-2v4h-4v2h4v4h2v-4h4v-2h-4zm0-30v-4h-2v4h-4v2h4v4h2v-4h4v-2h-4zm-30 30v-4h-2v4h-4v2h4v4h2v-4h4v-2h-4zm0-30v-4h-2v4h-4v2h4v4h2v-4h4v-2h-4zm90 30v-4h-2v4h-4v2h4v4h2v-4h4v-2h-4zm0-30v-4h-2v4h-4v2h4v4h2v-4h4v-2h-4zm-30 30v-4h-2v4h-4v2h4v4h2v-4h4v-2h-4zm0-30v-4h-2v4h-4v2h4v4h2v-4h4v-2h-4zm90 30v-4h-2v4h-4v2h4v4h2v-4h4v-2h-4zm0-30v-4h-2v4h-4v2h4v4h2v-4h4v-2h-4zm-30 30v-4h-2v4h-4v2h4v4h2v-4h4v-2h-4zm0-30v-4h-2v4h-4v2h4v4h2v-4h4v-2h-4zm90 30v-4h-2v4h-4v2h4v4h2v-4h4v-2h-4zm0-30v-4h-2v4h-4v2h4v4h2v-4h4v-2h-4zm-30 30v-4h-2v4h-4v2h4v4h2v-4h4v-2h-4zm0-30v-4h-2v4h-4v2h4v4h2v-4h4v-2h-4zm90 30v-4h-2v4h-4v2h4v4h2v-4h4v-2h-4zm0-30v-4h-2v4h-4v2h4v4h2v-4h4v-2h-4zm-30 30v-4h-2v4h-4v2h4v4h2v-4h4v-2h-4zm0-30v-4h-2v4h-4v2h4v4h2v-4h4v-2h-4zm90 30v-4h-2v4h-4v2h4v4h2v-4h4v-2h-4zm0-30v-4h-2v4h-4v2h4v4h2v-4h4v-2h-4zm-30 30v-4h-2v4h-4v2h4v4h2v-4h4v-2h-4zm0-30v-4h-2v4h-4v2h4v4h2v-4h4v-2h-4zm90 30v-4h-2v4h-4v2h4v4h2v-4h4v-2h-4zm0-30v-4h-2v4h-4v2h4v4h2v-4h4v-2h-4zm-30 30v-4h-2v4h-4v2h4v4h2v-4h4v-2h-4zm0-30v-4h-2v4h-4v2h4v4h2v-4h4v-2h-4zm-510 90v-4h-2v4h-4v2h4v4h2v-4h4v-2h-4zm0-30v-4h-2v4h-4v2h4v4h2v-4h4v-2h-4zm-30 30v-4h-2v4h-4v2h4v4h2v-4h4v-2h-4zm0-30v-4h-2v4h-4v2h4v4h2v-4h4v-2h-4zm90 30v-4h-2v4h-4v2h4v4h2v-4h4v-2h-4zm0-30v-4h-2v4h-4v2h4v4h2v-4h4v-2h-4zm-30 30v-4h-2v4h-4v2h4v4h2v-4h4v-2h-4zm0-30v-4h-2v4h-4v2h4v4h2v-4h4v-2h-4zm90 30v-4h-2v4h-4v2h4v4h2v-4h4v-2h-4zm0-30v-4h-2v4h-4v2h4v4h2v-4h4v-2h-4zm-30 30v-4h-2v4h-4v2h4v4h2v-4h4v-2h-4zm0-30v-4h-2v4h-4v2h4v4h2v-4h4v-2h-4zm90 30v-4h-2v4h-4v2h4v4h2v-4h4v-2h-4zm0-30v-4h-2v4h-4v2h4v4h2v-4h4v-2h-4zm-30 30v-4h-2v4h-4v2h4v4h2v-4h4v-2h-4zm0-30v-4h-2v4h-4v2h4v4h2v-4h4v-2h-4zm90 30v-4h-2v4h-4v2h4v4h2v-4h4v-2h-4zm0-30v-4h-2v4h-4v2h4v4h2v-4h4v-2h-4zm-30 30v-4h-2v4h-4v2h4v4h2v-4h4v-2h-4zm0-30v-4h-2v4h-4v2h4v4h2v-4h4v-2h-4zm90 30v-4h-2v4h-4v2h4v4h2v-4h4v-2h-4zm0-30v-4h-2v4h-4v2h4v4h2v-4h4v-2h-4zm-30 30v-4h-2v4h-4v2h4v4h2v-4h4v-2h-4zm0-30v-4h-2v4h-4v2h4v4h2v-4h4v-2h-4zm90 30v-4h-2v4h-4v2h4v4h2v-4h4v-2h-4zm0-30v-4h-2v4h-4v2h4v4h2v-4h4v-2h-4zm-30 30v-4h-2v4h-4v2h4v4h2v-4h4v-2h-4zm0-30v-4h-2v4h-4v2h4v4h2v-4h4v-2h-4zm90 30v-4h-2v4h-4v2h4v4h2v-4h4v-2h-4zm0-30v-4h-2v4h-4v2h4v4h2v-4h4v-2h-4zm-30 30v-4h-2v4h-4v2h4v4h2v-4h4v-2h-4zm0-30v-4h-2v4h-4v2h4v4h2v-4h4v-2h-4zm90 30v-4h-2v4h-4v2h4v4h2v-4h4v-2h-4zm0-30v-4h-2v4h-4v2h4v4h2v-4h4v-2h-4zm-30 30v-4h-2v4h-4v2h4v4h2v-4h4v-2h-4zm0-30v-4h-2v4h-4v2h4v4h2v-4h4v-2h-4zm90 30v-4h-2v4h-4v2h4v4h2v-4h4v-2h-4zm0-30v-4h-2v4h-4v2h4v4h2v-4h4v-2h-4zm-30 30v-4h-2v4h-4v2h4v4h2v-4h4v-2h-4zm0-30v-4h-2v4h-4v2h4v4h2v-4h4v-2h-4zm-510 90v-4h-2v4h-4v2h4v4h2v-4h4v-2h-4zm0-30v-4h-2v4h-4v2h4v4h2v-4h4v-2h-4zm-30 30v-4h-2v4h-4v2h4v4h2v-4h4v-2h-4zm0-30v-4h-2v4h-4v2h4v4h2v-4h4v-2h-4zm90 30v-4h-2v4h-4v2h4v4h2v-4h4v-2h-4zm0-30v-4h-2v4h-4v2h4v4h2v-4h4v-2h-4zm-30 30v-4h-2v4h-4v2h4v4h2v-4h4v-2h-4zm0-30v-4h-2v4h-4v2h4v4h2v-4h4v-2h-4zm90 30v-4h-2v4h-4v2h4v4h2v-4h4v-2h-4zm0-30v-4h-2v4h-4v2h4v4h2v-4h4v-2h-4zm-30 30v-4h-2v4h-4v2h4v4h2v-4h4v-2h-4zm0-30v-4h-2v4h-4v2h4v4h2v-4h4v-2h-4zm90 30v-4h-2v4h-4v2h4v4h2v-4h4v-2h-4zm0-30v-4h-2v4h-4v2h4v4h2v-4h4v-2h-4zm-30 30v-4h-2v4h-4v2h4v4h2v-4h4v-2h-4zm0-30v-4h-2v4h-4v2h4v4h2v-4h4v-2h-4zm90 30v-4h-2v4h-4v2h4v4h2v-4h4v-2h-4zm0-30v-4h-2v4h-4v2h4v4h2v-4h4v-2h-4zm-30 30v-4h-2v4h-4v2h4v4h2v-4h4v-2h-4zm0-30v-4h-2v4h-4v2h4v4h2v-4h4v-2h-4zm90 30v-4h-2v4h-4v2h4v4h2v-4h4v-2h-4zm0-30v-4h-2v4h-4v2h4v4h2v-4h4v-2h-4zm-30 30v-4h-2v4h-4v2h4v4h2v-4h4v-2h-4zm0-30v-4h-2v4h-4v2h4v4h2v-4h4v-2h-4zm90 30v-4h-2v4h-4v2h4v4h2v-4h4v-2h-4zm0-30v-4h-2v4h-4v2h4v4h2v-4h4v-2h-4zm-30 30v-4h-2v4h-4v2h4v4h2v-4h4v-2h-4zm0-30v-4h-2v4h-4v2h4v4h2v-4h4v-2h-4zm90 30v-4h-2v4h-4v2h4v4h2v-4h4v-2h-4zm0-30v-4h-2v4h-4v2h4v4h2v-4h4v-2h-4zm-30 30v-4h-2v4h-4v2h4v4h2v-4h4v-2h-4zm0-30v-4h-2v4h-4v2h4v4h2v-4h4v-2h-4zm90 30v-4h-2v4h-4v2h4v4h2v-4h4v-2h-4zm0-30v-4h-2v4h-4v2h4v4h2v-4h4v-2h-4zm-30 30v-4h-2v4h-4v2h4v4h2v-4h4v-2h-4zm0-30v-4h-2v4h-4v2h4v4h2v-4h4v-2h-4zm90 30v-4h-2v4h-4v2h4v4h2v-4h4v-2h-4zm0-30v-4h-2v4h-4v2h4v4h2v-4h4v-2h-4zm-30 30v-4h-2v4h-4v2h4v4h2v-4h4v-2h-4zm0-30v-4h-2v4h-4v2h4v4h2v-4h4v-2h-4zm-510 90v-4h-2v4h-4v2h4v4h2v-4h4v-2h-4zm0-30v-4h-2v4h-4v2h4v4h2v-4h4v-2h-4zm-30 30v-4h-2v4h-4v2h4v4h2v-4h4v-2h-4zm0-30v-4h-2v4h-4v2h4v4h2v-4h4v-2h-4zm90 30v-4h-2v4h-4v2h4v4h2v-4h4v-2h-4zm0-30v-4h-2v4h-4v2h4v4h2v-4h4v-2h-4zm-30 30v-4h-2v4h-4v2h4v4h2v-4h4v-2h-4zm0-30v-4h-2v4h-4v2h4v4h2v-4h4v-2h-4zm90 30v-4h-2v4h-4v2h4v4h2v-4h4v-2h-4zm0-30v-4h-2v4h-4v2h4v4h2v-4h4v-2h-4zm-30 30v-4h-2v4h-4v2h4v4h2v-4h4v-2h-4zm0-30v-4h-2v4h-4v2h4v4h2v-4h4v-2h-4zm90 30v-4h-2v4h-4v2h4v4h2v-4h4v-2h-4zm0-30v-4h-2v4h-4v2h4v4h2v-4h4v-2h-4zm-30 30v-4h-2v4h-4v2h4v4h2v-4h4v-2h-4zm0-30v-4h-2v4h-4v2h4v4h2v-4h4v-2h-4zm90 30v-4h-2v4h-4v2h4v4h2v-4h4v-2h-4zm0-30v-4h-2v4h-4v2h4v4h2v-4h4v-2h-4zm-30 30v-4h-2v4h-4v2h4v4h2v-4h4v-2h-4zm0-30v-4h-2v4h-4v2h4v4h2v-4h4v-2h-4zm90 30v-4h-2v4h-4v2h4v4h2v-4h4v-2h-4zm0-30v-4h-2v4h-4v2h4v4h2v-4h4v-2h-4zm-30 30v-4h-2v4h-4v2h4v4h2v-4h4v-2h-4zm0-30v-4h-2v4h-4v2h4v4h2v-4h4v-2h-4zm90 30v-4h-2v4h-4v2h4v4h2v-4h4v-2h-4zm0-30v-4h-2v4h-4v2h4v4h2v-4h4v-2h-4zm-30 30v-4h-2v4h-4v2h4v4h2v-4h4v-2h-4zm0-30v-4h-2v4h-4v2h4v4h2v-4h4v-2h-4zm90 30v-4h-2v4h-4v2h4v4h2v-4h4v-2h-4zm0-30v-4h-2v4h-4v2h4v4h2v-4h4v-2h-4zm-30 30v-4h-2v4h-4v2h4v4h2v-4h4v-2h-4zm0-30v-4h-2v4h-4v2h4v4h2v-4h4v-2h-4zm90 30v-4h-2v4h-4v2h4v4h2v-4h4v-2h-4zm0-30v-4h-2v4h-4v2h4v4h2v-4h4v-2h-4zm-30 30v-4h-2v4h-4v2h4v4h2v-4h4v-2h-4zm0-30v-4h-2v4h-4v2h4v4h2v-4h4v-2h-4zm90 30v-4h-2v4h-4v2h4v4h2v-4h4v-2h-4zm0-30v-4h-2v4h-4v2h4v4h2v-4h4v-2h-4zm-30 30v-4h-2v4h-4v2h4v4h2v-4h4v-2h-4zm0-30v-4h-2v4h-4v2h4v4h2v-4h4v-2h-4zm-510 90v-4h-2v4h-4v2h4v4h2v-4h4v-2h-4zm0-30v-4h-2v4h-4v2h4v4h2v-4h4v-2h-4zm-30 30v-4h-2v4h-4v2h4v4h2v-4h4v-2h-4zm0-30v-4h-2v4h-4v2h4v4h2v-4h4v-2h-4zm90 30v-4h-2v4h-4v2h4v4h2v-4h4v-2h-4zm0-30v-4h-2v4h-4v2h4v4h2v-4h4v-2h-4zm-30 30v-4h-2v4h-4v2h4v4h2v-4h4v-2h-4zm0-30v-4h-2v4h-4v2h4v4h2v-4h4v-2h-4zm90 30v-4h-2v4h-4v2h4v4h2v-4h4v-2h-4zm0-30v-4h-2v4h-4v2h4v4h2v-4h4v-2h-4zm-30 30v-4h-2v4h-4v2h4v4h2v-4h4v-2h-4zm0-30v-4h-2v4h-4v2h4v4h2v-4h4v-2h-4zm90 30v-4h-2v4h-4v2h4v4h2v-4h4v-2h-4zm0-30v-4h-2v4h-4v2h4v4h2v-4h4v-2h-4zm-30 30v-4h-2v4h-4v2h4v4h2v-4h4v-2h-4zm0-30v-4h-2v4h-4v2h4v4h2v-4h4v-2h-4zm90 30v-4h-2v4h-4v2h4v4h2v-4h4v-2h-4zm0-30v-4h-2v4h-4v2h4v4h2v-4h4v-2h-4zm-30 30v-4h-2v4h-4v2h4v4h2v-4h4v-2h-4zm0-30v-4h-2v4h-4v2h4v4h2v-4h4v-2h-4zm90 30v-4h-2v4h-4v2h4v4h2v-4h4v-2h-4zm0-30v-4h-2v4h-4v2h4v4h2v-4h4v-2h-4zm-30 30v-4h-2v4h-4v2h4v4h2v-4h4v-2h-4zm0-30v-4h-2v4h-4v2h4v4h2v-4h4v-2h-4zm90 30v-4h-2v4h-4v2h4v4h2v-4h4v-2h-4zm0-30v-4h-2v4h-4v2h4v4h2v-4h4v-2h-4zm-30 30v-4h-2v4h-4v2h4v4h2v-4h4v-2h-4zm0-30v-4h-2v4h-4v2h4v4h2v-4h4v-2h-4zm90 30v-4h-2v4h-4v2h4v4h2v-4h4v-2h-4zm0-30v-4h-2v4h-4v2h4v4h2v-4h4v-2h-4zm-30 30v-4h-2v4h-4v2h4v4h2v-4h4v-2h-4zm0-30v-4h-2v4h-4v2h4v4h2v-4h4v-2h-4zm90 30v-4h-2v4h-4v2h4v4h2v-4h4v-2h-4zm0-30v-4h-2v4h-4v2h4v4h2v-4h4v-2h-4zm-30 30v-4h-2v4h-4v2h4v4h2v-4h4v-2h-4zm0-30v-4h-2v4h-4v2h4v4h2v-4h4v-2h-4zm90 30v-4h-2v4h-4v2h4v4h2v-4h4v-2h-4zm0-30v-4h-2v4h-4v2h4v4h2v-4h4v-2h-4zm-30 30v-4h-2v4h-4v2h4v4h2v-4h4v-2h-4zm0-30v-4h-2v4h-4v2h4v4h2v-4h4v-2h-4z"/></g><defs><clipPath id="clip0"><path fill="#fff" transform="translate(0 .423)" d="M0 0h1200v370H0z"/></clipPath></defs></svg>