<svg version="1.1" id="Layer_1" xmlns="http://www.w3.org/2000/svg" x="0" y="0" viewBox="0 0 144.7 144.7" xml:space="preserve"><style>.st0{fill:none;stroke:#5ea7a5;stroke-width:3;stroke-miterlimit:10}</style><path class="st0" d="M77.7 28.4c0 3.1-2.5 5.5-5.5 5.5s-5.5-2.5-5.5-5.5c0-3.1 5.5-10.5 5.5-10.5s5.5 7.5 5.5 10.5z"/><path d="M110.8 81h-3.3V55.3c0-3.3-2.7-6-6-6h-6.9v-6.1h-4v6.1H74.2V37.4h-4v11.9H52.9v-6.1h-4v6.1h-6.1c-3.3 0-6 2.7-6 6V81h-2.9c-3.3 0-6 2.7-6 6v41.8h88.9V87c0-3.3-2.7-6-6-6zm-70-25.7c0-1.1.9-2 2-2h58.8c1.1 0 2 .9 2 2V81H40.8V55.3zm72 69.5H31.9v-3.5h80.9v3.5zm0-7.5H31.9v-16.1c1.9 1.9 4.5 3 7.3 3 3.3 0 6.4-1.6 8.4-4.2 3.4 4.6 9.9 5.6 14.5 2.3.9-.6 1.6-1.4 2.3-2.3 3.4 4.6 9.9 5.6 14.5 2.3.9-.6 1.6-1.4 2.3-2.3 3.4 4.6 9.9 5.7 14.5 2.3.9-.6 1.6-1.4 2.3-2.3 2 2.7 5.1 4.3 8.4 4.3 2.4 0 4.7-.8 6.6-2.4l-.2 15.4z" fill="#5ea7a5"/><path class="st0" d="M56.4 35.2c-.1 3.1-2.7 5.4-5.8 5.3-2.9-.1-5.2-2.4-5.3-5.3 0-3.1 5.5-10.5 5.5-10.5s5.6 7.5 5.6 10.5zm41.7-.4c-.1 3.1-2.7 5.4-5.8 5.3-2.9-.1-5.2-2.4-5.3-5.3 0-3.1 5.6-10.5 5.6-10.5s5.5 7.4 5.5 10.5z"/></svg>