<svg xmlns="http://www.w3.org/2000/svg" viewBox="0 0 144.7 144.7"><path d="M131.6 61.9c-.2-1.2-.6-2.5-1-3.7-.3-.8-.6-1.6-1-2.4-5.6-11.8-16.9-14-19.1-14.3h-.1c-7.1-1.2-14.3.4-20 4.4-3.7-5.3-9.2-9.1-15.7-10.6-1-.7-2-1.3-3.1-1.9-.9-.5-1.9-.8-2.8-1.1-3.2-1-6.7-1.2-10.2-.5-6.9 1.4-12.4 6.1-14.9 12-4.7-4.5-11.5-6.7-18.4-5.4C14.1 40.7 6.9 51.3 9.1 62.2c.4 2.1 1 3.6 1.3 4.2 1.1 2.2 2.9 4.6 5.2 7.1 11.3 12 34 25.5 39.7 28.8.9-1.2 2.4-3.2 4.2-5.7 6.2 9.1 12.6 17.2 15.8 21.2l1.9 2.4 2.6-1.6c9-5.4 30.8-19.2 42.9-31.9l1.2-1.2c.3-.3.5-.6.7-.8l1.1-1.2c.6-.7 1.2-1.5 1.8-2.3l.6-.9c.1-.1.1-.2.2-.2.6-1 1.2-1.9 1.7-2.9.1-.1.1-.2.2-.4.2-.5 1.1-2.6 1.7-5.6.4-3.1.4-6.3-.3-9.3zm-10 20.1c-.2.2-.4.4-.6.7l-.6.6c-11.4 12.3-33 26-42.2 31.6-3.5-4.3-10-12.6-16.2-21.8-2.6-3.9-5.2-8-7.5-12h13.1l6.4-7.8.3.6 9 18.7 6.6-11.5h32.5l-.8.9zm4.9-7c-.3.7-.7 1.4-1.2 2.1H87.6l-4 6.9-7-14.5-1.8-3.6-9.2 11.2H52.3c-1.2-2.3-2.2-4.4-3-6.3l-.4-.8c-.3-.8-.6-1.6-.9-2.3-.9-2.6-1.5-4.9-1.7-6.8 0-.6-.1-2.4.3-4.7 2-11.7 13.6-19.5 25.7-17.3 3 .5 5.7 1.6 8.2 3.1 3.1 1.9 5.7 4.6 7.5 7.8l1.2 2.1 1.8-1.6c5.1-4.3 11.8-6.1 18.5-4.9h.5c2.3.4 12.4 2.8 16.6 13.9 0 .1.1.1.1.2.4 1 .7 2.1.9 3.1.5 2.6.6 5.2.1 7.8-.3 2.6-1.1 4.3-1.2 4.6z" fill="#5ea7a5"/></svg>