<svg xmlns="http://www.w3.org/2000/svg" viewBox="0 0 144.7 144.7"><path d="M71.8 84.3c.1 0 0 0 0 0zm0 0c.1 0 0 0 0 0zm5.5-7.5l3 3-3-3zm46.1 46.1l-4.6-4.6-2.8-2.9-12.5-12.4V27.5c0-4.3-3.5-7.7-7.7-7.7H78.3c-.8-1.8-2.5-3-4.5-3h-3c-1.6-4.4-6.5-6.7-10.9-5-2.3.9-4.2 2.7-5 5h-3c-2 0-3.7 1.2-4.5 3H27.9c-4.3 0-7.7 3.5-7.7 7.7v91.1c0 4.3 3.5 7.7 7.7 7.7h67.9c3.3 0 6.2-2 7.3-5.1l3.5 3.5 2.8 2.8 4.6 4.6c.8.8 2 1.3 3.2 1.2.3 0 .6 0 .8-.1 1.4-.3 2.7-1 3.7-2l.9-.9c1.2-1.2 2-2.8 2-4.6 0-.9-.4-2-1.2-2.8zM89 32.4c.8 0 1.5.7 1.5 1.5V90L80.3 79.8l-3-3-.8-.8-14.4-4.7 5 14.1.8.8 3 3 19.5 19.5v3.6c0 .8-.7 1.5-1.5 1.5H34.6c-.8 0-1.5-.7-1.5-1.5V33.9c0-.8.6-1.5 1.4-1.5H89zM75.5 80.6c-.5.8-1 1.5-1.7 2.2l-.5.5c-.1.1-.2.2-.4.3-.3.2-.5.4-.8.6l-.2.1-.1.1-1.2-1.2-2-5.6 5.7 1.9 1.2 1.1zm24 38.1c0 2-1.7 3.7-3.7 3.7H27.9c-2.1 0-3.7-1.7-3.7-3.7V27.5c0-2.1 1.7-3.7 3.7-3.7H47v4.6H34.6c-3 0-5.5 2.4-5.5 5.5v78.4c0 3 2.4 5.5 5.5 5.5H89c2.9 0 5.3-2.2 5.4-5.1l5.1 5.1v.9zm0-19.7l-5.1-5V33.9c0-3-2.4-5.5-5.4-5.5H78.8v-4.6h17c2.1 0 3.7 1.7 3.7 3.7V99zm20.3 28.7l-.9.9c-.4.4-.9.7-1.5.8-.3 0-.5 0-.6-.1l-4.6-4.6 3.7-3.7 4.6 4.6c.1.1.1.2.1.3 0 .8-.3 1.4-.8 1.8z" fill="#5ea7a5"/></svg>