<svg version="1.1" id="Layer_7" xmlns="http://www.w3.org/2000/svg" x="0" y="0" viewBox="0 0 144.7 144.7" xml:space="preserve"><style>.st0{fill:#5ea7a5}</style><path class="st0" d="M65.4 47.2l.6 4c5.8-.8 11.5-.4 16.9 1.3 2.7.8 5.3 2 7.8 3.5l2-3.5c-2.7-1.6-5.6-2.9-8.6-3.8-6-1.9-12.3-2.4-18.7-1.5z"/><path class="st0" d="M123.5 67.8c-.7-3.7-2.2-7.2-4.1-10.5h.1c-7.3-11.1-15.3-15-18.2-16.1-7.9-4-17.4-6.3-27.5-6.3-5.9 0-11.7.8-17.3 2.3-2.6-2-10.5-7.1-21.5-5.6l-.5.1-.5.3c-1.3 1-3.1 3.9-.5 8 .5.9 1.1 1.7 1.6 2.5 1 1.5 2.2 3.2 2.4 4.2-5.2 4.1-9.1 9.1-11.5 14.5h-1.6c-4.2 0-7.6 3.4-7.6 7.6v9.7c0 4.2 3.4 7.6 7.6 7.6h1.3c2.5 5.9 6.8 11.3 12.6 15.7v7.4c0 4.2 3.4 7.6 7.6 7.6h10.4c3.1 0 5.9-1.9 7-4.7 6.5 1 13.4 1.1 19.9.1 1.2 2.7 3.9 4.6 7 4.6H97c3 2.1 6.7 3.4 10.7 3.4 10.3 0 18.8-8.4 18.8-18.8 0-5.3-2.2-10.1-5.8-13.5 1.4-2.9 2.4-5.9 2.9-9 2.3-.3 4.1-2.2 4.1-4.6v-1.8c.2-2.6-1.8-4.6-4.2-4.7zm-11 28.9h-6v3.3h6v9h-3.4v1.1h-2.6V109h-2.8v-2.8h6v-3.4h-6V94h2.8v-1.1h2.6V94h3.3v2.7h.1zm11.4-22.5c0 .4-.3.7-.7.7h-3l-.2 1.8c-.3 3-1.1 5.9-2.4 8.7-2.8-1.7-6.2-2.8-9.7-2.8C97.5 82.6 89 91 89 101.4c0 4.3 1.5 8.2 3.9 11.4h-2.6c-1.8 0-3.3-1.3-3.6-3.1l-.3-2.1-2.1.4c-7.1 1.3-14.9 1.3-22.1-.1l-2.1-.4-.2 2.1c-.2 1.8-1.8 3.2-3.6 3.2H46c-2 0-3.6-1.6-3.6-3.6v-9.4l-.8-.6c-6-4.3-10.3-9.8-12.5-15.8l-.5-1.3h-4.1c-2 0-3.6-1.6-3.6-3.6v-9.7c0-2 1.6-3.6 3.6-3.6h4.3l.5-1.3c2.1-5.4 6.1-10.4 11.4-14.5l.5-.4.2-.5c1-2.7-.8-5.4-2.8-8.3-.5-.7-1-1.5-1.6-2.3-.8-1.3-.8-2-.7-2.4 11-1.2 18.3 5.4 18.4 5.4l.8.8 1.1-.3c5.5-1.6 11.2-2.5 17.1-2.5 9.3 0 18 2.1 25.3 5.7v.1c.1 0 8.6 2.5 16.6 14.1 2.2 3.5 3.7 7.3 4.2 11.3l.2 1.7h3.1c.4 0 .7.3.7.7v1.7h.1z"/><circle class="st0" cx="45.4" cy="62.8" r="5.2"/></svg>