<svg version="1.1" id="Layer_8" xmlns="http://www.w3.org/2000/svg" x="0" y="0" viewBox="0 0 144.7 144.7" xml:space="preserve"><style>.st0{fill:#5ea7a5}</style><path class="st0" d="M122.3 52.4c-.6 0-1.1-.1-1.7-.2-2.6-.6-4.6-2.6-5.2-5.2-.1-.5-.2-1.1-.2-1.7 0-.8.1-1.6.4-2.3H29.1c.3.7.4 1.5.4 2.3 0 .6-.1 1.1-.2 1.7-.5 2.3-2.2 4.2-4.4 5-.8.3-1.6.5-2.5.5-.5 0-1-.1-1.5-.2v41.1c.5-.1 1-.2 1.5-.2.9 0 1.7.2 2.5.5 1.9.7 3.4 2.2 4.1 4.1.3.8.5 1.6.5 2.5 0 .5-.1 1-.2 1.5h86c-.1-.5-.2-1-.2-1.5 0-.9.2-1.7.5-2.5.8-2.2 2.7-3.8 5-4.4.5-.1 1.1-.2 1.7-.2.8 0 1.6.1 2.3.4V52c-.7.3-1.5.4-2.3.4zm-1.7 37.3c-4.3.7-7.7 3.9-8.7 8h-27V93h-4v4.8H32.8c-.9-3.9-4-6.9-7.8-7.8V55.7c4.1-1 7.3-4.4 8-8.7h47.9v6h4v-6h26.9c.7 4.6 4.3 8.2 8.9 8.9v33.8h-.1z"/><path class="st0" d="M80.9 77h4v8h-4zm0-16h4v8h-4zm-18.3-.5s-3 3.2-6.8 7c1.3 5.5 2.5 10.9 3.8 16.4-.6.5-1.1 1-1.7 1.4-1.9-3.2-3.7-6.3-5.6-9.5-.9-.8-1.8-1.5-2.7-2.2-2.7 2.6-5.4 4.9-7.3 6.4.1 2.4.1 4.9.2 7.4-.5.3-1.1.6-1.6.9-.8-1.6-1.6-3.2-2.3-4.7-.3-.2-.6-.5-.9-.7-.4.2-.6.3-.8.3-.5-.1-.8-.3-.9-.4-.1-.2-.3-.7-.3-.7 0-.1.1-.4.3-.8-.2-.3-.4-.6-.7-.9-1.6-.8-3.2-1.6-4.7-2.3.3-.6.6-1.1.9-1.6 2.5.1 4.9.1 7.3.2 1.4-2 3.8-4.6 6.4-7.3-.8-.9-1.5-1.8-2.2-2.7-3.1-1.9-6.3-3.7-9.5-5.5.5-.6 1-1.1 1.4-1.7 5.5 1.3 10.9 2.5 16.4 3.8 3.9-3.8 7-6.8 7-6.8 4.4-2.8 5.5-1.2 5.5-1.2s1.6.8-1.2 5.2z"/></svg>