<svg width="1200" height="371" viewBox="0 0 1200 371" fill="none" xmlns="http://www.w3.org/2000/svg">
<g clip-path="url(#clip0)">
<rect width="1200" height="370" transform="translate(0 0.422852)" fill="white"/>
<path fill-rule="evenodd" clip-rule="evenodd" d="M46 44.4229V40.4229H44V44.4229H40V46.4229H44V50.4229H46V46.4229H50V44.4229H46ZM46 14.4229V10.4229H44V14.4229H40V16.4229H44V20.4229H46V16.4229H50V14.4229H46ZM16 44.4229V40.4229H14V44.4229H10V46.4229H14V50.4229H16V46.4229H20V44.4229H16ZM16 14.4229V10.4229H14V14.4229H10V16.4229H14V20.4229H16V16.4229H20V14.4229H16Z" fill="url(#paint0_linear)"/>
<path fill-rule="evenodd" clip-rule="evenodd" d="M106 44.4229V40.4229H104V44.4229H100V46.4229H104V50.4229H106V46.4229H110V44.4229H106ZM106 14.4229V10.4229H104V14.4229H100V16.4229H104V20.4229H106V16.4229H110V14.4229H106ZM76 44.4229V40.4229H74V44.4229H70V46.4229H74V50.4229H76V46.4229H80V44.4229H76ZM76 14.4229V10.4229H74V14.4229H70V16.4229H74V20.4229H76V16.4229H80V14.4229H76Z" fill="url(#paint1_linear)"/>
<path fill-rule="evenodd" clip-rule="evenodd" d="M166 44.4229V40.4229H164V44.4229H160V46.4229H164V50.4229H166V46.4229H170V44.4229H166ZM166 14.4229V10.4229H164V14.4229H160V16.4229H164V20.4229H166V16.4229H170V14.4229H166ZM136 44.4229V40.4229H134V44.4229H130V46.4229H134V50.4229H136V46.4229H140V44.4229H136ZM136 14.4229V10.4229H134V14.4229H130V16.4229H134V20.4229H136V16.4229H140V14.4229H136Z" fill="url(#paint2_linear)"/>
<path fill-rule="evenodd" clip-rule="evenodd" d="M226 44.4229V40.4229H224V44.4229H220V46.4229H224V50.4229H226V46.4229H230V44.4229H226ZM226 14.4229V10.4229H224V14.4229H220V16.4229H224V20.4229H226V16.4229H230V14.4229H226ZM196 44.4229V40.4229H194V44.4229H190V46.4229H194V50.4229H196V46.4229H200V44.4229H196ZM196 14.4229V10.4229H194V14.4229H190V16.4229H194V20.4229H196V16.4229H200V14.4229H196Z" fill="url(#paint3_linear)"/>
<path fill-rule="evenodd" clip-rule="evenodd" d="M286 44.4229V40.4229H284V44.4229H280V46.4229H284V50.4229H286V46.4229H290V44.4229H286ZM286 14.4229V10.4229H284V14.4229H280V16.4229H284V20.4229H286V16.4229H290V14.4229H286ZM256 44.4229V40.4229H254V44.4229H250V46.4229H254V50.4229H256V46.4229H260V44.4229H256ZM256 14.4229V10.4229H254V14.4229H250V16.4229H254V20.4229H256V16.4229H260V14.4229H256Z" fill="url(#paint4_linear)"/>
<path fill-rule="evenodd" clip-rule="evenodd" d="M346 44.4229V40.4229H344V44.4229H340V46.4229H344V50.4229H346V46.4229H350V44.4229H346ZM346 14.4229V10.4229H344V14.4229H340V16.4229H344V20.4229H346V16.4229H350V14.4229H346ZM316 44.4229V40.4229H314V44.4229H310V46.4229H314V50.4229H316V46.4229H320V44.4229H316ZM316 14.4229V10.4229H314V14.4229H310V16.4229H314V20.4229H316V16.4229H320V14.4229H316Z" fill="url(#paint5_linear)"/>
<path fill-rule="evenodd" clip-rule="evenodd" d="M406 44.4229V40.4229H404V44.4229H400V46.4229H404V50.4229H406V46.4229H410V44.4229H406ZM406 14.4229V10.4229H404V14.4229H400V16.4229H404V20.4229H406V16.4229H410V14.4229H406ZM376 44.4229V40.4229H374V44.4229H370V46.4229H374V50.4229H376V46.4229H380V44.4229H376ZM376 14.4229V10.4229H374V14.4229H370V16.4229H374V20.4229H376V16.4229H380V14.4229H376Z" fill="url(#paint6_linear)"/>
<path fill-rule="evenodd" clip-rule="evenodd" d="M466 44.4229V40.4229H464V44.4229H460V46.4229H464V50.4229H466V46.4229H470V44.4229H466ZM466 14.4229V10.4229H464V14.4229H460V16.4229H464V20.4229H466V16.4229H470V14.4229H466ZM436 44.4229V40.4229H434V44.4229H430V46.4229H434V50.4229H436V46.4229H440V44.4229H436ZM436 14.4229V10.4229H434V14.4229H430V16.4229H434V20.4229H436V16.4229H440V14.4229H436Z" fill="url(#paint7_linear)"/>
<path fill-rule="evenodd" clip-rule="evenodd" d="M526 44.4229V40.4229H524V44.4229H520V46.4229H524V50.4229H526V46.4229H530V44.4229H526ZM526 14.4229V10.4229H524V14.4229H520V16.4229H524V20.4229H526V16.4229H530V14.4229H526ZM496 44.4229V40.4229H494V44.4229H490V46.4229H494V50.4229H496V46.4229H500V44.4229H496ZM496 14.4229V10.4229H494V14.4229H490V16.4229H494V20.4229H496V16.4229H500V14.4229H496Z" fill="url(#paint8_linear)"/>
<path fill-rule="evenodd" clip-rule="evenodd" d="M586 44.4229V40.4229H584V44.4229H580V46.4229H584V50.4229H586V46.4229H590V44.4229H586ZM586 14.4229V10.4229H584V14.4229H580V16.4229H584V20.4229H586V16.4229H590V14.4229H586ZM556 44.4229V40.4229H554V44.4229H550V46.4229H554V50.4229H556V46.4229H560V44.4229H556ZM556 14.4229V10.4229H554V14.4229H550V16.4229H554V20.4229H556V16.4229H560V14.4229H556Z" fill="url(#paint9_linear)"/>
<path fill-rule="evenodd" clip-rule="evenodd" d="M46 104.423V100.423H44V104.423H40V106.423H44V110.423H46V106.423H50V104.423H46ZM46 74.4229V70.4229H44V74.4229H40V76.4229H44V80.4229H46V76.4229H50V74.4229H46ZM16 104.423V100.423H14V104.423H10V106.423H14V110.423H16V106.423H20V104.423H16ZM16 74.4229V70.4229H14V74.4229H10V76.4229H14V80.4229H16V76.4229H20V74.4229H16Z" fill="url(#paint10_linear)"/>
<path fill-rule="evenodd" clip-rule="evenodd" d="M106 104.423V100.423H104V104.423H100V106.423H104V110.423H106V106.423H110V104.423H106ZM106 74.4229V70.4229H104V74.4229H100V76.4229H104V80.4229H106V76.4229H110V74.4229H106ZM76 104.423V100.423H74V104.423H70V106.423H74V110.423H76V106.423H80V104.423H76ZM76 74.4229V70.4229H74V74.4229H70V76.4229H74V80.4229H76V76.4229H80V74.4229H76Z" fill="url(#paint11_linear)"/>
<path fill-rule="evenodd" clip-rule="evenodd" d="M166 104.423V100.423H164V104.423H160V106.423H164V110.423H166V106.423H170V104.423H166ZM166 74.4229V70.4229H164V74.4229H160V76.4229H164V80.4229H166V76.4229H170V74.4229H166ZM136 104.423V100.423H134V104.423H130V106.423H134V110.423H136V106.423H140V104.423H136ZM136 74.4229V70.4229H134V74.4229H130V76.4229H134V80.4229H136V76.4229H140V74.4229H136Z" fill="url(#paint12_linear)"/>
<path fill-rule="evenodd" clip-rule="evenodd" d="M226 104.423V100.423H224V104.423H220V106.423H224V110.423H226V106.423H230V104.423H226ZM226 74.4229V70.4229H224V74.4229H220V76.4229H224V80.4229H226V76.4229H230V74.4229H226ZM196 104.423V100.423H194V104.423H190V106.423H194V110.423H196V106.423H200V104.423H196ZM196 74.4229V70.4229H194V74.4229H190V76.4229H194V80.4229H196V76.4229H200V74.4229H196Z" fill="url(#paint13_linear)"/>
<path fill-rule="evenodd" clip-rule="evenodd" d="M286 104.423V100.423H284V104.423H280V106.423H284V110.423H286V106.423H290V104.423H286ZM286 74.4229V70.4229H284V74.4229H280V76.4229H284V80.4229H286V76.4229H290V74.4229H286ZM256 104.423V100.423H254V104.423H250V106.423H254V110.423H256V106.423H260V104.423H256ZM256 74.4229V70.4229H254V74.4229H250V76.4229H254V80.4229H256V76.4229H260V74.4229H256Z" fill="url(#paint14_linear)"/>
<path fill-rule="evenodd" clip-rule="evenodd" d="M346 104.423V100.423H344V104.423H340V106.423H344V110.423H346V106.423H350V104.423H346ZM346 74.4229V70.4229H344V74.4229H340V76.4229H344V80.4229H346V76.4229H350V74.4229H346ZM316 104.423V100.423H314V104.423H310V106.423H314V110.423H316V106.423H320V104.423H316ZM316 74.4229V70.4229H314V74.4229H310V76.4229H314V80.4229H316V76.4229H320V74.4229H316Z" fill="url(#paint15_linear)"/>
<path fill-rule="evenodd" clip-rule="evenodd" d="M406 104.423V100.423H404V104.423H400V106.423H404V110.423H406V106.423H410V104.423H406ZM406 74.4229V70.4229H404V74.4229H400V76.4229H404V80.4229H406V76.4229H410V74.4229H406ZM376 104.423V100.423H374V104.423H370V106.423H374V110.423H376V106.423H380V104.423H376ZM376 74.4229V70.4229H374V74.4229H370V76.4229H374V80.4229H376V76.4229H380V74.4229H376Z" fill="url(#paint16_linear)"/>
<path fill-rule="evenodd" clip-rule="evenodd" d="M466 104.423V100.423H464V104.423H460V106.423H464V110.423H466V106.423H470V104.423H466ZM466 74.4229V70.4229H464V74.4229H460V76.4229H464V80.4229H466V76.4229H470V74.4229H466ZM436 104.423V100.423H434V104.423H430V106.423H434V110.423H436V106.423H440V104.423H436ZM436 74.4229V70.4229H434V74.4229H430V76.4229H434V80.4229H436V76.4229H440V74.4229H436Z" fill="url(#paint17_linear)"/>
<path fill-rule="evenodd" clip-rule="evenodd" d="M526 104.423V100.423H524V104.423H520V106.423H524V110.423H526V106.423H530V104.423H526ZM526 74.4229V70.4229H524V74.4229H520V76.4229H524V80.4229H526V76.4229H530V74.4229H526ZM496 104.423V100.423H494V104.423H490V106.423H494V110.423H496V106.423H500V104.423H496ZM496 74.4229V70.4229H494V74.4229H490V76.4229H494V80.4229H496V76.4229H500V74.4229H496Z" fill="url(#paint18_linear)"/>
<path fill-rule="evenodd" clip-rule="evenodd" d="M586 104.423V100.423H584V104.423H580V106.423H584V110.423H586V106.423H590V104.423H586ZM586 74.4229V70.4229H584V74.4229H580V76.4229H584V80.4229H586V76.4229H590V74.4229H586ZM556 104.423V100.423H554V104.423H550V106.423H554V110.423H556V106.423H560V104.423H556ZM556 74.4229V70.4229H554V74.4229H550V76.4229H554V80.4229H556V76.4229H560V74.4229H556Z" fill="url(#paint19_linear)"/>
<path fill-rule="evenodd" clip-rule="evenodd" d="M46 164.423V160.423H44V164.423H40V166.423H44V170.423H46V166.423H50V164.423H46ZM46 134.423V130.423H44V134.423H40V136.423H44V140.423H46V136.423H50V134.423H46ZM16 164.423V160.423H14V164.423H10V166.423H14V170.423H16V166.423H20V164.423H16ZM16 134.423V130.423H14V134.423H10V136.423H14V140.423H16V136.423H20V134.423H16Z" fill="url(#paint20_linear)"/>
<path fill-rule="evenodd" clip-rule="evenodd" d="M106 164.423V160.423H104V164.423H100V166.423H104V170.423H106V166.423H110V164.423H106ZM106 134.423V130.423H104V134.423H100V136.423H104V140.423H106V136.423H110V134.423H106ZM76 164.423V160.423H74V164.423H70V166.423H74V170.423H76V166.423H80V164.423H76ZM76 134.423V130.423H74V134.423H70V136.423H74V140.423H76V136.423H80V134.423H76Z" fill="url(#paint21_linear)"/>
<path fill-rule="evenodd" clip-rule="evenodd" d="M166 164.423V160.423H164V164.423H160V166.423H164V170.423H166V166.423H170V164.423H166ZM166 134.423V130.423H164V134.423H160V136.423H164V140.423H166V136.423H170V134.423H166ZM136 164.423V160.423H134V164.423H130V166.423H134V170.423H136V166.423H140V164.423H136ZM136 134.423V130.423H134V134.423H130V136.423H134V140.423H136V136.423H140V134.423H136Z" fill="url(#paint22_linear)"/>
<path fill-rule="evenodd" clip-rule="evenodd" d="M226 164.423V160.423H224V164.423H220V166.423H224V170.423H226V166.423H230V164.423H226ZM226 134.423V130.423H224V134.423H220V136.423H224V140.423H226V136.423H230V134.423H226ZM196 164.423V160.423H194V164.423H190V166.423H194V170.423H196V166.423H200V164.423H196ZM196 134.423V130.423H194V134.423H190V136.423H194V140.423H196V136.423H200V134.423H196Z" fill="url(#paint23_linear)"/>
<path fill-rule="evenodd" clip-rule="evenodd" d="M286 164.423V160.423H284V164.423H280V166.423H284V170.423H286V166.423H290V164.423H286ZM286 134.423V130.423H284V134.423H280V136.423H284V140.423H286V136.423H290V134.423H286ZM256 164.423V160.423H254V164.423H250V166.423H254V170.423H256V166.423H260V164.423H256ZM256 134.423V130.423H254V134.423H250V136.423H254V140.423H256V136.423H260V134.423H256Z" fill="url(#paint24_linear)"/>
<path fill-rule="evenodd" clip-rule="evenodd" d="M346 164.423V160.423H344V164.423H340V166.423H344V170.423H346V166.423H350V164.423H346ZM346 134.423V130.423H344V134.423H340V136.423H344V140.423H346V136.423H350V134.423H346ZM316 164.423V160.423H314V164.423H310V166.423H314V170.423H316V166.423H320V164.423H316ZM316 134.423V130.423H314V134.423H310V136.423H314V140.423H316V136.423H320V134.423H316Z" fill="url(#paint25_linear)"/>
<path fill-rule="evenodd" clip-rule="evenodd" d="M406 164.423V160.423H404V164.423H400V166.423H404V170.423H406V166.423H410V164.423H406ZM406 134.423V130.423H404V134.423H400V136.423H404V140.423H406V136.423H410V134.423H406ZM376 164.423V160.423H374V164.423H370V166.423H374V170.423H376V166.423H380V164.423H376ZM376 134.423V130.423H374V134.423H370V136.423H374V140.423H376V136.423H380V134.423H376Z" fill="url(#paint26_linear)"/>
<path fill-rule="evenodd" clip-rule="evenodd" d="M466 164.423V160.423H464V164.423H460V166.423H464V170.423H466V166.423H470V164.423H466ZM466 134.423V130.423H464V134.423H460V136.423H464V140.423H466V136.423H470V134.423H466ZM436 164.423V160.423H434V164.423H430V166.423H434V170.423H436V166.423H440V164.423H436ZM436 134.423V130.423H434V134.423H430V136.423H434V140.423H436V136.423H440V134.423H436Z" fill="url(#paint27_linear)"/>
<path fill-rule="evenodd" clip-rule="evenodd" d="M526 164.423V160.423H524V164.423H520V166.423H524V170.423H526V166.423H530V164.423H526ZM526 134.423V130.423H524V134.423H520V136.423H524V140.423H526V136.423H530V134.423H526ZM496 164.423V160.423H494V164.423H490V166.423H494V170.423H496V166.423H500V164.423H496ZM496 134.423V130.423H494V134.423H490V136.423H494V140.423H496V136.423H500V134.423H496Z" fill="url(#paint28_linear)"/>
<path fill-rule="evenodd" clip-rule="evenodd" d="M586 164.423V160.423H584V164.423H580V166.423H584V170.423H586V166.423H590V164.423H586ZM586 134.423V130.423H584V134.423H580V136.423H584V140.423H586V136.423H590V134.423H586ZM556 164.423V160.423H554V164.423H550V166.423H554V170.423H556V166.423H560V164.423H556ZM556 134.423V130.423H554V134.423H550V136.423H554V140.423H556V136.423H560V134.423H556Z" fill="url(#paint29_linear)"/>
<path fill-rule="evenodd" clip-rule="evenodd" d="M46 224.423V220.423H44V224.423H40V226.423H44V230.423H46V226.423H50V224.423H46ZM46 194.423V190.423H44V194.423H40V196.423H44V200.423H46V196.423H50V194.423H46ZM16 224.423V220.423H14V224.423H10V226.423H14V230.423H16V226.423H20V224.423H16ZM16 194.423V190.423H14V194.423H10V196.423H14V200.423H16V196.423H20V194.423H16Z" fill="url(#paint30_linear)"/>
<path fill-rule="evenodd" clip-rule="evenodd" d="M106 224.423V220.423H104V224.423H100V226.423H104V230.423H106V226.423H110V224.423H106ZM106 194.423V190.423H104V194.423H100V196.423H104V200.423H106V196.423H110V194.423H106ZM76 224.423V220.423H74V224.423H70V226.423H74V230.423H76V226.423H80V224.423H76ZM76 194.423V190.423H74V194.423H70V196.423H74V200.423H76V196.423H80V194.423H76Z" fill="url(#paint31_linear)"/>
<path fill-rule="evenodd" clip-rule="evenodd" d="M166 224.423V220.423H164V224.423H160V226.423H164V230.423H166V226.423H170V224.423H166ZM166 194.423V190.423H164V194.423H160V196.423H164V200.423H166V196.423H170V194.423H166ZM136 224.423V220.423H134V224.423H130V226.423H134V230.423H136V226.423H140V224.423H136ZM136 194.423V190.423H134V194.423H130V196.423H134V200.423H136V196.423H140V194.423H136Z" fill="url(#paint32_linear)"/>
<path fill-rule="evenodd" clip-rule="evenodd" d="M226 224.423V220.423H224V224.423H220V226.423H224V230.423H226V226.423H230V224.423H226ZM226 194.423V190.423H224V194.423H220V196.423H224V200.423H226V196.423H230V194.423H226ZM196 224.423V220.423H194V224.423H190V226.423H194V230.423H196V226.423H200V224.423H196ZM196 194.423V190.423H194V194.423H190V196.423H194V200.423H196V196.423H200V194.423H196Z" fill="url(#paint33_linear)"/>
<path fill-rule="evenodd" clip-rule="evenodd" d="M286 224.423V220.423H284V224.423H280V226.423H284V230.423H286V226.423H290V224.423H286ZM286 194.423V190.423H284V194.423H280V196.423H284V200.423H286V196.423H290V194.423H286ZM256 224.423V220.423H254V224.423H250V226.423H254V230.423H256V226.423H260V224.423H256ZM256 194.423V190.423H254V194.423H250V196.423H254V200.423H256V196.423H260V194.423H256Z" fill="url(#paint34_linear)"/>
<path fill-rule="evenodd" clip-rule="evenodd" d="M346 224.423V220.423H344V224.423H340V226.423H344V230.423H346V226.423H350V224.423H346ZM346 194.423V190.423H344V194.423H340V196.423H344V200.423H346V196.423H350V194.423H346ZM316 224.423V220.423H314V224.423H310V226.423H314V230.423H316V226.423H320V224.423H316ZM316 194.423V190.423H314V194.423H310V196.423H314V200.423H316V196.423H320V194.423H316Z" fill="url(#paint35_linear)"/>
<path fill-rule="evenodd" clip-rule="evenodd" d="M406 224.423V220.423H404V224.423H400V226.423H404V230.423H406V226.423H410V224.423H406ZM406 194.423V190.423H404V194.423H400V196.423H404V200.423H406V196.423H410V194.423H406ZM376 224.423V220.423H374V224.423H370V226.423H374V230.423H376V226.423H380V224.423H376ZM376 194.423V190.423H374V194.423H370V196.423H374V200.423H376V196.423H380V194.423H376Z" fill="url(#paint36_linear)"/>
<path fill-rule="evenodd" clip-rule="evenodd" d="M466 224.423V220.423H464V224.423H460V226.423H464V230.423H466V226.423H470V224.423H466ZM466 194.423V190.423H464V194.423H460V196.423H464V200.423H466V196.423H470V194.423H466ZM436 224.423V220.423H434V224.423H430V226.423H434V230.423H436V226.423H440V224.423H436ZM436 194.423V190.423H434V194.423H430V196.423H434V200.423H436V196.423H440V194.423H436Z" fill="url(#paint37_linear)"/>
<path fill-rule="evenodd" clip-rule="evenodd" d="M526 224.423V220.423H524V224.423H520V226.423H524V230.423H526V226.423H530V224.423H526ZM526 194.423V190.423H524V194.423H520V196.423H524V200.423H526V196.423H530V194.423H526ZM496 224.423V220.423H494V224.423H490V226.423H494V230.423H496V226.423H500V224.423H496ZM496 194.423V190.423H494V194.423H490V196.423H494V200.423H496V196.423H500V194.423H496Z" fill="url(#paint38_linear)"/>
<path fill-rule="evenodd" clip-rule="evenodd" d="M586 224.423V220.423H584V224.423H580V226.423H584V230.423H586V226.423H590V224.423H586ZM586 194.423V190.423H584V194.423H580V196.423H584V200.423H586V196.423H590V194.423H586ZM556 224.423V220.423H554V224.423H550V226.423H554V230.423H556V226.423H560V224.423H556ZM556 194.423V190.423H554V194.423H550V196.423H554V200.423H556V196.423H560V194.423H556Z" fill="url(#paint39_linear)"/>
<path fill-rule="evenodd" clip-rule="evenodd" d="M46 284.423V280.423H44V284.423H40V286.423H44V290.423H46V286.423H50V284.423H46ZM46 254.423V250.423H44V254.423H40V256.423H44V260.423H46V256.423H50V254.423H46ZM16 284.423V280.423H14V284.423H10V286.423H14V290.423H16V286.423H20V284.423H16ZM16 254.423V250.423H14V254.423H10V256.423H14V260.423H16V256.423H20V254.423H16Z" fill="url(#paint40_linear)"/>
<path fill-rule="evenodd" clip-rule="evenodd" d="M106 284.423V280.423H104V284.423H100V286.423H104V290.423H106V286.423H110V284.423H106ZM106 254.423V250.423H104V254.423H100V256.423H104V260.423H106V256.423H110V254.423H106ZM76 284.423V280.423H74V284.423H70V286.423H74V290.423H76V286.423H80V284.423H76ZM76 254.423V250.423H74V254.423H70V256.423H74V260.423H76V256.423H80V254.423H76Z" fill="url(#paint41_linear)"/>
<path fill-rule="evenodd" clip-rule="evenodd" d="M166 284.423V280.423H164V284.423H160V286.423H164V290.423H166V286.423H170V284.423H166ZM166 254.423V250.423H164V254.423H160V256.423H164V260.423H166V256.423H170V254.423H166ZM136 284.423V280.423H134V284.423H130V286.423H134V290.423H136V286.423H140V284.423H136ZM136 254.423V250.423H134V254.423H130V256.423H134V260.423H136V256.423H140V254.423H136Z" fill="url(#paint42_linear)"/>
<path fill-rule="evenodd" clip-rule="evenodd" d="M226 284.423V280.423H224V284.423H220V286.423H224V290.423H226V286.423H230V284.423H226ZM226 254.423V250.423H224V254.423H220V256.423H224V260.423H226V256.423H230V254.423H226ZM196 284.423V280.423H194V284.423H190V286.423H194V290.423H196V286.423H200V284.423H196ZM196 254.423V250.423H194V254.423H190V256.423H194V260.423H196V256.423H200V254.423H196Z" fill="url(#paint43_linear)"/>
<path fill-rule="evenodd" clip-rule="evenodd" d="M286 284.423V280.423H284V284.423H280V286.423H284V290.423H286V286.423H290V284.423H286ZM286 254.423V250.423H284V254.423H280V256.423H284V260.423H286V256.423H290V254.423H286ZM256 284.423V280.423H254V284.423H250V286.423H254V290.423H256V286.423H260V284.423H256ZM256 254.423V250.423H254V254.423H250V256.423H254V260.423H256V256.423H260V254.423H256Z" fill="url(#paint44_linear)"/>
<path fill-rule="evenodd" clip-rule="evenodd" d="M346 284.423V280.423H344V284.423H340V286.423H344V290.423H346V286.423H350V284.423H346ZM346 254.423V250.423H344V254.423H340V256.423H344V260.423H346V256.423H350V254.423H346ZM316 284.423V280.423H314V284.423H310V286.423H314V290.423H316V286.423H320V284.423H316ZM316 254.423V250.423H314V254.423H310V256.423H314V260.423H316V256.423H320V254.423H316Z" fill="url(#paint45_linear)"/>
<path fill-rule="evenodd" clip-rule="evenodd" d="M406 284.423V280.423H404V284.423H400V286.423H404V290.423H406V286.423H410V284.423H406ZM406 254.423V250.423H404V254.423H400V256.423H404V260.423H406V256.423H410V254.423H406ZM376 284.423V280.423H374V284.423H370V286.423H374V290.423H376V286.423H380V284.423H376ZM376 254.423V250.423H374V254.423H370V256.423H374V260.423H376V256.423H380V254.423H376Z" fill="url(#paint46_linear)"/>
<path fill-rule="evenodd" clip-rule="evenodd" d="M466 284.423V280.423H464V284.423H460V286.423H464V290.423H466V286.423H470V284.423H466ZM466 254.423V250.423H464V254.423H460V256.423H464V260.423H466V256.423H470V254.423H466ZM436 284.423V280.423H434V284.423H430V286.423H434V290.423H436V286.423H440V284.423H436ZM436 254.423V250.423H434V254.423H430V256.423H434V260.423H436V256.423H440V254.423H436Z" fill="url(#paint47_linear)"/>
<path fill-rule="evenodd" clip-rule="evenodd" d="M526 284.423V280.423H524V284.423H520V286.423H524V290.423H526V286.423H530V284.423H526ZM526 254.423V250.423H524V254.423H520V256.423H524V260.423H526V256.423H530V254.423H526ZM496 284.423V280.423H494V284.423H490V286.423H494V290.423H496V286.423H500V284.423H496ZM496 254.423V250.423H494V254.423H490V256.423H494V260.423H496V256.423H500V254.423H496Z" fill="url(#paint48_linear)"/>
<path fill-rule="evenodd" clip-rule="evenodd" d="M586 284.423V280.423H584V284.423H580V286.423H584V290.423H586V286.423H590V284.423H586ZM586 254.423V250.423H584V254.423H580V256.423H584V260.423H586V256.423H590V254.423H586ZM556 284.423V280.423H554V284.423H550V286.423H554V290.423H556V286.423H560V284.423H556ZM556 254.423V250.423H554V254.423H550V256.423H554V260.423H556V256.423H560V254.423H556Z" fill="url(#paint49_linear)"/>
<path fill-rule="evenodd" clip-rule="evenodd" d="M46 344.423V340.423H44V344.423H40V346.423H44V350.423H46V346.423H50V344.423H46ZM46 314.423V310.423H44V314.423H40V316.423H44V320.423H46V316.423H50V314.423H46ZM16 344.423V340.423H14V344.423H10V346.423H14V350.423H16V346.423H20V344.423H16ZM16 314.423V310.423H14V314.423H10V316.423H14V320.423H16V316.423H20V314.423H16Z" fill="url(#paint50_linear)"/>
<path fill-rule="evenodd" clip-rule="evenodd" d="M106 344.423V340.423H104V344.423H100V346.423H104V350.423H106V346.423H110V344.423H106ZM106 314.423V310.423H104V314.423H100V316.423H104V320.423H106V316.423H110V314.423H106ZM76 344.423V340.423H74V344.423H70V346.423H74V350.423H76V346.423H80V344.423H76ZM76 314.423V310.423H74V314.423H70V316.423H74V320.423H76V316.423H80V314.423H76Z" fill="url(#paint51_linear)"/>
<path fill-rule="evenodd" clip-rule="evenodd" d="M166 344.423V340.423H164V344.423H160V346.423H164V350.423H166V346.423H170V344.423H166ZM166 314.423V310.423H164V314.423H160V316.423H164V320.423H166V316.423H170V314.423H166ZM136 344.423V340.423H134V344.423H130V346.423H134V350.423H136V346.423H140V344.423H136ZM136 314.423V310.423H134V314.423H130V316.423H134V320.423H136V316.423H140V314.423H136Z" fill="url(#paint52_linear)"/>
<path fill-rule="evenodd" clip-rule="evenodd" d="M226 344.423V340.423H224V344.423H220V346.423H224V350.423H226V346.423H230V344.423H226ZM226 314.423V310.423H224V314.423H220V316.423H224V320.423H226V316.423H230V314.423H226ZM196 344.423V340.423H194V344.423H190V346.423H194V350.423H196V346.423H200V344.423H196ZM196 314.423V310.423H194V314.423H190V316.423H194V320.423H196V316.423H200V314.423H196Z" fill="url(#paint53_linear)"/>
<path fill-rule="evenodd" clip-rule="evenodd" d="M286 344.423V340.423H284V344.423H280V346.423H284V350.423H286V346.423H290V344.423H286ZM286 314.423V310.423H284V314.423H280V316.423H284V320.423H286V316.423H290V314.423H286ZM256 344.423V340.423H254V344.423H250V346.423H254V350.423H256V346.423H260V344.423H256ZM256 314.423V310.423H254V314.423H250V316.423H254V320.423H256V316.423H260V314.423H256Z" fill="url(#paint54_linear)"/>
<path fill-rule="evenodd" clip-rule="evenodd" d="M346 344.423V340.423H344V344.423H340V346.423H344V350.423H346V346.423H350V344.423H346ZM346 314.423V310.423H344V314.423H340V316.423H344V320.423H346V316.423H350V314.423H346ZM316 344.423V340.423H314V344.423H310V346.423H314V350.423H316V346.423H320V344.423H316ZM316 314.423V310.423H314V314.423H310V316.423H314V320.423H316V316.423H320V314.423H316Z" fill="url(#paint55_linear)"/>
<path fill-rule="evenodd" clip-rule="evenodd" d="M406 344.423V340.423H404V344.423H400V346.423H404V350.423H406V346.423H410V344.423H406ZM406 314.423V310.423H404V314.423H400V316.423H404V320.423H406V316.423H410V314.423H406ZM376 344.423V340.423H374V344.423H370V346.423H374V350.423H376V346.423H380V344.423H376ZM376 314.423V310.423H374V314.423H370V316.423H374V320.423H376V316.423H380V314.423H376Z" fill="url(#paint56_linear)"/>
<path fill-rule="evenodd" clip-rule="evenodd" d="M466 344.423V340.423H464V344.423H460V346.423H464V350.423H466V346.423H470V344.423H466ZM466 314.423V310.423H464V314.423H460V316.423H464V320.423H466V316.423H470V314.423H466ZM436 344.423V340.423H434V344.423H430V346.423H434V350.423H436V346.423H440V344.423H436ZM436 314.423V310.423H434V314.423H430V316.423H434V320.423H436V316.423H440V314.423H436Z" fill="url(#paint57_linear)"/>
<path fill-rule="evenodd" clip-rule="evenodd" d="M526 344.423V340.423H524V344.423H520V346.423H524V350.423H526V346.423H530V344.423H526ZM526 314.423V310.423H524V314.423H520V316.423H524V320.423H526V316.423H530V314.423H526ZM496 344.423V340.423H494V344.423H490V346.423H494V350.423H496V346.423H500V344.423H496ZM496 314.423V310.423H494V314.423H490V316.423H494V320.423H496V316.423H500V314.423H496Z" fill="url(#paint58_linear)"/>
<path fill-rule="evenodd" clip-rule="evenodd" d="M586 344.423V340.423H584V344.423H580V346.423H584V350.423H586V346.423H590V344.423H586ZM586 314.423V310.423H584V314.423H580V316.423H584V320.423H586V316.423H590V314.423H586ZM556 344.423V340.423H554V344.423H550V346.423H554V350.423H556V346.423H560V344.423H556ZM556 314.423V310.423H554V314.423H550V316.423H554V320.423H556V316.423H560V314.423H556Z" fill="url(#paint59_linear)"/>
<path fill-rule="evenodd" clip-rule="evenodd" d="M646 44.4229V40.4229H644V44.4229H640V46.4229H644V50.4229H646V46.4229H650V44.4229H646ZM646 14.4229V10.4229H644V14.4229H640V16.4229H644V20.4229H646V16.4229H650V14.4229H646ZM616 44.4229V40.4229H614V44.4229H610V46.4229H614V50.4229H616V46.4229H620V44.4229H616ZM616 14.4229V10.4229H614V14.4229H610V16.4229H614V20.4229H616V16.4229H620V14.4229H616Z" fill="url(#paint60_linear)"/>
<path fill-rule="evenodd" clip-rule="evenodd" d="M706 44.4229V40.4229H704V44.4229H700V46.4229H704V50.4229H706V46.4229H710V44.4229H706ZM706 14.4229V10.4229H704V14.4229H700V16.4229H704V20.4229H706V16.4229H710V14.4229H706ZM676 44.4229V40.4229H674V44.4229H670V46.4229H674V50.4229H676V46.4229H680V44.4229H676ZM676 14.4229V10.4229H674V14.4229H670V16.4229H674V20.4229H676V16.4229H680V14.4229H676Z" fill="url(#paint61_linear)"/>
<path fill-rule="evenodd" clip-rule="evenodd" d="M766 44.4229V40.4229H764V44.4229H760V46.4229H764V50.4229H766V46.4229H770V44.4229H766ZM766 14.4229V10.4229H764V14.4229H760V16.4229H764V20.4229H766V16.4229H770V14.4229H766ZM736 44.4229V40.4229H734V44.4229H730V46.4229H734V50.4229H736V46.4229H740V44.4229H736ZM736 14.4229V10.4229H734V14.4229H730V16.4229H734V20.4229H736V16.4229H740V14.4229H736Z" fill="url(#paint62_linear)"/>
<path fill-rule="evenodd" clip-rule="evenodd" d="M826 44.4229V40.4229H824V44.4229H820V46.4229H824V50.4229H826V46.4229H830V44.4229H826ZM826 14.4229V10.4229H824V14.4229H820V16.4229H824V20.4229H826V16.4229H830V14.4229H826ZM796 44.4229V40.4229H794V44.4229H790V46.4229H794V50.4229H796V46.4229H800V44.4229H796ZM796 14.4229V10.4229H794V14.4229H790V16.4229H794V20.4229H796V16.4229H800V14.4229H796Z" fill="url(#paint63_linear)"/>
<path fill-rule="evenodd" clip-rule="evenodd" d="M886 44.4229V40.4229H884V44.4229H880V46.4229H884V50.4229H886V46.4229H890V44.4229H886ZM886 14.4229V10.4229H884V14.4229H880V16.4229H884V20.4229H886V16.4229H890V14.4229H886ZM856 44.4229V40.4229H854V44.4229H850V46.4229H854V50.4229H856V46.4229H860V44.4229H856ZM856 14.4229V10.4229H854V14.4229H850V16.4229H854V20.4229H856V16.4229H860V14.4229H856Z" fill="url(#paint64_linear)"/>
<path fill-rule="evenodd" clip-rule="evenodd" d="M946 44.4229V40.4229H944V44.4229H940V46.4229H944V50.4229H946V46.4229H950V44.4229H946ZM946 14.4229V10.4229H944V14.4229H940V16.4229H944V20.4229H946V16.4229H950V14.4229H946ZM916 44.4229V40.4229H914V44.4229H910V46.4229H914V50.4229H916V46.4229H920V44.4229H916ZM916 14.4229V10.4229H914V14.4229H910V16.4229H914V20.4229H916V16.4229H920V14.4229H916Z" fill="url(#paint65_linear)"/>
<path fill-rule="evenodd" clip-rule="evenodd" d="M1006 44.4229V40.4229H1004V44.4229H1000V46.4229H1004V50.4229H1006V46.4229H1010V44.4229H1006ZM1006 14.4229V10.4229H1004V14.4229H1000V16.4229H1004V20.4229H1006V16.4229H1010V14.4229H1006ZM976 44.4229V40.4229H974V44.4229H970V46.4229H974V50.4229H976V46.4229H980V44.4229H976ZM976 14.4229V10.4229H974V14.4229H970V16.4229H974V20.4229H976V16.4229H980V14.4229H976Z" fill="url(#paint66_linear)"/>
<path fill-rule="evenodd" clip-rule="evenodd" d="M1066 44.4229V40.4229H1064V44.4229H1060V46.4229H1064V50.4229H1066V46.4229H1070V44.4229H1066ZM1066 14.4229V10.4229H1064V14.4229H1060V16.4229H1064V20.4229H1066V16.4229H1070V14.4229H1066ZM1036 44.4229V40.4229H1034V44.4229H1030V46.4229H1034V50.4229H1036V46.4229H1040V44.4229H1036ZM1036 14.4229V10.4229H1034V14.4229H1030V16.4229H1034V20.4229H1036V16.4229H1040V14.4229H1036Z" fill="url(#paint67_linear)"/>
<path fill-rule="evenodd" clip-rule="evenodd" d="M1126 44.4229V40.4229H1124V44.4229H1120V46.4229H1124V50.4229H1126V46.4229H1130V44.4229H1126ZM1126 14.4229V10.4229H1124V14.4229H1120V16.4229H1124V20.4229H1126V16.4229H1130V14.4229H1126ZM1096 44.4229V40.4229H1094V44.4229H1090V46.4229H1094V50.4229H1096V46.4229H1100V44.4229H1096ZM1096 14.4229V10.4229H1094V14.4229H1090V16.4229H1094V20.4229H1096V16.4229H1100V14.4229H1096Z" fill="url(#paint68_linear)"/>
<path fill-rule="evenodd" clip-rule="evenodd" d="M1186 44.4229V40.4229H1184V44.4229H1180V46.4229H1184V50.4229H1186V46.4229H1190V44.4229H1186ZM1186 14.4229V10.4229H1184V14.4229H1180V16.4229H1184V20.4229H1186V16.4229H1190V14.4229H1186ZM1156 44.4229V40.4229H1154V44.4229H1150V46.4229H1154V50.4229H1156V46.4229H1160V44.4229H1156ZM1156 14.4229V10.4229H1154V14.4229H1150V16.4229H1154V20.4229H1156V16.4229H1160V14.4229H1156Z" fill="url(#paint69_linear)"/>
<path fill-rule="evenodd" clip-rule="evenodd" d="M646 104.423V100.423H644V104.423H640V106.423H644V110.423H646V106.423H650V104.423H646ZM646 74.4229V70.4229H644V74.4229H640V76.4229H644V80.4229H646V76.4229H650V74.4229H646ZM616 104.423V100.423H614V104.423H610V106.423H614V110.423H616V106.423H620V104.423H616ZM616 74.4229V70.4229H614V74.4229H610V76.4229H614V80.4229H616V76.4229H620V74.4229H616Z" fill="url(#paint70_linear)"/>
<path fill-rule="evenodd" clip-rule="evenodd" d="M706 104.423V100.423H704V104.423H700V106.423H704V110.423H706V106.423H710V104.423H706ZM706 74.4229V70.4229H704V74.4229H700V76.4229H704V80.4229H706V76.4229H710V74.4229H706ZM676 104.423V100.423H674V104.423H670V106.423H674V110.423H676V106.423H680V104.423H676ZM676 74.4229V70.4229H674V74.4229H670V76.4229H674V80.4229H676V76.4229H680V74.4229H676Z" fill="url(#paint71_linear)"/>
<path fill-rule="evenodd" clip-rule="evenodd" d="M766 104.423V100.423H764V104.423H760V106.423H764V110.423H766V106.423H770V104.423H766ZM766 74.4229V70.4229H764V74.4229H760V76.4229H764V80.4229H766V76.4229H770V74.4229H766ZM736 104.423V100.423H734V104.423H730V106.423H734V110.423H736V106.423H740V104.423H736ZM736 74.4229V70.4229H734V74.4229H730V76.4229H734V80.4229H736V76.4229H740V74.4229H736Z" fill="url(#paint72_linear)"/>
<path fill-rule="evenodd" clip-rule="evenodd" d="M826 104.423V100.423H824V104.423H820V106.423H824V110.423H826V106.423H830V104.423H826ZM826 74.4229V70.4229H824V74.4229H820V76.4229H824V80.4229H826V76.4229H830V74.4229H826ZM796 104.423V100.423H794V104.423H790V106.423H794V110.423H796V106.423H800V104.423H796ZM796 74.4229V70.4229H794V74.4229H790V76.4229H794V80.4229H796V76.4229H800V74.4229H796Z" fill="url(#paint73_linear)"/>
<path fill-rule="evenodd" clip-rule="evenodd" d="M886 104.423V100.423H884V104.423H880V106.423H884V110.423H886V106.423H890V104.423H886ZM886 74.4229V70.4229H884V74.4229H880V76.4229H884V80.4229H886V76.4229H890V74.4229H886ZM856 104.423V100.423H854V104.423H850V106.423H854V110.423H856V106.423H860V104.423H856ZM856 74.4229V70.4229H854V74.4229H850V76.4229H854V80.4229H856V76.4229H860V74.4229H856Z" fill="url(#paint74_linear)"/>
<path fill-rule="evenodd" clip-rule="evenodd" d="M946 104.423V100.423H944V104.423H940V106.423H944V110.423H946V106.423H950V104.423H946ZM946 74.4229V70.4229H944V74.4229H940V76.4229H944V80.4229H946V76.4229H950V74.4229H946ZM916 104.423V100.423H914V104.423H910V106.423H914V110.423H916V106.423H920V104.423H916ZM916 74.4229V70.4229H914V74.4229H910V76.4229H914V80.4229H916V76.4229H920V74.4229H916Z" fill="url(#paint75_linear)"/>
<path fill-rule="evenodd" clip-rule="evenodd" d="M1006 104.423V100.423H1004V104.423H1000V106.423H1004V110.423H1006V106.423H1010V104.423H1006ZM1006 74.4229V70.4229H1004V74.4229H1000V76.4229H1004V80.4229H1006V76.4229H1010V74.4229H1006ZM976 104.423V100.423H974V104.423H970V106.423H974V110.423H976V106.423H980V104.423H976ZM976 74.4229V70.4229H974V74.4229H970V76.4229H974V80.4229H976V76.4229H980V74.4229H976Z" fill="url(#paint76_linear)"/>
<path fill-rule="evenodd" clip-rule="evenodd" d="M1066 104.423V100.423H1064V104.423H1060V106.423H1064V110.423H1066V106.423H1070V104.423H1066ZM1066 74.4229V70.4229H1064V74.4229H1060V76.4229H1064V80.4229H1066V76.4229H1070V74.4229H1066ZM1036 104.423V100.423H1034V104.423H1030V106.423H1034V110.423H1036V106.423H1040V104.423H1036ZM1036 74.4229V70.4229H1034V74.4229H1030V76.4229H1034V80.4229H1036V76.4229H1040V74.4229H1036Z" fill="url(#paint77_linear)"/>
<path fill-rule="evenodd" clip-rule="evenodd" d="M1126 104.423V100.423H1124V104.423H1120V106.423H1124V110.423H1126V106.423H1130V104.423H1126ZM1126 74.4229V70.4229H1124V74.4229H1120V76.4229H1124V80.4229H1126V76.4229H1130V74.4229H1126ZM1096 104.423V100.423H1094V104.423H1090V106.423H1094V110.423H1096V106.423H1100V104.423H1096ZM1096 74.4229V70.4229H1094V74.4229H1090V76.4229H1094V80.4229H1096V76.4229H1100V74.4229H1096Z" fill="url(#paint78_linear)"/>
<path fill-rule="evenodd" clip-rule="evenodd" d="M1186 104.423V100.423H1184V104.423H1180V106.423H1184V110.423H1186V106.423H1190V104.423H1186ZM1186 74.4229V70.4229H1184V74.4229H1180V76.4229H1184V80.4229H1186V76.4229H1190V74.4229H1186ZM1156 104.423V100.423H1154V104.423H1150V106.423H1154V110.423H1156V106.423H1160V104.423H1156ZM1156 74.4229V70.4229H1154V74.4229H1150V76.4229H1154V80.4229H1156V76.4229H1160V74.4229H1156Z" fill="url(#paint79_linear)"/>
<path fill-rule="evenodd" clip-rule="evenodd" d="M646 164.423V160.423H644V164.423H640V166.423H644V170.423H646V166.423H650V164.423H646ZM646 134.423V130.423H644V134.423H640V136.423H644V140.423H646V136.423H650V134.423H646ZM616 164.423V160.423H614V164.423H610V166.423H614V170.423H616V166.423H620V164.423H616ZM616 134.423V130.423H614V134.423H610V136.423H614V140.423H616V136.423H620V134.423H616Z" fill="url(#paint80_linear)"/>
<path fill-rule="evenodd" clip-rule="evenodd" d="M706 164.423V160.423H704V164.423H700V166.423H704V170.423H706V166.423H710V164.423H706ZM706 134.423V130.423H704V134.423H700V136.423H704V140.423H706V136.423H710V134.423H706ZM676 164.423V160.423H674V164.423H670V166.423H674V170.423H676V166.423H680V164.423H676ZM676 134.423V130.423H674V134.423H670V136.423H674V140.423H676V136.423H680V134.423H676Z" fill="url(#paint81_linear)"/>
<path fill-rule="evenodd" clip-rule="evenodd" d="M766 164.423V160.423H764V164.423H760V166.423H764V170.423H766V166.423H770V164.423H766ZM766 134.423V130.423H764V134.423H760V136.423H764V140.423H766V136.423H770V134.423H766ZM736 164.423V160.423H734V164.423H730V166.423H734V170.423H736V166.423H740V164.423H736ZM736 134.423V130.423H734V134.423H730V136.423H734V140.423H736V136.423H740V134.423H736Z" fill="url(#paint82_linear)"/>
<path fill-rule="evenodd" clip-rule="evenodd" d="M826 164.423V160.423H824V164.423H820V166.423H824V170.423H826V166.423H830V164.423H826ZM826 134.423V130.423H824V134.423H820V136.423H824V140.423H826V136.423H830V134.423H826ZM796 164.423V160.423H794V164.423H790V166.423H794V170.423H796V166.423H800V164.423H796ZM796 134.423V130.423H794V134.423H790V136.423H794V140.423H796V136.423H800V134.423H796Z" fill="url(#paint83_linear)"/>
<path fill-rule="evenodd" clip-rule="evenodd" d="M886 164.423V160.423H884V164.423H880V166.423H884V170.423H886V166.423H890V164.423H886ZM886 134.423V130.423H884V134.423H880V136.423H884V140.423H886V136.423H890V134.423H886ZM856 164.423V160.423H854V164.423H850V166.423H854V170.423H856V166.423H860V164.423H856ZM856 134.423V130.423H854V134.423H850V136.423H854V140.423H856V136.423H860V134.423H856Z" fill="url(#paint84_linear)"/>
<path fill-rule="evenodd" clip-rule="evenodd" d="M946 164.423V160.423H944V164.423H940V166.423H944V170.423H946V166.423H950V164.423H946ZM946 134.423V130.423H944V134.423H940V136.423H944V140.423H946V136.423H950V134.423H946ZM916 164.423V160.423H914V164.423H910V166.423H914V170.423H916V166.423H920V164.423H916ZM916 134.423V130.423H914V134.423H910V136.423H914V140.423H916V136.423H920V134.423H916Z" fill="url(#paint85_linear)"/>
<path fill-rule="evenodd" clip-rule="evenodd" d="M1006 164.423V160.423H1004V164.423H1000V166.423H1004V170.423H1006V166.423H1010V164.423H1006ZM1006 134.423V130.423H1004V134.423H1000V136.423H1004V140.423H1006V136.423H1010V134.423H1006ZM976 164.423V160.423H974V164.423H970V166.423H974V170.423H976V166.423H980V164.423H976ZM976 134.423V130.423H974V134.423H970V136.423H974V140.423H976V136.423H980V134.423H976Z" fill="url(#paint86_linear)"/>
<path fill-rule="evenodd" clip-rule="evenodd" d="M1066 164.423V160.423H1064V164.423H1060V166.423H1064V170.423H1066V166.423H1070V164.423H1066ZM1066 134.423V130.423H1064V134.423H1060V136.423H1064V140.423H1066V136.423H1070V134.423H1066ZM1036 164.423V160.423H1034V164.423H1030V166.423H1034V170.423H1036V166.423H1040V164.423H1036ZM1036 134.423V130.423H1034V134.423H1030V136.423H1034V140.423H1036V136.423H1040V134.423H1036Z" fill="url(#paint87_linear)"/>
<path fill-rule="evenodd" clip-rule="evenodd" d="M1126 164.423V160.423H1124V164.423H1120V166.423H1124V170.423H1126V166.423H1130V164.423H1126ZM1126 134.423V130.423H1124V134.423H1120V136.423H1124V140.423H1126V136.423H1130V134.423H1126ZM1096 164.423V160.423H1094V164.423H1090V166.423H1094V170.423H1096V166.423H1100V164.423H1096ZM1096 134.423V130.423H1094V134.423H1090V136.423H1094V140.423H1096V136.423H1100V134.423H1096Z" fill="url(#paint88_linear)"/>
<path fill-rule="evenodd" clip-rule="evenodd" d="M1186 164.423V160.423H1184V164.423H1180V166.423H1184V170.423H1186V166.423H1190V164.423H1186ZM1186 134.423V130.423H1184V134.423H1180V136.423H1184V140.423H1186V136.423H1190V134.423H1186ZM1156 164.423V160.423H1154V164.423H1150V166.423H1154V170.423H1156V166.423H1160V164.423H1156ZM1156 134.423V130.423H1154V134.423H1150V136.423H1154V140.423H1156V136.423H1160V134.423H1156Z" fill="url(#paint89_linear)"/>
<path fill-rule="evenodd" clip-rule="evenodd" d="M646 224.423V220.423H644V224.423H640V226.423H644V230.423H646V226.423H650V224.423H646ZM646 194.423V190.423H644V194.423H640V196.423H644V200.423H646V196.423H650V194.423H646ZM616 224.423V220.423H614V224.423H610V226.423H614V230.423H616V226.423H620V224.423H616ZM616 194.423V190.423H614V194.423H610V196.423H614V200.423H616V196.423H620V194.423H616Z" fill="url(#paint90_linear)"/>
<path fill-rule="evenodd" clip-rule="evenodd" d="M706 224.423V220.423H704V224.423H700V226.423H704V230.423H706V226.423H710V224.423H706ZM706 194.423V190.423H704V194.423H700V196.423H704V200.423H706V196.423H710V194.423H706ZM676 224.423V220.423H674V224.423H670V226.423H674V230.423H676V226.423H680V224.423H676ZM676 194.423V190.423H674V194.423H670V196.423H674V200.423H676V196.423H680V194.423H676Z" fill="url(#paint91_linear)"/>
<path fill-rule="evenodd" clip-rule="evenodd" d="M766 224.423V220.423H764V224.423H760V226.423H764V230.423H766V226.423H770V224.423H766ZM766 194.423V190.423H764V194.423H760V196.423H764V200.423H766V196.423H770V194.423H766ZM736 224.423V220.423H734V224.423H730V226.423H734V230.423H736V226.423H740V224.423H736ZM736 194.423V190.423H734V194.423H730V196.423H734V200.423H736V196.423H740V194.423H736Z" fill="url(#paint92_linear)"/>
<path fill-rule="evenodd" clip-rule="evenodd" d="M826 224.423V220.423H824V224.423H820V226.423H824V230.423H826V226.423H830V224.423H826ZM826 194.423V190.423H824V194.423H820V196.423H824V200.423H826V196.423H830V194.423H826ZM796 224.423V220.423H794V224.423H790V226.423H794V230.423H796V226.423H800V224.423H796ZM796 194.423V190.423H794V194.423H790V196.423H794V200.423H796V196.423H800V194.423H796Z" fill="url(#paint93_linear)"/>
<path fill-rule="evenodd" clip-rule="evenodd" d="M886 224.423V220.423H884V224.423H880V226.423H884V230.423H886V226.423H890V224.423H886ZM886 194.423V190.423H884V194.423H880V196.423H884V200.423H886V196.423H890V194.423H886ZM856 224.423V220.423H854V224.423H850V226.423H854V230.423H856V226.423H860V224.423H856ZM856 194.423V190.423H854V194.423H850V196.423H854V200.423H856V196.423H860V194.423H856Z" fill="url(#paint94_linear)"/>
<path fill-rule="evenodd" clip-rule="evenodd" d="M946 224.423V220.423H944V224.423H940V226.423H944V230.423H946V226.423H950V224.423H946ZM946 194.423V190.423H944V194.423H940V196.423H944V200.423H946V196.423H950V194.423H946ZM916 224.423V220.423H914V224.423H910V226.423H914V230.423H916V226.423H920V224.423H916ZM916 194.423V190.423H914V194.423H910V196.423H914V200.423H916V196.423H920V194.423H916Z" fill="url(#paint95_linear)"/>
<path fill-rule="evenodd" clip-rule="evenodd" d="M1006 224.423V220.423H1004V224.423H1000V226.423H1004V230.423H1006V226.423H1010V224.423H1006ZM1006 194.423V190.423H1004V194.423H1000V196.423H1004V200.423H1006V196.423H1010V194.423H1006ZM976 224.423V220.423H974V224.423H970V226.423H974V230.423H976V226.423H980V224.423H976ZM976 194.423V190.423H974V194.423H970V196.423H974V200.423H976V196.423H980V194.423H976Z" fill="url(#paint96_linear)"/>
<path fill-rule="evenodd" clip-rule="evenodd" d="M1066 224.423V220.423H1064V224.423H1060V226.423H1064V230.423H1066V226.423H1070V224.423H1066ZM1066 194.423V190.423H1064V194.423H1060V196.423H1064V200.423H1066V196.423H1070V194.423H1066ZM1036 224.423V220.423H1034V224.423H1030V226.423H1034V230.423H1036V226.423H1040V224.423H1036ZM1036 194.423V190.423H1034V194.423H1030V196.423H1034V200.423H1036V196.423H1040V194.423H1036Z" fill="url(#paint97_linear)"/>
<path fill-rule="evenodd" clip-rule="evenodd" d="M1126 224.423V220.423H1124V224.423H1120V226.423H1124V230.423H1126V226.423H1130V224.423H1126ZM1126 194.423V190.423H1124V194.423H1120V196.423H1124V200.423H1126V196.423H1130V194.423H1126ZM1096 224.423V220.423H1094V224.423H1090V226.423H1094V230.423H1096V226.423H1100V224.423H1096ZM1096 194.423V190.423H1094V194.423H1090V196.423H1094V200.423H1096V196.423H1100V194.423H1096Z" fill="url(#paint98_linear)"/>
<path fill-rule="evenodd" clip-rule="evenodd" d="M1186 224.423V220.423H1184V224.423H1180V226.423H1184V230.423H1186V226.423H1190V224.423H1186ZM1186 194.423V190.423H1184V194.423H1180V196.423H1184V200.423H1186V196.423H1190V194.423H1186ZM1156 224.423V220.423H1154V224.423H1150V226.423H1154V230.423H1156V226.423H1160V224.423H1156ZM1156 194.423V190.423H1154V194.423H1150V196.423H1154V200.423H1156V196.423H1160V194.423H1156Z" fill="url(#paint99_linear)"/>
<path fill-rule="evenodd" clip-rule="evenodd" d="M646 284.423V280.423H644V284.423H640V286.423H644V290.423H646V286.423H650V284.423H646ZM646 254.423V250.423H644V254.423H640V256.423H644V260.423H646V256.423H650V254.423H646ZM616 284.423V280.423H614V284.423H610V286.423H614V290.423H616V286.423H620V284.423H616ZM616 254.423V250.423H614V254.423H610V256.423H614V260.423H616V256.423H620V254.423H616Z" fill="url(#paint100_linear)"/>
<path fill-rule="evenodd" clip-rule="evenodd" d="M706 284.423V280.423H704V284.423H700V286.423H704V290.423H706V286.423H710V284.423H706ZM706 254.423V250.423H704V254.423H700V256.423H704V260.423H706V256.423H710V254.423H706ZM676 284.423V280.423H674V284.423H670V286.423H674V290.423H676V286.423H680V284.423H676ZM676 254.423V250.423H674V254.423H670V256.423H674V260.423H676V256.423H680V254.423H676Z" fill="url(#paint101_linear)"/>
<path fill-rule="evenodd" clip-rule="evenodd" d="M766 284.423V280.423H764V284.423H760V286.423H764V290.423H766V286.423H770V284.423H766ZM766 254.423V250.423H764V254.423H760V256.423H764V260.423H766V256.423H770V254.423H766ZM736 284.423V280.423H734V284.423H730V286.423H734V290.423H736V286.423H740V284.423H736ZM736 254.423V250.423H734V254.423H730V256.423H734V260.423H736V256.423H740V254.423H736Z" fill="url(#paint102_linear)"/>
<path fill-rule="evenodd" clip-rule="evenodd" d="M826 284.423V280.423H824V284.423H820V286.423H824V290.423H826V286.423H830V284.423H826ZM826 254.423V250.423H824V254.423H820V256.423H824V260.423H826V256.423H830V254.423H826ZM796 284.423V280.423H794V284.423H790V286.423H794V290.423H796V286.423H800V284.423H796ZM796 254.423V250.423H794V254.423H790V256.423H794V260.423H796V256.423H800V254.423H796Z" fill="url(#paint103_linear)"/>
<path fill-rule="evenodd" clip-rule="evenodd" d="M886 284.423V280.423H884V284.423H880V286.423H884V290.423H886V286.423H890V284.423H886ZM886 254.423V250.423H884V254.423H880V256.423H884V260.423H886V256.423H890V254.423H886ZM856 284.423V280.423H854V284.423H850V286.423H854V290.423H856V286.423H860V284.423H856ZM856 254.423V250.423H854V254.423H850V256.423H854V260.423H856V256.423H860V254.423H856Z" fill="url(#paint104_linear)"/>
<path fill-rule="evenodd" clip-rule="evenodd" d="M946 284.423V280.423H944V284.423H940V286.423H944V290.423H946V286.423H950V284.423H946ZM946 254.423V250.423H944V254.423H940V256.423H944V260.423H946V256.423H950V254.423H946ZM916 284.423V280.423H914V284.423H910V286.423H914V290.423H916V286.423H920V284.423H916ZM916 254.423V250.423H914V254.423H910V256.423H914V260.423H916V256.423H920V254.423H916Z" fill="url(#paint105_linear)"/>
<path fill-rule="evenodd" clip-rule="evenodd" d="M1006 284.423V280.423H1004V284.423H1000V286.423H1004V290.423H1006V286.423H1010V284.423H1006ZM1006 254.423V250.423H1004V254.423H1000V256.423H1004V260.423H1006V256.423H1010V254.423H1006ZM976 284.423V280.423H974V284.423H970V286.423H974V290.423H976V286.423H980V284.423H976ZM976 254.423V250.423H974V254.423H970V256.423H974V260.423H976V256.423H980V254.423H976Z" fill="url(#paint106_linear)"/>
<path fill-rule="evenodd" clip-rule="evenodd" d="M1066 284.423V280.423H1064V284.423H1060V286.423H1064V290.423H1066V286.423H1070V284.423H1066ZM1066 254.423V250.423H1064V254.423H1060V256.423H1064V260.423H1066V256.423H1070V254.423H1066ZM1036 284.423V280.423H1034V284.423H1030V286.423H1034V290.423H1036V286.423H1040V284.423H1036ZM1036 254.423V250.423H1034V254.423H1030V256.423H1034V260.423H1036V256.423H1040V254.423H1036Z" fill="url(#paint107_linear)"/>
<path fill-rule="evenodd" clip-rule="evenodd" d="M1126 284.423V280.423H1124V284.423H1120V286.423H1124V290.423H1126V286.423H1130V284.423H1126ZM1126 254.423V250.423H1124V254.423H1120V256.423H1124V260.423H1126V256.423H1130V254.423H1126ZM1096 284.423V280.423H1094V284.423H1090V286.423H1094V290.423H1096V286.423H1100V284.423H1096ZM1096 254.423V250.423H1094V254.423H1090V256.423H1094V260.423H1096V256.423H1100V254.423H1096Z" fill="url(#paint108_linear)"/>
<path fill-rule="evenodd" clip-rule="evenodd" d="M1186 284.423V280.423H1184V284.423H1180V286.423H1184V290.423H1186V286.423H1190V284.423H1186ZM1186 254.423V250.423H1184V254.423H1180V256.423H1184V260.423H1186V256.423H1190V254.423H1186ZM1156 284.423V280.423H1154V284.423H1150V286.423H1154V290.423H1156V286.423H1160V284.423H1156ZM1156 254.423V250.423H1154V254.423H1150V256.423H1154V260.423H1156V256.423H1160V254.423H1156Z" fill="url(#paint109_linear)"/>
<path fill-rule="evenodd" clip-rule="evenodd" d="M646 344.423V340.423H644V344.423H640V346.423H644V350.423H646V346.423H650V344.423H646ZM646 314.423V310.423H644V314.423H640V316.423H644V320.423H646V316.423H650V314.423H646ZM616 344.423V340.423H614V344.423H610V346.423H614V350.423H616V346.423H620V344.423H616ZM616 314.423V310.423H614V314.423H610V316.423H614V320.423H616V316.423H620V314.423H616Z" fill="url(#paint110_linear)"/>
<path fill-rule="evenodd" clip-rule="evenodd" d="M706 344.423V340.423H704V344.423H700V346.423H704V350.423H706V346.423H710V344.423H706ZM706 314.423V310.423H704V314.423H700V316.423H704V320.423H706V316.423H710V314.423H706ZM676 344.423V340.423H674V344.423H670V346.423H674V350.423H676V346.423H680V344.423H676ZM676 314.423V310.423H674V314.423H670V316.423H674V320.423H676V316.423H680V314.423H676Z" fill="url(#paint111_linear)"/>
<path fill-rule="evenodd" clip-rule="evenodd" d="M766 344.423V340.423H764V344.423H760V346.423H764V350.423H766V346.423H770V344.423H766ZM766 314.423V310.423H764V314.423H760V316.423H764V320.423H766V316.423H770V314.423H766ZM736 344.423V340.423H734V344.423H730V346.423H734V350.423H736V346.423H740V344.423H736ZM736 314.423V310.423H734V314.423H730V316.423H734V320.423H736V316.423H740V314.423H736Z" fill="url(#paint112_linear)"/>
<path fill-rule="evenodd" clip-rule="evenodd" d="M826 344.423V340.423H824V344.423H820V346.423H824V350.423H826V346.423H830V344.423H826ZM826 314.423V310.423H824V314.423H820V316.423H824V320.423H826V316.423H830V314.423H826ZM796 344.423V340.423H794V344.423H790V346.423H794V350.423H796V346.423H800V344.423H796ZM796 314.423V310.423H794V314.423H790V316.423H794V320.423H796V316.423H800V314.423H796Z" fill="url(#paint113_linear)"/>
<path fill-rule="evenodd" clip-rule="evenodd" d="M886 344.423V340.423H884V344.423H880V346.423H884V350.423H886V346.423H890V344.423H886ZM886 314.423V310.423H884V314.423H880V316.423H884V320.423H886V316.423H890V314.423H886ZM856 344.423V340.423H854V344.423H850V346.423H854V350.423H856V346.423H860V344.423H856ZM856 314.423V310.423H854V314.423H850V316.423H854V320.423H856V316.423H860V314.423H856Z" fill="url(#paint114_linear)"/>
<path fill-rule="evenodd" clip-rule="evenodd" d="M946 344.423V340.423H944V344.423H940V346.423H944V350.423H946V346.423H950V344.423H946ZM946 314.423V310.423H944V314.423H940V316.423H944V320.423H946V316.423H950V314.423H946ZM916 344.423V340.423H914V344.423H910V346.423H914V350.423H916V346.423H920V344.423H916ZM916 314.423V310.423H914V314.423H910V316.423H914V320.423H916V316.423H920V314.423H916Z" fill="url(#paint115_linear)"/>
<path fill-rule="evenodd" clip-rule="evenodd" d="M1006 344.423V340.423H1004V344.423H1000V346.423H1004V350.423H1006V346.423H1010V344.423H1006ZM1006 314.423V310.423H1004V314.423H1000V316.423H1004V320.423H1006V316.423H1010V314.423H1006ZM976 344.423V340.423H974V344.423H970V346.423H974V350.423H976V346.423H980V344.423H976ZM976 314.423V310.423H974V314.423H970V316.423H974V320.423H976V316.423H980V314.423H976Z" fill="url(#paint116_linear)"/>
<path fill-rule="evenodd" clip-rule="evenodd" d="M1066 344.423V340.423H1064V344.423H1060V346.423H1064V350.423H1066V346.423H1070V344.423H1066ZM1066 314.423V310.423H1064V314.423H1060V316.423H1064V320.423H1066V316.423H1070V314.423H1066ZM1036 344.423V340.423H1034V344.423H1030V346.423H1034V350.423H1036V346.423H1040V344.423H1036ZM1036 314.423V310.423H1034V314.423H1030V316.423H1034V320.423H1036V316.423H1040V314.423H1036Z" fill="url(#paint117_linear)"/>
<path fill-rule="evenodd" clip-rule="evenodd" d="M1126 344.423V340.423H1124V344.423H1120V346.423H1124V350.423H1126V346.423H1130V344.423H1126ZM1126 314.423V310.423H1124V314.423H1120V316.423H1124V320.423H1126V316.423H1130V314.423H1126ZM1096 344.423V340.423H1094V344.423H1090V346.423H1094V350.423H1096V346.423H1100V344.423H1096ZM1096 314.423V310.423H1094V314.423H1090V316.423H1094V320.423H1096V316.423H1100V314.423H1096Z" fill="url(#paint118_linear)"/>
<path fill-rule="evenodd" clip-rule="evenodd" d="M1186 344.423V340.423H1184V344.423H1180V346.423H1184V350.423H1186V346.423H1190V344.423H1186ZM1186 314.423V310.423H1184V314.423H1180V316.423H1184V320.423H1186V316.423H1190V314.423H1186ZM1156 344.423V340.423H1154V344.423H1150V346.423H1154V350.423H1156V346.423H1160V344.423H1156ZM1156 314.423V310.423H1154V314.423H1150V316.423H1154V320.423H1156V316.423H1160V314.423H1156Z" fill="url(#paint119_linear)"/>
</g>
<defs>
<linearGradient id="paint0_linear" x1="10.8837" y1="22.7943" x2="45.3584" y2="14.9862" gradientUnits="userSpaceOnUse">
<stop stop-color="#F47B20"/>
<stop offset="0.998052" stop-color="#F15C2C"/>
</linearGradient>
<linearGradient id="paint1_linear" x1="70.8837" y1="22.7943" x2="105.358" y2="14.9862" gradientUnits="userSpaceOnUse">
<stop stop-color="#F47B20"/>
<stop offset="0.998052" stop-color="#F15C2C"/>
</linearGradient>
<linearGradient id="paint2_linear" x1="130.884" y1="22.7943" x2="165.358" y2="14.9862" gradientUnits="userSpaceOnUse">
<stop stop-color="#F47B20"/>
<stop offset="0.998052" stop-color="#F15C2C"/>
</linearGradient>
<linearGradient id="paint3_linear" x1="190.884" y1="22.7943" x2="225.358" y2="14.9862" gradientUnits="userSpaceOnUse">
<stop stop-color="#F47B20"/>
<stop offset="0.998052" stop-color="#F15C2C"/>
</linearGradient>
<linearGradient id="paint4_linear" x1="250.884" y1="22.7943" x2="285.358" y2="14.9862" gradientUnits="userSpaceOnUse">
<stop stop-color="#F47B20"/>
<stop offset="0.998052" stop-color="#F15C2C"/>
</linearGradient>
<linearGradient id="paint5_linear" x1="310.884" y1="22.7943" x2="345.358" y2="14.9862" gradientUnits="userSpaceOnUse">
<stop stop-color="#F47B20"/>
<stop offset="0.998052" stop-color="#F15C2C"/>
</linearGradient>
<linearGradient id="paint6_linear" x1="370.884" y1="22.7943" x2="405.358" y2="14.9862" gradientUnits="userSpaceOnUse">
<stop stop-color="#F47B20"/>
<stop offset="0.998052" stop-color="#F15C2C"/>
</linearGradient>
<linearGradient id="paint7_linear" x1="430.884" y1="22.7943" x2="465.358" y2="14.9862" gradientUnits="userSpaceOnUse">
<stop stop-color="#F47B20"/>
<stop offset="0.998052" stop-color="#F15C2C"/>
</linearGradient>
<linearGradient id="paint8_linear" x1="490.884" y1="22.7943" x2="525.358" y2="14.9862" gradientUnits="userSpaceOnUse">
<stop stop-color="#F47B20"/>
<stop offset="0.998052" stop-color="#F15C2C"/>
</linearGradient>
<linearGradient id="paint9_linear" x1="550.884" y1="22.7943" x2="585.358" y2="14.9862" gradientUnits="userSpaceOnUse">
<stop stop-color="#F47B20"/>
<stop offset="0.998052" stop-color="#F15C2C"/>
</linearGradient>
<linearGradient id="paint10_linear" x1="10.8837" y1="82.7943" x2="45.3584" y2="74.9862" gradientUnits="userSpaceOnUse">
<stop stop-color="#F47B20"/>
<stop offset="0.998052" stop-color="#F15C2C"/>
</linearGradient>
<linearGradient id="paint11_linear" x1="70.8837" y1="82.7943" x2="105.358" y2="74.9862" gradientUnits="userSpaceOnUse">
<stop stop-color="#F47B20"/>
<stop offset="0.998052" stop-color="#F15C2C"/>
</linearGradient>
<linearGradient id="paint12_linear" x1="130.884" y1="82.7943" x2="165.358" y2="74.9862" gradientUnits="userSpaceOnUse">
<stop stop-color="#F47B20"/>
<stop offset="0.998052" stop-color="#F15C2C"/>
</linearGradient>
<linearGradient id="paint13_linear" x1="190.884" y1="82.7943" x2="225.358" y2="74.9862" gradientUnits="userSpaceOnUse">
<stop stop-color="#F47B20"/>
<stop offset="0.998052" stop-color="#F15C2C"/>
</linearGradient>
<linearGradient id="paint14_linear" x1="250.884" y1="82.7943" x2="285.358" y2="74.9862" gradientUnits="userSpaceOnUse">
<stop stop-color="#F47B20"/>
<stop offset="0.998052" stop-color="#F15C2C"/>
</linearGradient>
<linearGradient id="paint15_linear" x1="310.884" y1="82.7943" x2="345.358" y2="74.9862" gradientUnits="userSpaceOnUse">
<stop stop-color="#F47B20"/>
<stop offset="0.998052" stop-color="#F15C2C"/>
</linearGradient>
<linearGradient id="paint16_linear" x1="370.884" y1="82.7943" x2="405.358" y2="74.9862" gradientUnits="userSpaceOnUse">
<stop stop-color="#F47B20"/>
<stop offset="0.998052" stop-color="#F15C2C"/>
</linearGradient>
<linearGradient id="paint17_linear" x1="430.884" y1="82.7943" x2="465.358" y2="74.9862" gradientUnits="userSpaceOnUse">
<stop stop-color="#F47B20"/>
<stop offset="0.998052" stop-color="#F15C2C"/>
</linearGradient>
<linearGradient id="paint18_linear" x1="490.884" y1="82.7943" x2="525.358" y2="74.9862" gradientUnits="userSpaceOnUse">
<stop stop-color="#F47B20"/>
<stop offset="0.998052" stop-color="#F15C2C"/>
</linearGradient>
<linearGradient id="paint19_linear" x1="550.884" y1="82.7943" x2="585.358" y2="74.9862" gradientUnits="userSpaceOnUse">
<stop stop-color="#F47B20"/>
<stop offset="0.998052" stop-color="#F15C2C"/>
</linearGradient>
<linearGradient id="paint20_linear" x1="10.8837" y1="142.794" x2="45.3584" y2="134.986" gradientUnits="userSpaceOnUse">
<stop stop-color="#F47B20"/>
<stop offset="0.998052" stop-color="#F15C2C"/>
</linearGradient>
<linearGradient id="paint21_linear" x1="70.8837" y1="142.794" x2="105.358" y2="134.986" gradientUnits="userSpaceOnUse">
<stop stop-color="#F47B20"/>
<stop offset="0.998052" stop-color="#F15C2C"/>
</linearGradient>
<linearGradient id="paint22_linear" x1="130.884" y1="142.794" x2="165.358" y2="134.986" gradientUnits="userSpaceOnUse">
<stop stop-color="#F47B20"/>
<stop offset="0.998052" stop-color="#F15C2C"/>
</linearGradient>
<linearGradient id="paint23_linear" x1="190.884" y1="142.794" x2="225.358" y2="134.986" gradientUnits="userSpaceOnUse">
<stop stop-color="#F47B20"/>
<stop offset="0.998052" stop-color="#F15C2C"/>
</linearGradient>
<linearGradient id="paint24_linear" x1="250.884" y1="142.794" x2="285.358" y2="134.986" gradientUnits="userSpaceOnUse">
<stop stop-color="#F47B20"/>
<stop offset="0.998052" stop-color="#F15C2C"/>
</linearGradient>
<linearGradient id="paint25_linear" x1="310.884" y1="142.794" x2="345.358" y2="134.986" gradientUnits="userSpaceOnUse">
<stop stop-color="#F47B20"/>
<stop offset="0.998052" stop-color="#F15C2C"/>
</linearGradient>
<linearGradient id="paint26_linear" x1="370.884" y1="142.794" x2="405.358" y2="134.986" gradientUnits="userSpaceOnUse">
<stop stop-color="#F47B20"/>
<stop offset="0.998052" stop-color="#F15C2C"/>
</linearGradient>
<linearGradient id="paint27_linear" x1="430.884" y1="142.794" x2="465.358" y2="134.986" gradientUnits="userSpaceOnUse">
<stop stop-color="#F47B20"/>
<stop offset="0.998052" stop-color="#F15C2C"/>
</linearGradient>
<linearGradient id="paint28_linear" x1="490.884" y1="142.794" x2="525.358" y2="134.986" gradientUnits="userSpaceOnUse">
<stop stop-color="#F47B20"/>
<stop offset="0.998052" stop-color="#F15C2C"/>
</linearGradient>
<linearGradient id="paint29_linear" x1="550.884" y1="142.794" x2="585.358" y2="134.986" gradientUnits="userSpaceOnUse">
<stop stop-color="#F47B20"/>
<stop offset="0.998052" stop-color="#F15C2C"/>
</linearGradient>
<linearGradient id="paint30_linear" x1="10.8837" y1="202.794" x2="45.3584" y2="194.986" gradientUnits="userSpaceOnUse">
<stop stop-color="#F47B20"/>
<stop offset="0.998052" stop-color="#F15C2C"/>
</linearGradient>
<linearGradient id="paint31_linear" x1="70.8837" y1="202.794" x2="105.358" y2="194.986" gradientUnits="userSpaceOnUse">
<stop stop-color="#F47B20"/>
<stop offset="0.998052" stop-color="#F15C2C"/>
</linearGradient>
<linearGradient id="paint32_linear" x1="130.884" y1="202.794" x2="165.358" y2="194.986" gradientUnits="userSpaceOnUse">
<stop stop-color="#F47B20"/>
<stop offset="0.998052" stop-color="#F15C2C"/>
</linearGradient>
<linearGradient id="paint33_linear" x1="190.884" y1="202.794" x2="225.358" y2="194.986" gradientUnits="userSpaceOnUse">
<stop stop-color="#F47B20"/>
<stop offset="0.998052" stop-color="#F15C2C"/>
</linearGradient>
<linearGradient id="paint34_linear" x1="250.884" y1="202.794" x2="285.358" y2="194.986" gradientUnits="userSpaceOnUse">
<stop stop-color="#F47B20"/>
<stop offset="0.998052" stop-color="#F15C2C"/>
</linearGradient>
<linearGradient id="paint35_linear" x1="310.884" y1="202.794" x2="345.358" y2="194.986" gradientUnits="userSpaceOnUse">
<stop stop-color="#F47B20"/>
<stop offset="0.998052" stop-color="#F15C2C"/>
</linearGradient>
<linearGradient id="paint36_linear" x1="370.884" y1="202.794" x2="405.358" y2="194.986" gradientUnits="userSpaceOnUse">
<stop stop-color="#F47B20"/>
<stop offset="0.998052" stop-color="#F15C2C"/>
</linearGradient>
<linearGradient id="paint37_linear" x1="430.884" y1="202.794" x2="465.358" y2="194.986" gradientUnits="userSpaceOnUse">
<stop stop-color="#F47B20"/>
<stop offset="0.998052" stop-color="#F15C2C"/>
</linearGradient>
<linearGradient id="paint38_linear" x1="490.884" y1="202.794" x2="525.358" y2="194.986" gradientUnits="userSpaceOnUse">
<stop stop-color="#F47B20"/>
<stop offset="0.998052" stop-color="#F15C2C"/>
</linearGradient>
<linearGradient id="paint39_linear" x1="550.884" y1="202.794" x2="585.358" y2="194.986" gradientUnits="userSpaceOnUse">
<stop stop-color="#F47B20"/>
<stop offset="0.998052" stop-color="#F15C2C"/>
</linearGradient>
<linearGradient id="paint40_linear" x1="10.8837" y1="262.794" x2="45.3584" y2="254.986" gradientUnits="userSpaceOnUse">
<stop stop-color="#F47B20"/>
<stop offset="0.998052" stop-color="#F15C2C"/>
</linearGradient>
<linearGradient id="paint41_linear" x1="70.8837" y1="262.794" x2="105.358" y2="254.986" gradientUnits="userSpaceOnUse">
<stop stop-color="#F47B20"/>
<stop offset="0.998052" stop-color="#F15C2C"/>
</linearGradient>
<linearGradient id="paint42_linear" x1="130.884" y1="262.794" x2="165.358" y2="254.986" gradientUnits="userSpaceOnUse">
<stop stop-color="#F47B20"/>
<stop offset="0.998052" stop-color="#F15C2C"/>
</linearGradient>
<linearGradient id="paint43_linear" x1="190.884" y1="262.794" x2="225.358" y2="254.986" gradientUnits="userSpaceOnUse">
<stop stop-color="#F47B20"/>
<stop offset="0.998052" stop-color="#F15C2C"/>
</linearGradient>
<linearGradient id="paint44_linear" x1="250.884" y1="262.794" x2="285.358" y2="254.986" gradientUnits="userSpaceOnUse">
<stop stop-color="#F47B20"/>
<stop offset="0.998052" stop-color="#F15C2C"/>
</linearGradient>
<linearGradient id="paint45_linear" x1="310.884" y1="262.794" x2="345.358" y2="254.986" gradientUnits="userSpaceOnUse">
<stop stop-color="#F47B20"/>
<stop offset="0.998052" stop-color="#F15C2C"/>
</linearGradient>
<linearGradient id="paint46_linear" x1="370.884" y1="262.794" x2="405.358" y2="254.986" gradientUnits="userSpaceOnUse">
<stop stop-color="#F47B20"/>
<stop offset="0.998052" stop-color="#F15C2C"/>
</linearGradient>
<linearGradient id="paint47_linear" x1="430.884" y1="262.794" x2="465.358" y2="254.986" gradientUnits="userSpaceOnUse">
<stop stop-color="#F47B20"/>
<stop offset="0.998052" stop-color="#F15C2C"/>
</linearGradient>
<linearGradient id="paint48_linear" x1="490.884" y1="262.794" x2="525.358" y2="254.986" gradientUnits="userSpaceOnUse">
<stop stop-color="#F47B20"/>
<stop offset="0.998052" stop-color="#F15C2C"/>
</linearGradient>
<linearGradient id="paint49_linear" x1="550.884" y1="262.794" x2="585.358" y2="254.986" gradientUnits="userSpaceOnUse">
<stop stop-color="#F47B20"/>
<stop offset="0.998052" stop-color="#F15C2C"/>
</linearGradient>
<linearGradient id="paint50_linear" x1="10.8837" y1="322.794" x2="45.3584" y2="314.986" gradientUnits="userSpaceOnUse">
<stop stop-color="#F47B20"/>
<stop offset="0.998052" stop-color="#F15C2C"/>
</linearGradient>
<linearGradient id="paint51_linear" x1="70.8837" y1="322.794" x2="105.358" y2="314.986" gradientUnits="userSpaceOnUse">
<stop stop-color="#F47B20"/>
<stop offset="0.998052" stop-color="#F15C2C"/>
</linearGradient>
<linearGradient id="paint52_linear" x1="130.884" y1="322.794" x2="165.358" y2="314.986" gradientUnits="userSpaceOnUse">
<stop stop-color="#F47B20"/>
<stop offset="0.998052" stop-color="#F15C2C"/>
</linearGradient>
<linearGradient id="paint53_linear" x1="190.884" y1="322.794" x2="225.358" y2="314.986" gradientUnits="userSpaceOnUse">
<stop stop-color="#F47B20"/>
<stop offset="0.998052" stop-color="#F15C2C"/>
</linearGradient>
<linearGradient id="paint54_linear" x1="250.884" y1="322.794" x2="285.358" y2="314.986" gradientUnits="userSpaceOnUse">
<stop stop-color="#F47B20"/>
<stop offset="0.998052" stop-color="#F15C2C"/>
</linearGradient>
<linearGradient id="paint55_linear" x1="310.884" y1="322.794" x2="345.358" y2="314.986" gradientUnits="userSpaceOnUse">
<stop stop-color="#F47B20"/>
<stop offset="0.998052" stop-color="#F15C2C"/>
</linearGradient>
<linearGradient id="paint56_linear" x1="370.884" y1="322.794" x2="405.358" y2="314.986" gradientUnits="userSpaceOnUse">
<stop stop-color="#F47B20"/>
<stop offset="0.998052" stop-color="#F15C2C"/>
</linearGradient>
<linearGradient id="paint57_linear" x1="430.884" y1="322.794" x2="465.358" y2="314.986" gradientUnits="userSpaceOnUse">
<stop stop-color="#F47B20"/>
<stop offset="0.998052" stop-color="#F15C2C"/>
</linearGradient>
<linearGradient id="paint58_linear" x1="490.884" y1="322.794" x2="525.358" y2="314.986" gradientUnits="userSpaceOnUse">
<stop stop-color="#F47B20"/>
<stop offset="0.998052" stop-color="#F15C2C"/>
</linearGradient>
<linearGradient id="paint59_linear" x1="550.884" y1="322.794" x2="585.358" y2="314.986" gradientUnits="userSpaceOnUse">
<stop stop-color="#F47B20"/>
<stop offset="0.998052" stop-color="#F15C2C"/>
</linearGradient>
<linearGradient id="paint60_linear" x1="610.884" y1="22.7943" x2="645.358" y2="14.9862" gradientUnits="userSpaceOnUse">
<stop stop-color="#F47B20"/>
<stop offset="0.998052" stop-color="#F15C2C"/>
</linearGradient>
<linearGradient id="paint61_linear" x1="670.884" y1="22.7943" x2="705.358" y2="14.9862" gradientUnits="userSpaceOnUse">
<stop stop-color="#F47B20"/>
<stop offset="0.998052" stop-color="#F15C2C"/>
</linearGradient>
<linearGradient id="paint62_linear" x1="730.884" y1="22.7943" x2="765.358" y2="14.9862" gradientUnits="userSpaceOnUse">
<stop stop-color="#F47B20"/>
<stop offset="0.998052" stop-color="#F15C2C"/>
</linearGradient>
<linearGradient id="paint63_linear" x1="790.884" y1="22.7943" x2="825.358" y2="14.9862" gradientUnits="userSpaceOnUse">
<stop stop-color="#F47B20"/>
<stop offset="0.998052" stop-color="#F15C2C"/>
</linearGradient>
<linearGradient id="paint64_linear" x1="850.884" y1="22.7943" x2="885.358" y2="14.9862" gradientUnits="userSpaceOnUse">
<stop stop-color="#F47B20"/>
<stop offset="0.998052" stop-color="#F15C2C"/>
</linearGradient>
<linearGradient id="paint65_linear" x1="910.884" y1="22.7943" x2="945.358" y2="14.9862" gradientUnits="userSpaceOnUse">
<stop stop-color="#F47B20"/>
<stop offset="0.998052" stop-color="#F15C2C"/>
</linearGradient>
<linearGradient id="paint66_linear" x1="970.884" y1="22.7943" x2="1005.36" y2="14.9862" gradientUnits="userSpaceOnUse">
<stop stop-color="#F47B20"/>
<stop offset="0.998052" stop-color="#F15C2C"/>
</linearGradient>
<linearGradient id="paint67_linear" x1="1030.88" y1="22.7943" x2="1065.36" y2="14.9862" gradientUnits="userSpaceOnUse">
<stop stop-color="#F47B20"/>
<stop offset="0.998052" stop-color="#F15C2C"/>
</linearGradient>
<linearGradient id="paint68_linear" x1="1090.88" y1="22.7943" x2="1125.36" y2="14.9862" gradientUnits="userSpaceOnUse">
<stop stop-color="#F47B20"/>
<stop offset="0.998052" stop-color="#F15C2C"/>
</linearGradient>
<linearGradient id="paint69_linear" x1="1150.88" y1="22.7943" x2="1185.36" y2="14.9862" gradientUnits="userSpaceOnUse">
<stop stop-color="#F47B20"/>
<stop offset="0.998052" stop-color="#F15C2C"/>
</linearGradient>
<linearGradient id="paint70_linear" x1="610.884" y1="82.7943" x2="645.358" y2="74.9862" gradientUnits="userSpaceOnUse">
<stop stop-color="#F47B20"/>
<stop offset="0.998052" stop-color="#F15C2C"/>
</linearGradient>
<linearGradient id="paint71_linear" x1="670.884" y1="82.7943" x2="705.358" y2="74.9862" gradientUnits="userSpaceOnUse">
<stop stop-color="#F47B20"/>
<stop offset="0.998052" stop-color="#F15C2C"/>
</linearGradient>
<linearGradient id="paint72_linear" x1="730.884" y1="82.7943" x2="765.358" y2="74.9862" gradientUnits="userSpaceOnUse">
<stop stop-color="#F47B20"/>
<stop offset="0.998052" stop-color="#F15C2C"/>
</linearGradient>
<linearGradient id="paint73_linear" x1="790.884" y1="82.7943" x2="825.358" y2="74.9862" gradientUnits="userSpaceOnUse">
<stop stop-color="#F47B20"/>
<stop offset="0.998052" stop-color="#F15C2C"/>
</linearGradient>
<linearGradient id="paint74_linear" x1="850.884" y1="82.7943" x2="885.358" y2="74.9862" gradientUnits="userSpaceOnUse">
<stop stop-color="#F47B20"/>
<stop offset="0.998052" stop-color="#F15C2C"/>
</linearGradient>
<linearGradient id="paint75_linear" x1="910.884" y1="82.7943" x2="945.358" y2="74.9862" gradientUnits="userSpaceOnUse">
<stop stop-color="#F47B20"/>
<stop offset="0.998052" stop-color="#F15C2C"/>
</linearGradient>
<linearGradient id="paint76_linear" x1="970.884" y1="82.7943" x2="1005.36" y2="74.9862" gradientUnits="userSpaceOnUse">
<stop stop-color="#F47B20"/>
<stop offset="0.998052" stop-color="#F15C2C"/>
</linearGradient>
<linearGradient id="paint77_linear" x1="1030.88" y1="82.7943" x2="1065.36" y2="74.9862" gradientUnits="userSpaceOnUse">
<stop stop-color="#F47B20"/>
<stop offset="0.998052" stop-color="#F15C2C"/>
</linearGradient>
<linearGradient id="paint78_linear" x1="1090.88" y1="82.7943" x2="1125.36" y2="74.9862" gradientUnits="userSpaceOnUse">
<stop stop-color="#F47B20"/>
<stop offset="0.998052" stop-color="#F15C2C"/>
</linearGradient>
<linearGradient id="paint79_linear" x1="1150.88" y1="82.7943" x2="1185.36" y2="74.9862" gradientUnits="userSpaceOnUse">
<stop stop-color="#F47B20"/>
<stop offset="0.998052" stop-color="#F15C2C"/>
</linearGradient>
<linearGradient id="paint80_linear" x1="610.884" y1="142.794" x2="645.358" y2="134.986" gradientUnits="userSpaceOnUse">
<stop stop-color="#F47B20"/>
<stop offset="0.998052" stop-color="#F15C2C"/>
</linearGradient>
<linearGradient id="paint81_linear" x1="670.884" y1="142.794" x2="705.358" y2="134.986" gradientUnits="userSpaceOnUse">
<stop stop-color="#F47B20"/>
<stop offset="0.998052" stop-color="#F15C2C"/>
</linearGradient>
<linearGradient id="paint82_linear" x1="730.884" y1="142.794" x2="765.358" y2="134.986" gradientUnits="userSpaceOnUse">
<stop stop-color="#F47B20"/>
<stop offset="0.998052" stop-color="#F15C2C"/>
</linearGradient>
<linearGradient id="paint83_linear" x1="790.884" y1="142.794" x2="825.358" y2="134.986" gradientUnits="userSpaceOnUse">
<stop stop-color="#F47B20"/>
<stop offset="0.998052" stop-color="#F15C2C"/>
</linearGradient>
<linearGradient id="paint84_linear" x1="850.884" y1="142.794" x2="885.358" y2="134.986" gradientUnits="userSpaceOnUse">
<stop stop-color="#F47B20"/>
<stop offset="0.998052" stop-color="#F15C2C"/>
</linearGradient>
<linearGradient id="paint85_linear" x1="910.884" y1="142.794" x2="945.358" y2="134.986" gradientUnits="userSpaceOnUse">
<stop stop-color="#F47B20"/>
<stop offset="0.998052" stop-color="#F15C2C"/>
</linearGradient>
<linearGradient id="paint86_linear" x1="970.884" y1="142.794" x2="1005.36" y2="134.986" gradientUnits="userSpaceOnUse">
<stop stop-color="#F47B20"/>
<stop offset="0.998052" stop-color="#F15C2C"/>
</linearGradient>
<linearGradient id="paint87_linear" x1="1030.88" y1="142.794" x2="1065.36" y2="134.986" gradientUnits="userSpaceOnUse">
<stop stop-color="#F47B20"/>
<stop offset="0.998052" stop-color="#F15C2C"/>
</linearGradient>
<linearGradient id="paint88_linear" x1="1090.88" y1="142.794" x2="1125.36" y2="134.986" gradientUnits="userSpaceOnUse">
<stop stop-color="#F47B20"/>
<stop offset="0.998052" stop-color="#F15C2C"/>
</linearGradient>
<linearGradient id="paint89_linear" x1="1150.88" y1="142.794" x2="1185.36" y2="134.986" gradientUnits="userSpaceOnUse">
<stop stop-color="#F47B20"/>
<stop offset="0.998052" stop-color="#F15C2C"/>
</linearGradient>
<linearGradient id="paint90_linear" x1="610.884" y1="202.794" x2="645.358" y2="194.986" gradientUnits="userSpaceOnUse">
<stop stop-color="#F47B20"/>
<stop offset="0.998052" stop-color="#F15C2C"/>
</linearGradient>
<linearGradient id="paint91_linear" x1="670.884" y1="202.794" x2="705.358" y2="194.986" gradientUnits="userSpaceOnUse">
<stop stop-color="#F47B20"/>
<stop offset="0.998052" stop-color="#F15C2C"/>
</linearGradient>
<linearGradient id="paint92_linear" x1="730.884" y1="202.794" x2="765.358" y2="194.986" gradientUnits="userSpaceOnUse">
<stop stop-color="#F47B20"/>
<stop offset="0.998052" stop-color="#F15C2C"/>
</linearGradient>
<linearGradient id="paint93_linear" x1="790.884" y1="202.794" x2="825.358" y2="194.986" gradientUnits="userSpaceOnUse">
<stop stop-color="#F47B20"/>
<stop offset="0.998052" stop-color="#F15C2C"/>
</linearGradient>
<linearGradient id="paint94_linear" x1="850.884" y1="202.794" x2="885.358" y2="194.986" gradientUnits="userSpaceOnUse">
<stop stop-color="#F47B20"/>
<stop offset="0.998052" stop-color="#F15C2C"/>
</linearGradient>
<linearGradient id="paint95_linear" x1="910.884" y1="202.794" x2="945.358" y2="194.986" gradientUnits="userSpaceOnUse">
<stop stop-color="#F47B20"/>
<stop offset="0.998052" stop-color="#F15C2C"/>
</linearGradient>
<linearGradient id="paint96_linear" x1="970.884" y1="202.794" x2="1005.36" y2="194.986" gradientUnits="userSpaceOnUse">
<stop stop-color="#F47B20"/>
<stop offset="0.998052" stop-color="#F15C2C"/>
</linearGradient>
<linearGradient id="paint97_linear" x1="1030.88" y1="202.794" x2="1065.36" y2="194.986" gradientUnits="userSpaceOnUse">
<stop stop-color="#F47B20"/>
<stop offset="0.998052" stop-color="#F15C2C"/>
</linearGradient>
<linearGradient id="paint98_linear" x1="1090.88" y1="202.794" x2="1125.36" y2="194.986" gradientUnits="userSpaceOnUse">
<stop stop-color="#F47B20"/>
<stop offset="0.998052" stop-color="#F15C2C"/>
</linearGradient>
<linearGradient id="paint99_linear" x1="1150.88" y1="202.794" x2="1185.36" y2="194.986" gradientUnits="userSpaceOnUse">
<stop stop-color="#F47B20"/>
<stop offset="0.998052" stop-color="#F15C2C"/>
</linearGradient>
<linearGradient id="paint100_linear" x1="610.884" y1="262.794" x2="645.358" y2="254.986" gradientUnits="userSpaceOnUse">
<stop stop-color="#F47B20"/>
<stop offset="0.998052" stop-color="#F15C2C"/>
</linearGradient>
<linearGradient id="paint101_linear" x1="670.884" y1="262.794" x2="705.358" y2="254.986" gradientUnits="userSpaceOnUse">
<stop stop-color="#F47B20"/>
<stop offset="0.998052" stop-color="#F15C2C"/>
</linearGradient>
<linearGradient id="paint102_linear" x1="730.884" y1="262.794" x2="765.358" y2="254.986" gradientUnits="userSpaceOnUse">
<stop stop-color="#F47B20"/>
<stop offset="0.998052" stop-color="#F15C2C"/>
</linearGradient>
<linearGradient id="paint103_linear" x1="790.884" y1="262.794" x2="825.358" y2="254.986" gradientUnits="userSpaceOnUse">
<stop stop-color="#F47B20"/>
<stop offset="0.998052" stop-color="#F15C2C"/>
</linearGradient>
<linearGradient id="paint104_linear" x1="850.884" y1="262.794" x2="885.358" y2="254.986" gradientUnits="userSpaceOnUse">
<stop stop-color="#F47B20"/>
<stop offset="0.998052" stop-color="#F15C2C"/>
</linearGradient>
<linearGradient id="paint105_linear" x1="910.884" y1="262.794" x2="945.358" y2="254.986" gradientUnits="userSpaceOnUse">
<stop stop-color="#F47B20"/>
<stop offset="0.998052" stop-color="#F15C2C"/>
</linearGradient>
<linearGradient id="paint106_linear" x1="970.884" y1="262.794" x2="1005.36" y2="254.986" gradientUnits="userSpaceOnUse">
<stop stop-color="#F47B20"/>
<stop offset="0.998052" stop-color="#F15C2C"/>
</linearGradient>
<linearGradient id="paint107_linear" x1="1030.88" y1="262.794" x2="1065.36" y2="254.986" gradientUnits="userSpaceOnUse">
<stop stop-color="#F47B20"/>
<stop offset="0.998052" stop-color="#F15C2C"/>
</linearGradient>
<linearGradient id="paint108_linear" x1="1090.88" y1="262.794" x2="1125.36" y2="254.986" gradientUnits="userSpaceOnUse">
<stop stop-color="#F47B20"/>
<stop offset="0.998052" stop-color="#F15C2C"/>
</linearGradient>
<linearGradient id="paint109_linear" x1="1150.88" y1="262.794" x2="1185.36" y2="254.986" gradientUnits="userSpaceOnUse">
<stop stop-color="#F47B20"/>
<stop offset="0.998052" stop-color="#F15C2C"/>
</linearGradient>
<linearGradient id="paint110_linear" x1="610.884" y1="322.794" x2="645.358" y2="314.986" gradientUnits="userSpaceOnUse">
<stop stop-color="#F47B20"/>
<stop offset="0.998052" stop-color="#F15C2C"/>
</linearGradient>
<linearGradient id="paint111_linear" x1="670.884" y1="322.794" x2="705.358" y2="314.986" gradientUnits="userSpaceOnUse">
<stop stop-color="#F47B20"/>
<stop offset="0.998052" stop-color="#F15C2C"/>
</linearGradient>
<linearGradient id="paint112_linear" x1="730.884" y1="322.794" x2="765.358" y2="314.986" gradientUnits="userSpaceOnUse">
<stop stop-color="#F47B20"/>
<stop offset="0.998052" stop-color="#F15C2C"/>
</linearGradient>
<linearGradient id="paint113_linear" x1="790.884" y1="322.794" x2="825.358" y2="314.986" gradientUnits="userSpaceOnUse">
<stop stop-color="#F47B20"/>
<stop offset="0.998052" stop-color="#F15C2C"/>
</linearGradient>
<linearGradient id="paint114_linear" x1="850.884" y1="322.794" x2="885.358" y2="314.986" gradientUnits="userSpaceOnUse">
<stop stop-color="#F47B20"/>
<stop offset="0.998052" stop-color="#F15C2C"/>
</linearGradient>
<linearGradient id="paint115_linear" x1="910.884" y1="322.794" x2="945.358" y2="314.986" gradientUnits="userSpaceOnUse">
<stop stop-color="#F47B20"/>
<stop offset="0.998052" stop-color="#F15C2C"/>
</linearGradient>
<linearGradient id="paint116_linear" x1="970.884" y1="322.794" x2="1005.36" y2="314.986" gradientUnits="userSpaceOnUse">
<stop stop-color="#F47B20"/>
<stop offset="0.998052" stop-color="#F15C2C"/>
</linearGradient>
<linearGradient id="paint117_linear" x1="1030.88" y1="322.794" x2="1065.36" y2="314.986" gradientUnits="userSpaceOnUse">
<stop stop-color="#F47B20"/>
<stop offset="0.998052" stop-color="#F15C2C"/>
</linearGradient>
<linearGradient id="paint118_linear" x1="1090.88" y1="322.794" x2="1125.36" y2="314.986" gradientUnits="userSpaceOnUse">
<stop stop-color="#F47B20"/>
<stop offset="0.998052" stop-color="#F15C2C"/>
</linearGradient>
<linearGradient id="paint119_linear" x1="1150.88" y1="322.794" x2="1185.36" y2="314.986" gradientUnits="userSpaceOnUse">
<stop stop-color="#F47B20"/>
<stop offset="0.998052" stop-color="#F15C2C"/>
</linearGradient>
<clipPath id="clip0">
<rect width="1200" height="370" fill="white" transform="translate(0 0.422852)"/>
</clipPath>
</defs>
</svg>
