<svg width="41" height="42" viewBox="0 0 41 42" fill="none" xmlns="http://www.w3.org/2000/svg">
<path d="M28.68 0.5C35.147 0.506 40.389 5.743 40.4 12.21V29.79C40.389 36.257 35.147 41.494 28.68 41.5H12.21C5.745 41.494 0.506 36.255 0.5 29.79V12.21C0.506 5.745 5.745 0.506 12.21 0.5H28.68ZM28.68 3.5H12.21C9.90078 3.50265 7.68689 4.42115 6.05402 6.05402C4.42115 7.68689 3.50265 9.90078 3.5 12.21V29.79C3.50265 32.0992 4.42115 34.3131 6.05402 35.946C7.68689 37.5788 9.90078 38.4974 12.21 38.5H28.68C30.9892 38.4974 33.2031 37.5788 34.836 35.946C36.4688 34.3131 37.3874 32.0992 37.39 29.79V12.21C37.3874 9.90078 36.4688 7.68689 34.836 6.05402C33.2031 4.42115 30.9892 3.50265 28.68 3.5V3.5ZM20.5 10.04C22.0094 10.0179 23.5078 10.2996 24.9062 10.8682C26.3046 11.4368 27.5743 12.2808 28.64 13.35C30.4413 15.3429 31.412 17.9493 31.353 20.635L31.34 20.97C31.2931 23.8447 30.1356 26.5897 28.11 28.63C27.1172 29.6421 25.9332 30.4471 24.6269 30.9981C23.3205 31.5491 21.9178 31.8353 20.5 31.84C19.0652 31.8453 17.6435 31.5672 16.3165 31.0218C14.9894 30.4764 13.7831 29.6743 12.7667 28.6616C11.7503 27.649 10.9438 26.4456 10.3935 25.1205C9.84325 23.7954 9.55999 22.3748 9.56 20.94C9.56191 19.4679 9.85741 18.011 10.4292 16.6546C11.001 15.2981 11.8376 14.0692 12.89 13.04C13.8912 12.0534 15.0813 11.2791 16.3889 10.7636C17.6966 10.2481 19.0949 10.002 20.5 10.04V10.04ZM20.2 13.72C18.4398 13.7362 16.7547 14.4353 15.5 15.67C14.7998 16.3579 14.243 17.1779 13.8619 18.0825C13.4808 18.9872 13.2831 19.9584 13.28 20.94C13.28 22.8549 14.0407 24.6913 15.3947 26.0453C16.7487 27.3993 18.5851 28.16 20.5 28.16C22.4149 28.16 24.2513 27.3993 25.6053 26.0453C26.9593 24.6913 27.72 22.8549 27.72 20.94C27.8317 19.113 27.2171 17.316 26.01 15.94C25.2718 15.2284 24.3987 14.6716 23.4422 14.3024C22.4856 13.9331 21.4649 13.7589 20.44 13.79L20.2 13.72V13.72ZM31.6 7.2C32.2737 7.2 32.9197 7.46761 33.396 7.94395C33.8724 8.42029 34.14 9.06635 34.14 9.74C34.14 10.4136 33.8724 11.0597 33.396 11.5361C32.9197 12.0124 32.2737 12.28 31.6 12.28C30.9264 12.28 30.2803 12.0124 29.8039 11.5361C29.3276 11.0597 29.06 10.4136 29.06 9.74C29.06 9.06635 29.3276 8.42029 29.8039 7.94395C30.2803 7.46761 30.9264 7.2 31.6 7.2V7.2Z" fill="#4A4A4A"/>
</svg>
