<svg width="42" height="42" viewBox="0 0 42 42" fill="none" xmlns="http://www.w3.org/2000/svg">
<g clip-path="url(#clip0)">
<path d="M0.664995 14.11H9.175V41.5H0.664995V14.11ZM4.915 0.500003C6.22517 0.49735 7.48273 1.01527 8.41103 1.93982C9.33934 2.86438 9.86234 4.11983 9.865 5.43C9.86765 6.74017 9.34973 7.99773 8.42517 8.92604C7.50062 9.85434 6.24517 10.3774 4.935 10.38C3.62483 10.3827 2.36726 9.86474 1.43896 8.94018C0.510654 8.01563 -0.0123523 6.76017 -0.0150045 5.45C-0.0176567 4.13983 0.500262 2.88227 1.42482 1.95397C2.34937 1.02566 3.60483 0.502655 4.915 0.500003V0.500003ZM14.515 41.5H22.985V27.95C22.985 24.38 23.655 20.95 28.085 20.95C32.515 20.95 32.505 25.03 32.505 28.21V41.5H41.015V26.5C41.015 19.13 39.425 13.5 30.805 13.5C29.197 13.4478 27.6048 13.8309 26.1967 14.609C24.7885 15.387 23.6167 16.531 22.805 17.92H22.685V14.11H14.515V41.5V41.5Z" fill="#4A4A4A"/>
</g>
<defs>
<clipPath id="clip0">
<rect width="42" height="42" fill="white"/>
</clipPath>
</defs>
</svg>
