<svg width="45" height="36" viewBox="0 0 45 36" fill="none" xmlns="http://www.w3.org/2000/svg">
<path d="M44.5 4.404C42.8526 5.13146 41.1073 5.61326 39.32 5.834C41.2181 4.71047 42.6405 2.93242 43.32 0.833999C41.5494 1.88647 39.6112 2.62723 37.59 3.024C36.3627 1.67344 34.7537 0.727906 32.9766 0.312802C31.1995 -0.102302 29.3382 0.0326403 27.6396 0.699731C25.941 1.36682 24.4852 2.53454 23.4655 4.048C22.4458 5.56147 21.9103 7.34917 21.93 9.174C21.9334 9.86414 22.0139 10.5517 22.17 11.224C18.5839 11.0491 15.0746 10.1218 11.8702 8.50238C8.66574 6.88293 5.83779 4.60754 3.57 1.824C2.41861 3.81315 2.06625 6.16555 2.58427 8.40476C3.1023 10.644 4.45199 12.6026 6.36 13.884C4.92526 13.8356 3.5229 13.4448 2.27 12.744V12.864C2.26403 14.9481 2.98157 16.9697 4.30014 18.5837C5.6187 20.1978 7.45656 21.3041 9.5 21.714C8.72482 21.9279 7.92416 22.0356 7.12 22.034C6.54968 22.0317 5.98072 21.9782 5.42 21.874C5.98743 23.6791 7.10934 25.2594 8.62629 26.3904C10.1432 27.5213 11.9781 28.1455 13.87 28.174C10.6672 30.6692 6.71998 32.0178 2.66 32.004C1.93813 32.0012 1.217 31.9578 0.5 31.874C4.62876 34.5249 9.43349 35.9309 14.34 35.924C30.94 35.924 40.02 22.174 40.02 10.244V9.084C41.7764 7.79903 43.2929 6.21485 44.5 4.404Z" fill="#4A4A4A"/>
</svg>
